<?xml version="1.0" encoding="UTF-8"?>
<svg version="1.1" xmlns="http://www.w3.org/2000/svg" width="200" height="216">
<path d="M0 0 C4.15354705 3.08552851 7.88193496 6.58678665 11.59130859 10.18212891 C12.19072266 10.70806641 12.79013672 11.23400391 13.40771484 11.77587891 C28.19698819 25.22691174 38.56169135 48.37167472 39.76831055 68.07202148 C40.38681343 98.39837597 34.08314303 124.32937413 12.88256836 146.98681641 C-4.54362652 164.81855107 -27.90216493 175.25857036 -52.78759766 175.56225586 C-64.99331967 175.54555095 -75.84662167 175.27871306 -87.40869141 171.18212891 C-88.51470703 170.83150391 -89.62072266 170.48087891 -90.76025391 170.11962891 C-115.28766999 161.69015894 -133.90834541 142.36883522 -145.30419922 119.58300781 C-148.80782779 112.32016114 -151.01403067 105.15315141 -152.40869141 97.18212891 C-152.59173828 96.30556641 -152.77478516 95.42900391 -152.96337891 94.52587891 C-156.41853666 68.58188737 -150.7895195 42.94375808 -135.57275391 21.60791016 C-103.05991069 -20.65878603 -43.95113888 -31.07799034 0 0 Z M-90.40869141 22.18212891 C-90.73869141 25.81212891 -91.06869141 29.44212891 -91.40869141 33.18212891 C-92.42189453 33.13572266 -93.43509766 33.08931641 -94.47900391 33.04150391 C-95.83053672 33.00396133 -97.18210169 32.96756384 -98.53369141 32.93212891 C-99.19884766 32.89861328 -99.86400391 32.86509766 -100.54931641 32.83056641 C-105.67783736 32.73000717 -108.476248 33.95489572 -112.40869141 37.18212891 C-114.03478621 40.43431852 -113.58313617 44.01645259 -113.6015625 47.59155273 C-113.60973999 48.46163467 -113.61791748 49.33171661 -113.62634277 50.22816467 C-113.65120928 53.11515612 -113.66771557 56.00209837 -113.68212891 58.88916016 C-113.68745258 59.87401587 -113.69277626 60.85887157 -113.69826126 61.8735714 C-113.7249977 67.08587237 -113.74437144 72.29814934 -113.75878906 77.51049805 C-113.77544245 82.89776872 -113.82022472 88.28442829 -113.87116051 93.67146778 C-113.90479418 97.81073215 -113.91636222 101.94985076 -113.92201614 106.08923912 C-113.92873885 108.07519898 -113.94398727 110.06114891 -113.96790695 112.04697609 C-113.99947965 114.82666655 -113.99960731 117.60469925 -113.9921875 120.38452148 C-114.00859283 121.20496948 -114.02499817 122.02541748 -114.04190063 122.87072754 C-113.99733054 126.94951136 -113.71790451 128.7420423 -111.3097229 132.16947937 C-105.57345826 136.1491295 -98.60016258 135.31913216 -91.86499023 135.26733398 C-90.46858055 135.26256042 -90.46858055 135.26256042 -89.04396057 135.25769043 C-85.98448032 135.24516243 -82.92514407 135.22428162 -79.86572266 135.20166016 C-78.81800879 135.19470312 -77.77029491 135.18774609 -76.69083214 135.18057823 C-71.15539626 135.14328072 -65.6200586 135.09930915 -60.0847168 135.05004883 C-54.36484278 135.00051729 -48.64510904 134.97445641 -42.92506886 134.95361805 C-38.52493336 134.93328068 -34.12507382 134.8954202 -29.72510338 134.85275841 C-27.61560124 134.83540141 -25.50603331 134.82471959 -23.39646339 134.82081032 C-20.45187214 134.8137493 -17.50854098 134.78188683 -14.56420898 134.74389648 C-13.6919165 134.7473558 -12.81962402 134.75081512 -11.92089844 134.75437927 C-7.06715445 134.6719002 -7.06715445 134.6719002 -2.89897156 132.33451843 C0.02736653 128.10805172 -0.25458552 123.96421026 -0.24755859 119.02636719 C-0.24259369 118.1951535 -0.23762878 117.36393982 -0.23251343 116.50753784 C-0.21789996 113.75583063 -0.21109142 111.00418106 -0.20556641 108.25244141 C-0.1998146 106.34056598 -0.19405687 104.42869058 -0.18829346 102.51681519 C-0.17778601 98.50697562 -0.17194156 94.49715609 -0.16845703 90.48730469 C-0.16297064 85.3502112 -0.13893841 80.21338255 -0.11048508 75.07637215 C-0.09185883 71.12669094 -0.08665312 67.17707356 -0.08512115 63.22735214 C-0.08209444 61.33353094 -0.07406526 59.43971088 -0.06093597 57.54593277 C-0.04387459 54.89597681 -0.0457558 52.24666834 -0.05224609 49.59667969 C-0.04303131 48.81520569 -0.03381653 48.03373169 -0.02432251 47.22857666 C-0.05912183 42.69113487 -0.61242364 39.79462198 -3.40869141 36.18212891 C-7.45244466 32.87099169 -11.19547145 32.80706615 -16.22119141 32.99462891 C-16.9140625 33.00816406 -17.60693359 33.02169922 -18.32080078 33.03564453 C-20.01710405 33.07074046 -21.71300276 33.12453948 -23.40869141 33.18212891 C-23.39708984 32.47185547 -23.38548828 31.76158203 -23.37353516 31.02978516 C-23.36451172 30.11068359 -23.35548828 29.19158203 -23.34619141 28.24462891 C-23.33458984 27.32810547 -23.32298828 26.41158203 -23.31103516 25.46728516 C-23.14920092 23.21619563 -23.14920092 23.21619563 -24.40869141 22.18212891 C-26.05869141 22.18212891 -27.70869141 22.18212891 -29.40869141 22.18212891 C-29.73869141 25.81212891 -30.06869141 29.44212891 -30.40869141 33.18212891 C-48.22869141 33.18212891 -66.04869141 33.18212891 -84.40869141 33.18212891 C-84.40869141 29.55212891 -84.40869141 25.92212891 -84.40869141 22.18212891 C-86.38869141 22.18212891 -88.36869141 22.18212891 -90.40869141 22.18212891 Z " fill="#D5663B" transform="translate(156.40869140625,27.81787109375)"/>
<path d="M0 0 C1.12161278 0.00081715 1.12161278 0.00081715 2.2658844 0.00165081 C3.12398712 -0.00254368 3.98208984 -0.00673817 4.86619568 -0.01105976 C5.80963837 -0.00544025 6.75308105 0.00017925 7.72511292 0.00596905 C8.71705658 0.0040707 9.70900024 0.00217236 10.73100281 0.00021648 C14.02208771 -0.00349946 17.31295375 0.0072246 20.60401917 0.01842022 C22.8832344 0.01961167 25.16245012 0.02006526 27.44166565 0.01980877 C32.22335372 0.02137505 37.00496708 0.02967577 41.78663635 0.04307842 C47.92725641 0.06006844 54.06779426 0.06389284 60.20843506 0.06313324 C64.91632375 0.0634047 69.62419434 0.06888203 74.33207703 0.07613468 C76.5967851 0.07932515 78.86149524 0.08128964 81.12620544 0.08202839 C84.28681458 0.08418794 87.44733518 0.09292389 90.60792542 0.1036253 C92.02308945 0.10294552 92.02308945 0.10294552 93.46684265 0.10225201 C94.32494537 0.10651699 95.1830481 0.11078197 96.06715393 0.1151762 C97.18876671 0.11768997 97.18876671 0.11768997 98.33303833 0.12025452 C100.16651917 0.24888897 100.16651917 0.24888897 102.16651917 1.24888897 C102.2592443 8.87232513 102.33029671 16.49570274 102.37376785 24.11957455 C102.39463329 27.65978969 102.42293043 31.19961871 102.46827698 34.73961163 C102.52009655 38.81044988 102.53947285 42.88088324 102.55714417 46.95201397 C102.57778931 48.22192181 102.59843445 49.49182964 102.6197052 50.80021954 C102.62015839 52.5716029 102.62015839 52.5716029 102.62062073 54.37877178 C102.62950317 55.418018 102.63838562 56.45726421 102.64753723 57.52800274 C102.16651917 60.24888897 102.16651917 60.24888897 100.71907043 62.58441448 C96.86795499 65.09566019 93.37819427 64.79975385 88.87159729 64.75059795 C87.93134201 64.75600094 86.99108673 64.76140392 86.02233887 64.76697063 C82.91382892 64.77947947 79.80624124 64.76295225 76.69776917 64.74498272 C74.53830415 64.74513766 72.37883886 64.74662576 70.21937561 64.74939251 C65.69333099 64.75077747 61.16760288 64.7382019 56.64161682 64.7154417 C50.83741036 64.68705704 45.03372994 64.68979322 39.22948456 64.70253181 C34.7702535 64.70948377 30.31114422 64.70170519 25.85192871 64.68927479 C23.71168484 64.6847556 21.57142792 64.68442755 19.43118286 64.68834019 C16.4409959 64.69124762 13.45153616 64.67476745 10.46144104 64.6529417 C9.57508469 64.65744335 8.68872833 64.661945 7.7755127 64.66658306 C4.31855846 64.62461684 1.78779974 64.53390364 -1.37831116 63.08143902 C-3.41261859 60.51955896 -3.36422562 58.77941539 -3.41111755 55.52403545 C-3.43729156 54.34949306 -3.46346558 53.17495068 -3.49043274 51.96481609 C-3.49793549 50.69602108 -3.50543823 49.42722607 -3.51316833 48.11998272 C-3.53444794 46.81940426 -3.55572754 45.5188258 -3.57765198 44.17883587 C-3.62146498 41.4275249 -3.65198413 38.67649692 -3.67234802 35.92491436 C-3.6989303 32.39466527 -3.7518503 28.86543554 -3.81384087 25.33564949 C-3.87073419 21.97220916 -3.91044964 18.60866544 -3.95066833 15.24498272 C-3.97031647 13.97416348 -3.9899646 12.70334423 -4.01020813 11.39401531 C-4.01746918 10.22262508 -4.02473022 9.05123486 -4.0322113 7.84434795 C-4.0423526 6.80970913 -4.0524939 5.7750703 -4.0629425 4.70907879 C-3.78399917 1.71836778 -3.10733911 0.42181102 0 0 Z M9.16651917 8.24888897 C9.09425415 10.10176398 9.08270697 11.95722775 9.10401917 13.81138897 C9.1130426 14.82330303 9.12206604 15.83521709 9.13136292 16.87779522 C9.14296448 17.66025616 9.15456604 18.44271709 9.16651917 19.24888897 C10.97893968 19.27576176 12.7914715 19.29522612 14.60401917 19.31138897 C16.11802307 19.32879131 16.11802307 19.32879131 17.66261292 19.34654522 C20.10672984 19.53501573 20.10672984 19.53501573 21.16651917 18.24888897 C21.26475854 16.58459846 21.29625547 14.91606966 21.29151917 13.24888897 C21.29409729 12.34138897 21.29667542 11.43388897 21.29933167 10.49888897 C21.41825696 8.27922286 21.41825696 8.27922286 20.16651917 7.24888897 C18.50222865 7.1506496 16.83369986 7.11915266 15.16651917 7.12388897 C14.25901917 7.12131084 13.35151917 7.11873272 12.41651917 7.11607647 C10.19685306 6.99715118 10.19685306 6.99715118 9.16651917 8.24888897 Z M32.16651917 8.24888897 C32.09425415 10.10176398 32.08270697 11.95722775 32.10401917 13.81138897 C32.12464417 15.60576397 32.14526917 17.40013897 32.16651917 19.24888897 C36.12651917 19.24888897 40.08651917 19.24888897 44.16651917 19.24888897 C44.19745667 16.55732647 44.19745667 16.55732647 44.22901917 13.81138897 C44.24062073 12.80205303 44.25222229 11.79271709 44.26417542 10.75279522 C44.45264592 8.3086783 44.45264592 8.3086783 43.16651917 7.24888897 C41.50222865 7.1506496 39.83369986 7.11915266 38.16651917 7.12388897 C37.25901917 7.12131084 36.35151917 7.11873272 35.41651917 7.11607647 C33.19685306 6.99715118 33.19685306 6.99715118 32.16651917 8.24888897 Z M55.16651917 8.24888897 C55.09425415 10.10176398 55.08270697 11.95722775 55.10401917 13.81138897 C55.12464417 15.60576397 55.14526917 17.40013897 55.16651917 19.24888897 C59.12651917 19.24888897 63.08651917 19.24888897 67.16651917 19.24888897 C67.19745667 16.55732647 67.19745667 16.55732647 67.22901917 13.81138897 C67.24062073 12.80205303 67.25222229 11.79271709 67.26417542 10.75279522 C67.45264592 8.3086783 67.45264592 8.3086783 66.16651917 7.24888897 C64.50222865 7.1506496 62.83369986 7.11915266 61.16651917 7.12388897 C60.25901917 7.12131084 59.35151917 7.11873272 58.41651917 7.11607647 C56.19685306 6.99715118 56.19685306 6.99715118 55.16651917 8.24888897 Z M78.16651917 8.24888897 C78.09425415 10.10176398 78.08270697 11.95722775 78.10401917 13.81138897 C78.12464417 15.60576397 78.14526917 17.40013897 78.16651917 19.24888897 C82.12651917 19.24888897 86.08651917 19.24888897 90.16651917 19.24888897 C90.19745667 16.55732647 90.19745667 16.55732647 90.22901917 13.81138897 C90.24062073 12.80205303 90.25222229 11.79271709 90.26417542 10.75279522 C90.45264592 8.3086783 90.45264592 8.3086783 89.16651917 7.24888897 C87.50222865 7.1506496 85.83369986 7.11915266 84.16651917 7.12388897 C83.25901917 7.12131084 82.35151917 7.11873272 81.41651917 7.11607647 C79.19685306 6.99715118 79.19685306 6.99715118 78.16651917 8.24888897 Z M9.16651917 26.24888897 C8.97174177 27.87303275 8.78592458 29.4982532 8.60401917 31.12388897 C8.4996051 32.02881084 8.39519104 32.93373272 8.28761292 33.86607647 C7.96977065 36.26541954 7.96977065 36.26541954 9.16651917 38.24888897 C10.97893968 38.27576176 12.7914715 38.29522612 14.60401917 38.31138897 C16.11802307 38.32879131 16.11802307 38.32879131 17.66261292 38.34654522 C20.10672984 38.53501573 20.10672984 38.53501573 21.16651917 37.24888897 C21.26475854 35.58459846 21.29625547 33.91606966 21.29151917 32.24888897 C21.29409729 31.34138897 21.29667542 30.43388897 21.29933167 29.49888897 C21.41825696 27.27922286 21.41825696 27.27922286 20.16651917 26.24888897 C18.31364415 26.17662395 16.45818039 26.16507677 14.60401917 26.18638897 C13.5921051 26.19541241 12.58019104 26.20443584 11.53761292 26.21373272 C10.75515198 26.22533428 9.97269104 26.23693584 9.16651917 26.24888897 Z M32.16651917 26.24888897 C32.16651917 30.20888897 32.16651917 34.16888897 32.16651917 38.24888897 C37.66836311 38.34154871 37.66836311 38.34154871 43.16651917 38.24888897 C44.41825696 37.21855508 44.41825696 37.21855508 44.29933167 34.99888897 C44.29675354 34.09138897 44.29417542 33.18388897 44.29151917 32.24888897 C44.29409729 31.34138897 44.29667542 30.43388897 44.29933167 29.49888897 C44.41825696 27.27922286 44.41825696 27.27922286 43.16651917 26.24888897 C39.49736146 26.10578609 35.83936475 26.20667235 32.16651917 26.24888897 Z M65.46339417 27.56138897 C64.95292542 28.11826397 64.44245667 28.67513897 63.91651917 29.24888897 C63.39573792 29.80576397 62.87495667 30.36263897 62.33839417 30.93638897 C61.95167542 31.36951397 61.56495667 31.80263897 61.16651917 32.24888897 C60.30026917 31.72295147 60.30026917 31.72295147 59.41651917 31.18638897 C56.8085014 30.0997149 55.77234288 30.31823764 53.16651917 31.24888897 C54.90211354 34.30684097 56.55124535 36.88268885 59.16651917 39.24888897 C62.53850818 37.78313699 64.81638921 35.89707376 67.41651917 33.31138897 C68.12292542 32.62174053 68.82933167 31.93209209 69.55714417 31.22154522 C71.48259465 29.28577823 71.48259465 29.28577823 71.16651917 26.24888897 C67.33621077 25.84194704 67.33621077 25.84194704 65.46339417 27.56138897 Z M78.16651917 26.24888897 C78.16651917 30.20888897 78.16651917 34.16888897 78.16651917 38.24888897 C82.12651917 38.24888897 86.08651917 38.24888897 90.16651917 38.24888897 C90.19745667 35.55732647 90.19745667 35.55732647 90.22901917 32.81138897 C90.24062073 31.80205303 90.25222229 30.79271709 90.26417542 29.75279522 C90.45264592 27.3086783 90.45264592 27.3086783 89.16651917 26.24888897 C85.49736146 26.10578609 81.83936475 26.20667235 78.16651917 26.24888897 Z M9.16651917 45.24888897 C9.16651917 49.20888897 9.16651917 53.16888897 9.16651917 57.24888897 C14.66836311 57.34154871 14.66836311 57.34154871 20.16651917 57.24888897 C21.41825696 56.21855508 21.41825696 56.21855508 21.29933167 53.99888897 C21.29675354 53.09138897 21.29417542 52.18388897 21.29151917 51.24888897 C21.29409729 50.34138897 21.29667542 49.43388897 21.29933167 48.49888897 C21.41825696 46.27922286 21.41825696 46.27922286 20.16651917 45.24888897 C16.49736146 45.10578609 12.83936475 45.20667235 9.16651917 45.24888897 Z M32.16651917 45.24888897 C32.16651917 49.20888897 32.16651917 53.16888897 32.16651917 57.24888897 C37.66836311 57.34154871 37.66836311 57.34154871 43.16651917 57.24888897 C44.41825696 56.21855508 44.41825696 56.21855508 44.29933167 53.99888897 C44.29675354 53.09138897 44.29417542 52.18388897 44.29151917 51.24888897 C44.29409729 50.34138897 44.29667542 49.43388897 44.29933167 48.49888897 C44.41825696 46.27922286 44.41825696 46.27922286 43.16651917 45.24888897 C39.49736146 45.10578609 35.83936475 45.20667235 32.16651917 45.24888897 Z M55.16651917 45.24888897 C55.16651917 49.20888897 55.16651917 53.16888897 55.16651917 57.24888897 C60.66836311 57.34154871 60.66836311 57.34154871 66.16651917 57.24888897 C67.41825696 56.21855508 67.41825696 56.21855508 67.29933167 53.99888897 C67.29675354 53.09138897 67.29417542 52.18388897 67.29151917 51.24888897 C67.29409729 50.34138897 67.29667542 49.43388897 67.29933167 48.49888897 C67.41825696 46.27922286 67.41825696 46.27922286 66.16651917 45.24888897 C62.49736146 45.10578609 58.83936475 45.20667235 55.16651917 45.24888897 Z " fill="#D4653B" transform="translate(49.83348083496094,94.75111103057861)"/>
<path d="M0 0 C4.15354705 3.08552851 7.88193496 6.58678665 11.59130859 10.18212891 C12.19072266 10.70806641 12.79013672 11.23400391 13.40771484 11.77587891 C28.19698819 25.22691174 38.56169135 48.37167472 39.76831055 68.07202148 C40.38681343 98.39837597 34.08314303 124.32937413 12.88256836 146.98681641 C-4.54362652 164.81855107 -27.90216493 175.25857036 -52.78759766 175.56225586 C-64.99331967 175.54555095 -75.84662167 175.27871306 -87.40869141 171.18212891 C-88.51470703 170.83150391 -89.62072266 170.48087891 -90.76025391 170.11962891 C-115.28766999 161.69015894 -133.90834541 142.36883522 -145.30419922 119.58300781 C-148.80782779 112.32016114 -151.01403067 105.15315141 -152.40869141 97.18212891 C-152.59173828 96.30556641 -152.77478516 95.42900391 -152.96337891 94.52587891 C-156.41853666 68.58188737 -150.7895195 42.94375808 -135.57275391 21.60791016 C-103.05991069 -20.65878603 -43.95113888 -31.07799034 0 0 Z M-122.40869141 17.18212891 C-122.85341797 17.65650391 -123.29814453 18.13087891 -123.75634766 18.61962891 C-133.77204706 29.73037811 -140.77609959 42.69716903 -144.40869141 57.18212891 C-144.71806641 58.35388672 -144.71806641 58.35388672 -145.03369141 59.54931641 C-149.93576207 81.40438143 -145.60600203 105.54293858 -134.40869141 124.80712891 C-130.67091951 130.52902637 -126.57132179 136.6452719 -121.40869141 141.18212891 C-120.74869141 141.18212891 -120.08869141 141.18212891 -119.40869141 141.18212891 C-118.91369141 143.16212891 -118.91369141 143.16212891 -118.40869141 145.18212891 C-117.74869141 145.18212891 -117.08869141 145.18212891 -116.40869141 145.18212891 C-116.07869141 146.17212891 -115.74869141 147.16212891 -115.40869141 148.18212891 C-114.04701324 149.16934558 -112.67127725 150.14141424 -111.24072266 151.02587891 C-109.40869141 152.18212891 -109.40869141 152.18212891 -107.60791016 153.52587891 C-88.92769527 167.16424939 -64.27859357 170.96478479 -41.73095703 167.80712891 C-19.22612178 163.6298973 2.00576581 150.7730824 15.69287109 132.35400391 C17.42891497 129.67728428 19.02987151 126.96381503 20.59130859 124.18212891 C21.12369141 123.29912109 21.65607422 122.41611328 22.20458984 121.50634766 C33.24540653 102.57531955 35.81128079 78.35587816 30.42333984 57.19775391 C30.14876953 56.20259766 29.87419922 55.20744141 29.59130859 54.18212891 C29.31867188 52.93689453 29.31867188 52.93689453 29.04052734 51.66650391 C24.09595315 31.3500222 7.59715168 13.39119959 -9.39697266 2.21728516 C-18.11643731 -2.95701526 -26.60441622 -6.27411482 -36.40869141 -8.81787109 C-37.30587891 -9.06408203 -38.20306641 -9.31029297 -39.12744141 -9.56396484 C-68.93380327 -16.40244977 -101.87120825 -5.06681118 -122.40869141 17.18212891 Z " fill="#C4A693" transform="translate(156.40869140625,27.81787109375)"/>
<path d="M0 0 C3.60322879 2.72876098 4.40758738 6.66803665 5.625 10.8125 C5.8415625 11.51181641 6.058125 12.21113281 6.28125 12.93164062 C13.53987472 36.88062158 9.467338 63.14545882 -2 85 C-14.43836733 107.72726094 -34.59082819 124.09078124 -59.234375 131.9921875 C-68.72320046 134.53172792 -77.47191722 135.33805996 -87.3125 135.3125 C-88.54162109 135.32861328 -89.77074219 135.34472656 -91.03710938 135.36132812 C-99.40519646 135.365744 -106.93932845 134.23480068 -115 132 C-115 131.67 -115 131.34 -115 131 C-114.1146331 131.01665459 -114.1146331 131.01665459 -113.21138 131.03364563 C-107.06335597 131.1443366 -100.91561533 131.21970745 -94.7668457 131.2746582 C-92.47278342 131.29978928 -90.1788011 131.33389969 -87.88500977 131.37719727 C-84.58589951 131.43790832 -81.28784854 131.46622437 -77.98828125 131.48828125 C-76.45207878 131.52699089 -76.45207878 131.52699089 -74.88484192 131.56648254 C-68.97812008 131.62326688 -68.97812008 131.62326688 -64.04663086 128.59423828 C-63.37124268 127.73813965 -62.69585449 126.88204102 -62 126 C-60.08691406 124.81469727 -60.08691406 124.81469727 -58.265625 124.00390625 C-45.03005844 117.80477374 -33.14515475 110.5841278 -23 100 C-22.34 99.33613281 -21.68 98.67226562 -21 97.98828125 C-4.26906861 80.17432082 1.69860874 56.75370391 1.26171875 32.9296875 C1.01351987 26.39588361 -0.28467037 20.30906605 -2 14 C-2.39769998 12.37545583 -2.79386052 10.75053283 -3.1875 9.125 C-3.5896875 7.578125 -3.5896875 7.578125 -4 6 C-3.34 6 -2.68 6 -2 6 C-1.01 6.99 -1.01 6.99 0 8 C1.09658936 4.71023192 0.79953138 3.28696233 0 0 Z " fill="#C7A48F" transform="translate(187,68)"/>
<path d="M0 0 C0.99 0.33 1.98 0.66 3 1 C-2.74245189 11.3364134 -12.76445666 14.5957826 -23.58422852 17.84545898 C-32.22284678 20.15783255 -40.84040311 20.38436237 -49.75 20.4375 C-51.5609314 20.45272705 -51.5609314 20.45272705 -53.40844727 20.46826172 C-61.61862279 20.38866556 -69.08587934 19.16491942 -77 17 C-77 16.67 -77 16.34 -77 16 C-76.1146331 16.01665459 -76.1146331 16.01665459 -75.21138 16.03364563 C-69.06335597 16.1443366 -62.91561533 16.21970745 -56.7668457 16.2746582 C-54.47278342 16.29978928 -52.1788011 16.33389969 -49.88500977 16.37719727 C-46.58589951 16.43790832 -43.28784854 16.46622437 -39.98828125 16.48828125 C-38.45207878 16.52699089 -38.45207878 16.52699089 -36.88484192 16.56648254 C-30.93464731 16.60902818 -30.93464731 16.60902818 -25.9465332 13.55029297 C-25.30417725 12.70869629 -24.66182129 11.86709961 -24 11 C-21.8671875 9.70703125 -21.8671875 9.70703125 -19.875 8.8125 C-17.36259426 7.66383201 -15.32865063 6.55243375 -13 5 C-11.00101217 4.51637391 -9.00150109 4.03440117 -6.99609375 3.578125 C-4.77192432 3.02612228 -4.77192432 3.02612228 -2.1875 1.3125 C-1.465625 0.879375 -0.74375 0.44625 0 0 Z " fill="#C4A894" transform="translate(149,183)"/>
<path d="M0 0 C33 0 66 0 100 0 C100 0.66 100 1.32 100 2 C98.86111328 1.98259766 98.86111328 1.98259766 97.69921875 1.96484375 C96.70535156 1.95582031 95.71148437 1.94679688 94.6875 1.9375 C93.70136719 1.92589844 92.71523437 1.91429688 91.69921875 1.90234375 C88.90036151 1.87670138 88.90036151 1.87670138 86 3 C84.45716372 3.06973271 82.91144271 3.08446057 81.3671875 3.0625 C80.47902344 3.05476563 79.59085937 3.04703125 78.67578125 3.0390625 C77.28939453 3.01972656 77.28939453 3.01972656 75.875 3 C74.0391199 2.97460747 72.20317318 2.95353481 70.3671875 2.9375 C69.55362793 2.92589844 68.74006836 2.91429688 67.90185547 2.90234375 C65.98903895 2.78765579 65.98903895 2.78765579 65 4 C66.65 4.33 68.3 4.66 70 5 C70 9.95 70 14.9 70 20 C59.16015625 20.09765625 59.16015625 20.09765625 56 20 C55 19 55 19 54.90234375 16.49609375 C54.91394531 15.48675781 54.92554688 14.47742188 54.9375 13.4375 C54.94652344 12.42558594 54.95554688 11.41367188 54.96484375 10.37109375 C54.97644531 9.58863281 54.98804688 8.80617188 55 8 C57 10 57 10 57.1953125 12.1640625 C57.13020833 14.44270833 57.06510417 16.72135417 57 19 C60.96 19 64.92 19 69 19 C68.505 13.555 68.505 13.555 68 8 C64.7 7.67 61.4 7.34 58 7 C58.99 6.01 59.98 5.02 61 4 C61 3.67 61 3.34 61 3 C59.75347656 3.01160156 58.50695312 3.02320312 57.22265625 3.03515625 C48.38662549 3.09110816 39.64204946 2.98866459 30.82666016 2.35791016 C20.2384798 1.67088135 9.60443522 1.91690316 -1 2 C-0.67 1.34 -0.34 0.68 0 0 Z " fill="#BB6247" transform="translate(48,95)"/>
<path d="M0 0 C0.33 0 0.66 0 1 0 C1.09272514 7.62343616 1.16377754 15.24681377 1.20724869 22.87068558 C1.22811412 26.41090072 1.25641126 29.95072974 1.30175781 33.49072266 C1.35357738 37.56156091 1.37295369 41.63199427 1.390625 45.703125 C1.41127014 46.97303284 1.43191528 48.24294067 1.45318604 49.55133057 C1.45363922 51.32271393 1.45363922 51.32271393 1.45410156 53.12988281 C1.46298401 54.16912903 1.47186646 55.20837524 1.48101807 56.27911377 C1 59 1 59 -0.44348145 61.33850098 C-4.31589376 63.85520842 -7.83324372 63.52700517 -12.35839844 63.45410156 C-13.77841911 63.45497772 -13.77841911 63.45497772 -15.22712708 63.45587158 C-18.35491658 63.4530858 -21.48175206 63.42196987 -24.609375 63.390625 C-26.77841674 63.38316439 -28.94746522 63.37747061 -31.11651611 63.37347412 C-36.82459126 63.35820376 -42.53225909 63.31890946 -48.24017334 63.2746582 C-54.06500742 63.23373597 -59.88990734 63.21546959 -65.71484375 63.1953125 C-77.1434081 63.1524169 -88.57167017 63.08414829 -100 63 C-100 62.67 -100 62.34 -100 62 C-78.45127747 61.21519362 -56.90988283 60.74966596 -35.34918213 60.46777344 C-30.75875515 60.40700067 -26.16838833 60.34183689 -21.57801056 60.27747345 C-14.71871251 60.18175624 -7.85936373 60.09135452 -1 60 C-0.67 40.2 -0.34 20.4 0 0 Z " fill="#B76748" transform="translate(151,96)"/>
<path d="M0 0 C-0.71027344 0.34933594 -1.42054688 0.69867188 -2.15234375 1.05859375 C-3.07144531 1.51363281 -3.99054688 1.96867188 -4.9375 2.4375 C-5.85402344 2.88996094 -6.77054688 3.34242188 -7.71484375 3.80859375 C-9.90528904 4.80525394 -9.90528904 4.80525394 -11 6 C-10.01 6.66 -9.02 7.32 -8 8 C-12.38566071 9.08794502 -16.65582765 9.12897314 -21.14453125 9.09765625 C-21.91431808 9.0962413 -22.68410492 9.09482635 -23.47721863 9.09336853 C-25.92235288 9.08779606 -28.36739368 9.07524871 -30.8125 9.0625 C-32.47591013 9.05748144 -34.1393217 9.05291915 -35.80273438 9.04882812 C-39.86852528 9.03783566 -43.93424683 9.0205901 -48 9 C-48 8.67 -48 8.34 -48 8 C-39.585 7.505 -39.585 7.505 -31 7 C-33.578125 6.896875 -36.15625 6.79375 -38.8125 6.6875 C-45.85749836 6.33836255 -52.29505232 5.30256302 -59 3 C-55.63664203 1.87888068 -54.42413818 2.16695512 -51.03125 2.91015625 C-45.15019863 4.05487469 -39.48374761 4.42122105 -33.5 4.4375 C-32.46987793 4.44209229 -31.43975586 4.44668457 -30.37841797 4.45141602 C-21.6202115 4.32653023 -13.82530312 2.61787141 -5.5078125 -0.00390625 C-2 -1 -2 -1 0 0 Z " fill="#CDA28B" transform="translate(133,191)"/>
<path d="M0 0 C0.66 0 1.32 0 2 0 C3.39220288 6.03611951 3.18419061 12.0221076 3.1875 18.1875 C3.19974609 19.36892578 3.21199219 20.55035156 3.22460938 21.76757812 C3.23623143 28.76018357 2.71834813 35.21325505 1 42 C0.34 42 -0.32 42 -1 42 C-1.02464638 36.17928378 -1.0428343 30.35859766 -1.05493164 24.5378418 C-1.05997267 22.55606559 -1.06680538 20.57429311 -1.07543945 18.5925293 C-1.08751515 15.75047891 -1.09323045 12.90847753 -1.09765625 10.06640625 C-1.10281754 9.17474258 -1.10797882 8.28307892 -1.11329651 7.36439514 C-1.11349177 5.24259399 -1.0621003 3.1208922 -1 1 C-0.67 0.67 -0.34 0.34 0 0 Z " fill="#C28C6C" transform="translate(193,88)"/>
<path d="M0 0 C-8.84449241 5.89632827 -21.29744618 5.47364974 -31.5625 5.375 C-33.37911133 5.39240234 -33.37911133 5.39240234 -35.23242188 5.41015625 C-43.51871258 5.3835265 -51.01602407 4.19770014 -59 2 C-59 1.67 -59 1.34 -59 1 C-58.4097554 1.00222061 -57.8195108 1.00444122 -57.21138 1.00672913 C-51.06320807 1.02886785 -44.91504747 1.0439425 -38.7668457 1.05493164 C-36.47289571 1.05995761 -34.17894892 1.06677938 -31.88500977 1.07543945 C-28.58609222 1.08758096 -25.28721707 1.09324572 -21.98828125 1.09765625 C-20.45207878 1.10539818 -20.45207878 1.10539818 -18.88484192 1.11329651 C-17.92422348 1.11337204 -16.96360504 1.11344757 -15.97387695 1.11352539 C-15.13226517 1.115746 -14.29065338 1.11796661 -13.42353821 1.12025452 C-8.84993019 0.89331482 -4.63872558 -0.10787734 0 0 Z " fill="#B98269" transform="translate(131,198)"/>
<path d="M0 0 C6.93 0.33 13.86 0.66 21 1 C21 1.33 21 1.66 21 2 C19.46279297 2.05607422 19.46279297 2.05607422 17.89453125 2.11328125 C16.53381938 2.17897079 15.17314389 2.24541709 13.8125 2.3125 C13.13896484 2.33505859 12.46542969 2.35761719 11.77148438 2.38085938 C7.40048655 2.61540072 4.49442887 3.33475764 1 6 C-0.4764236 8.9528472 -0.22272939 11.68448983 -0.31640625 14.9765625 C-0.33718735 15.66181 -0.35796844 16.3470575 -0.37937927 17.05307007 C-0.44480185 19.24361069 -0.50372554 21.43427189 -0.5625 23.625 C-0.60569218 25.1093875 -0.6493067 26.59376278 -0.69335938 28.078125 C-0.80047553 31.71862084 -0.90176362 35.35925251 -1 39 C-1.66 39 -2.32 39 -3 39 C-3.07474224 34.73164297 -3.12887823 30.46364326 -3.16479492 26.19482422 C-3.17978417 24.74586339 -3.20018271 23.29694717 -3.22631836 21.84814453 C-3.26314183 19.75281703 -3.27982451 17.65809459 -3.29296875 15.5625 C-3.3086792 14.30566406 -3.32438965 13.04882812 -3.34057617 11.75390625 C-3 8 -3 8 0 0 Z " fill="#B7613F" transform="translate(44,59)"/>
<path d="M0 0 C0.33 0 0.66 0 1 0 C1.176874 11.42180921 1.342836 22.84371944 1.49477577 34.26588917 C1.56566847 39.56936399 1.64035312 44.87272947 1.72363281 50.17602539 C1.80382798 55.29170653 1.87415514 60.40743598 1.93757248 65.52335167 C1.96354372 67.47747504 1.99310162 69.43155406 2.02626419 71.38556862 C2.07202228 74.11744902 2.10515241 76.84920742 2.13525391 79.58129883 C2.1517952 80.39337799 2.16833649 81.20545715 2.18537903 82.04214478 C2.21481281 85.91084218 2.19934416 87.70098376 0 91 C-2.625 92.1875 -2.625 92.1875 -5 93 C-4.02688873 91.5363224 -4.02688873 91.5363224 -3.03411865 90.04307556 C-0.60516055 85.76702351 -0.4228526 82.14996897 -0.45410156 77.31079102 C-0.44376389 76.47096176 -0.43342621 75.63113251 -0.42277527 74.76585388 C-0.39346275 72.01167294 -0.39185056 69.25823058 -0.390625 66.50390625 C-0.37563553 64.58575549 -0.35890678 62.66761761 -0.34051514 60.74949646 C-0.2969155 55.71732982 -0.27685888 50.68533728 -0.26177979 45.65301514 C-0.24218208 40.51141091 -0.20021504 35.36999395 -0.16015625 30.22851562 C-0.08493414 20.15240162 -0.03459422 10.07632969 0 0 Z " fill="#B86543" transform="translate(156,69)"/>
<path d="M0 0 C3.96 0 7.92 0 12 0 C13.0712828 6.02596573 13.09945415 11.88909517 13 18 C12.67 18 12.34 18 12 18 C11.67 14.7 11.34 11.4 11 8 C7.37 7.67 3.74 7.34 0 7 C0 8.98 0 10.96 0 13 C-0.33 13 -0.66 13 -1 13 C-1 11.02 -1 9.04 -1 7 C-1.66 6.67 -2.32 6.34 -3 6 C-1.68 6 -0.36 6 1 6 C0.67 4.02 0.34 2.04 0 0 Z " fill="#CF693D" transform="translate(128,114)"/>
<path d="M0 0 C0 1.66666667 0 3.33333333 0 5 C0.66 5.66 1.32 6.32 2 7 C1.278125 6.731875 0.55625 6.46375 -0.1875 6.1875 C-3.26390537 5.65105845 -3.26390537 5.65105845 -5.8125 8.4375 C-6.534375 9.283125 -7.25625 10.12875 -8 11 C-7.01 11 -6.02 11 -5 11 C-4.34 10.34 -3.68 9.68 -3 9 C-3 9.66 -3 10.32 -3 11 C-2.34 11.33 -1.68 11.66 -1 12 C-4.3 14.31 -7.6 16.62 -11 19 C-11.66 18.67 -12.32 18.34 -13 18 C-12.34 16.68 -11.68 15.36 -11 14 C-14.06161188 13.73016694 -14.06161188 13.73016694 -16.4375 15.5625 C-19 17 -19 17 -21.16015625 16.58984375 C-21.76730469 16.39519531 -22.37445313 16.20054687 -23 16 C-22.09378906 15.5153125 -21.18757812 15.030625 -20.25390625 14.53125 C-12.70109336 10.40511864 -6.15122852 6.11868233 0 0 Z " fill="#C59F87" transform="translate(161,171)"/>
<path d="M0 0 C1.77503906 0.03480469 1.77503906 0.03480469 3.5859375 0.0703125 C5.36871094 0.09738281 5.36871094 0.09738281 7.1875 0.125 C8.10273438 0.14820312 9.01796875 0.17140625 9.9609375 0.1953125 C9.7753125 0.8346875 9.5896875 1.4740625 9.3984375 2.1328125 C9.2540625 2.8134375 9.1096875 3.4940625 8.9609375 4.1953125 C9.2909375 4.5253125 9.6209375 4.8553125 9.9609375 5.1953125 C10.03337803 7.21495449 10.04470938 9.23698374 10.0234375 11.2578125 C10.01441406 12.36253906 10.00539062 13.46726562 9.99609375 14.60546875 C9.98449219 15.46011719 9.97289062 16.31476563 9.9609375 17.1953125 C9.6309375 17.1953125 9.3009375 17.1953125 8.9609375 17.1953125 C8.6309375 13.5653125 8.3009375 9.9353125 7.9609375 6.1953125 C4.6609375 6.1953125 1.3609375 6.1953125 -2.0390625 6.1953125 C-2.3690625 9.1653125 -2.6990625 12.1353125 -3.0390625 15.1953125 C-3.3690625 15.1953125 -3.6990625 15.1953125 -4.0390625 15.1953125 C-4.26040426 13.07162806 -4.46576257 10.94627226 -4.6640625 8.8203125 C-4.78007813 7.63695313 -4.89609375 6.45359375 -5.015625 5.234375 C-5.02335937 4.23148437 -5.03109375 3.22859375 -5.0390625 2.1953125 C-3.0390625 0.1953125 -3.0390625 0.1953125 0 0 Z " fill="#CA6442" transform="translate(131.0390625,96.8046875)"/>
<path d="M0 0 C2.0625 1.625 2.0625 1.625 4 4 C3.9375 7.125 3.9375 7.125 3 10 C-0.49124017 12.32749345 -1.89222251 12.50299316 -6 12 C-8.4375 10.4375 -8.4375 10.4375 -10 8 C-9.75 4.25 -9.75 4.25 -9 1 C-8.34 1 -7.68 1 -7 1 C-6.01 3.31 -5.02 5.62 -4 8 C-2.68 8 -1.36 8 0 8 C0 5.36 0 2.72 0 0 Z " fill="#C66341" transform="translate(72,65)"/>
<path d="M0 0 C0.99 0.33 1.98 0.66 3 1 C4.22080679 6.37154989 4.22080679 6.37154989 3.1875 9.3125 C2 11 2 11 0 12 C-3.56500476 12.38750052 -5.38480006 12.39435894 -8.4375 10.4375 C-10 8 -10 8 -9.75 4.25 C-9.5025 3.1775 -9.255 2.105 -9 1 C-8.01 1.33 -7.02 1.66 -6 2 C-5.67 3.98 -5.34 5.96 -5 8 C-3.68 7.67 -2.36 7.34 -1 7 C-0.67 4.69 -0.34 2.38 0 0 Z " fill="#C37050" transform="translate(133,65)"/>
<path d="M0 0 C2.97 0.33 5.94 0.66 9 1 C9 2.32 9 3.64 9 5 C9.99 5.33 10.98 5.66 12 6 C12 6.66 12 7.32 12 8 C8.37 8 4.74 8 1 8 C1 10.64 1 13.28 1 16 C0.34 16 -0.32 16 -1 16 C-1.11551298 10.57089001 -0.6635455 5.39130721 0 0 Z " fill="#C56842" transform="translate(58,113)"/>
<path d="M0 0 C3.26954202 0.56371414 4.82575883 1.49962266 7 4 C6.01 4.495 6.01 4.495 5 5 C5 5.99 5 6.98 5 8 C5.66 8 6.32 8 7 8 C7.66 9.32 8.32 10.64 9 12 C3.77316597 10.58734215 -0.64078436 8.09033511 -5.31640625 5.4375 C-7.8313227 4.09035407 -10.33218132 3.00344717 -13 2 C-13 1.67 -13 1.34 -13 1 C-8.72656908 0.63370592 -6.51187196 1.59185923 -3 4 C-2.01 2.68 -1.02 1.36 0 0 Z " fill="#CAA18A" transform="translate(141,20)"/>
<path d="M0 0 C0.33 0 0.66 0 1 0 C1 2.64 1 5.28 1 8 C2.32 8 3.64 8 5 8 C5 8.99 5 9.98 5 11 C-0.87883349 13.61281488 -6.70731728 13.18328202 -13 13 C-14.1700097 9.08263419 -13.69584017 6.02040985 -13 2 C-12.67 2 -12.34 2 -12 2 C-12 4.97 -12 7.94 -12 11 C-6.555 10.505 -6.555 10.505 -1 10 C-0.67 6.7 -0.34 3.4 0 0 Z " fill="#CB6643" transform="translate(94,122)"/>
<path d="M0 0 C0.33 0.66 0.66 1.32 1 2 C2.65 1.34 4.3 0.68 6 0 C5.247626 8.87801315 5.247626 8.87801315 2 13 C1.01 13.33 0.02 13.66 -1 14 C-1.95696948 10.278452 -1.95229341 7.71394431 -1 4 C-0.814375 3.236875 -0.62875 2.47375 -0.4375 1.6875 C-0.293125 1.130625 -0.14875 0.57375 0 0 Z " fill="#C8A894" transform="translate(15,59)"/>
<path d="M0 0 C2.46800047 1.15173355 4.04783565 2.04783565 6 4 C6.66 4.33 7.32 4.66 8 5 C8.433125 6.175625 8.433125 6.175625 8.875 7.375 C9.75851983 10.11066204 9.75851983 10.11066204 12.0234375 11.30859375 C14 13 14 13 14.609375 15.69921875 C14.65578125 16.68535156 14.7021875 17.67148438 14.75 18.6875 C14.80671875 19.68136719 14.8634375 20.67523438 14.921875 21.69921875 C14.96054688 22.83810547 14.96054688 22.83810547 15 24 C13.11939709 21.17909563 11.43649833 18.31497682 9.75 15.375 C6.69335731 10.10757801 3.45597291 5.01305961 0 0 Z " fill="#CEA289" transform="translate(167,47)"/>
<path d="M0 0 C-1.64178265 4.77609498 -4.26546702 8.79382904 -7 13 C-9.03125 9.265625 -9.03125 9.265625 -8.75 6.875 C-8 5 -8 5 -6 3 C-6 2.01 -6 1.02 -6 0 C-3 -1 -3 -1 0 0 Z " fill="#C6AA97" transform="translate(31,44)"/>
<path d="M0 0 C1.32 0 2.64 0 4 0 C4 0.66 4 1.32 4 2 C4.556875 2.18175781 5.11375 2.36351562 5.6875 2.55078125 C19.79799666 7.19866444 19.79799666 7.19866444 24 10 C26.32108669 10.70812814 28.65377147 11.38024152 31 12 C25.15611663 14.33179583 18.47795953 10.21712894 13 8 C3.42318765 3.76007278 3.42318765 3.76007278 0 0 Z " fill="#C9724E" transform="translate(50,181)"/>
<path d="M0 0 C0 1.32 0 2.64 0 4 C-3.6125362 5.84827434 -7.2089881 7.55049545 -11 9 C-8.823805 3.65843044 -5.92169235 0 0 0 Z M-11 9 C-11 9.66 -11 10.32 -11 11 C-14.63 11 -18.26 11 -22 11 C-22 10.67 -22 10.34 -22 10 C-20.54182203 9.83197949 -19.0834516 9.66562857 -17.625 9.5 C-16.81289062 9.4071875 -16.00078125 9.314375 -15.1640625 9.21875 C-13 9 -13 9 -11 9 Z " fill="#C76338" transform="translate(128,129)"/>
<path d="M0 0 C0.99 0.495 0.99 0.495 2 1 C2.7109375 3.14453125 2.7109375 3.14453125 3.375 5.8125 C4.55038189 10.04027669 5.77953465 11.99423234 9 15 C9.6875 17.9375 9.6875 17.9375 10 21 C10.32635698 22.66804677 10.65725594 24.33524314 11 26 C7.62101679 22.1812359 5.62263806 18.27826227 3.8125 13.5625 C3.55275391 12.91990234 3.29300781 12.27730469 3.02539062 11.61523438 C1.51244619 7.7644585 0.52616993 4.10158968 0 0 Z " fill="#CA6C47" transform="translate(13,128)"/>
<path d="M0 0 C1.485 0.99 1.485 0.99 3 2 C3.99 2 4.98 2 6 2 C7.125 3.75 7.125 3.75 8 6 C7.649375 6.61875 7.29875 7.2375 6.9375 7.875 C5.73175954 9.97352491 5.73175954 9.97352491 6.6796875 12.140625 C7.07414063 12.83671875 7.46859375 13.5328125 7.875 14.25 C8.26429687 14.95640625 8.65359375 15.6628125 9.0546875 16.390625 C9.36664063 16.92171875 9.67859375 17.4528125 10 18 C7 17 7 17 5.17578125 13.69140625 C4.54395017 12.32000027 3.92326547 10.94341651 3.3125 9.5625 C2.99216797 8.86833984 2.67183594 8.17417969 2.34179688 7.45898438 C0 2.30103945 0 2.30103945 0 0 Z " fill="#BBA191" transform="translate(8,138)"/>
<path d="M0 0 C6.93 0.33 13.86 0.66 21 1 C21 1.33 21 1.66 21 2 C19.46279297 2.05607422 19.46279297 2.05607422 17.89453125 2.11328125 C16.53381938 2.17897079 15.17314389 2.24541709 13.8125 2.3125 C13.13896484 2.33505859 12.46542969 2.35761719 11.77148438 2.38085938 C7.40757522 2.61502035 4.44942493 3.27135043 1 6 C-0.35980881 9.07561246 -0.35980881 9.07561246 -1 12 C-1.33 12 -1.66 12 -2 12 C-1.85904936 10.3745692 -1.71207913 8.74965949 -1.5625 7.125 C-1.48128906 6.22007813 -1.40007813 5.31515625 -1.31640625 4.3828125 C-1 2 -1 2 0 0 Z " fill="#BF694B" transform="translate(44,59)"/>
<path d="M0 0 C1.04976964 3.14930893 1.10131595 5.38814456 1.0625 8.6875 C1.05347656 9.68136719 1.04445312 10.67523438 1.03515625 11.69921875 C1.02355469 12.45847656 1.01195312 13.21773437 1 14 C0.67 14 0.34 14 0 14 C-0.33 10.7 -0.66 7.4 -1 4 C-4.63 3.67 -8.26 3.34 -12 3 C-12 4.98 -12 6.96 -12 9 C-12.33 9 -12.66 9 -13 9 C-13 7.02 -13 5.04 -13 3 C-13.66 2.67 -14.32 2.34 -15 2 C-12.87528825 1.6648342 -10.75022095 1.33192171 -8.625 1 C-7.44164062 0.814375 -6.25828125 0.62875 -5.0390625 0.4375 C-2 0 -2 0 0 0 Z " fill="#BB6640" transform="translate(140,118)"/>
<path d="M0 0 C2.31 0 4.62 0 7 0 C5.68 0.99 4.36 1.98 3 3 C4.98 3.66 6.96 4.32 9 5 C8.67 5.66 8.34 6.32 8 7 C4.37 6.67 0.74 6.34 -3 6 C-3 5.01 -3 4.02 -3 3 C-2.01 2.34 -1.02 1.68 0 1 C0 0.67 0 0.34 0 0 Z " fill="#CA6945" transform="translate(85,115)"/>
<path d="M0 0 C1.875 0.25 1.875 0.25 4 1 C6.02755186 3.93995019 6 5.27704003 6 9 C3.03 8.505 3.03 8.505 0 8 C0 5.33333333 0 2.66666667 0 0 Z " fill="#C6AB99" transform="translate(22,158)"/>
<path d="M0 0 C0 0.99 0 1.98 0 3 C-0.845625 3.391875 -1.69125 3.78375 -2.5625 4.1875 C-6.37452047 6.19747443 -9.60224427 8.34975053 -13 11 C-13 11.66 -13 12.32 -13 13 C-14.98 13.33 -16.96 13.66 -19 14 C-13.69587676 8.16546444 -7.14684483 3.35059931 0 0 Z " fill="#B69D8E" transform="translate(54,21)"/>
<path d="M0 0 C0 0.33 0 0.66 0 1 C-3.10051447 1.8678228 -6.20586665 2.71686767 -9.3125 3.5625 C-10.19357422 3.80935547 -11.07464844 4.05621094 -11.98242188 4.31054688 C-12.82998047 4.53935547 -13.67753906 4.76816406 -14.55078125 5.00390625 C-15.33106689 5.21861572 -16.11135254 5.4333252 -16.9152832 5.65454102 C-19 6 -19 6 -22 5 C-16.01719658 -0.11410597 -7.60019683 -0.33778653 0 0 Z " fill="#CEA082" transform="translate(88,17)"/>
<path d="M0 0 C-2.90600261 1.25664978 -4.79604584 2 -8 2 C-8.66 3.98 -9.32 5.96 -10 8 C-12.475 7.01 -12.475 7.01 -15 6 C-14 3 -14 3 -11.85546875 1.796875 C-10.97503906 1.45140625 -10.09460937 1.1059375 -9.1875 0.75 C-8.31480469 0.39421875 -7.44210938 0.0384375 -6.54296875 -0.328125 C-3.86358764 -1.03604136 -2.56787877 -0.9337741 0 0 Z " fill="#B8A292" transform="translate(73,15)"/>
<path d="M0 0 C0.99 0.33 1.98 0.66 3 1 C2 4 2 4 0.0390625 5.203125 C-0.75757813 5.54859375 -1.55421875 5.8940625 -2.375 6.25 C-3.56222656 6.78367188 -3.56222656 6.78367188 -4.7734375 7.328125 C-7 8 -7 8 -10 7 C-9.34 7 -8.68 7 -8 7 C-8 6.01 -8 5.02 -8 4 C-4.77208445 1.8480563 -3.71599191 1.79913557 0 2 C0 1.34 0 0.68 0 0 Z " fill="#C09E8E" transform="translate(141,190)"/>
<path d="M0 0 C7.26 0 14.52 0 22 0 C22 0.66 22 1.32 22 2 C20.86111328 1.98259766 20.86111328 1.98259766 19.69921875 1.96484375 C18.70535156 1.95582031 17.71148437 1.94679688 16.6875 1.9375 C15.70136719 1.92589844 14.71523437 1.91429688 13.69921875 1.90234375 C10.90036151 1.87670138 10.90036151 1.87670138 8 3 C5.26187393 2.54451823 2.6798824 1.74685247 0 1 C0 0.67 0 0.34 0 0 Z " fill="#B76E44" transform="translate(126,95)"/>
<path d="M0 0 C0.99 0.33 1.98 0.66 3 1 C3.33 3.64 3.66 6.28 4 9 C4.99 9.33 5.98 9.66 7 10 C4.125 10.1875 4.125 10.1875 1 10 C-1.56687367 6.1496895 -0.83288724 4.41430237 0 0 Z " fill="#BE5E40" transform="translate(124,66)"/>
<path d="M0 0 C1.91385532 2.87078299 2.96432952 5.33411656 4.125 8.5625 C4.47820313 9.53316406 4.83140625 10.50382813 5.1953125 11.50390625 C6 14 6 14 6 16 C4.125 15.5 4.125 15.5 2 14 C0.39609052 9.18827156 -0.25472042 5.0944085 0 0 Z " fill="#D19C81" transform="translate(12,128)"/>
<path d="M0 0 C1.51553092 3.97450493 0.49888623 7.20481149 -0.4375 11.25 C-0.72496094 12.51328125 -1.01242187 13.7765625 -1.30859375 15.078125 C-1.53675781 16.04234375 -1.76492188 17.0065625 -2 18 C-2.33 18 -2.66 18 -3 18 C-3.22027044 11.91808846 -3.08064125 6.75236112 -1 1 C-0.67 0.67 -0.34 0.34 0 0 Z " fill="#D09D82" transform="translate(13,78)"/>
<path d="M0 0 C1.31611677 0.95336021 2.62778961 1.91285774 3.9375 2.875 C4.66839844 3.40867187 5.39929688 3.94234375 6.15234375 4.4921875 C8 6 8 6 9 8 C7.68 7.67 6.36 7.34 5 7 C4.67 7.99 4.34 8.98 4 10 C3.01 9.67 2.02 9.34 1 9 C1.020625 8.071875 1.04125 7.14375 1.0625 6.1875 C1.15769604 2.97713989 1.15769604 2.97713989 0 0 Z " fill="#BB9F8E" transform="translate(156,28)"/>
<path d="M0 0 C0.33 0 0.66 0 1 0 C0.3481717 6.90937997 0.3481717 6.90937997 -3 10 C-4.14240597 12.2899812 -5.05580895 14.61704162 -6 17 C-7 15 -7 15 -6.328125 12.79296875 C-2.53012048 3.61445783 -2.53012048 3.61445783 0 0 Z " fill="#C9714D" transform="translate(21,63)"/>
<path d="M0 0 C0.33 0.66 0.66 1.32 1 2 C1.99 2.33 2.98 2.66 4 3 C2 6 2 6 -0.5 6.75 C-3 7 -3 7 -5 6 C-3.63016497 2.83884224 -3.0109362 2.0072908 0 0 Z " fill="#C5A997" transform="translate(158,176)"/>
<path d="M0 0 C2.82928932 2.55071314 4.67893264 5.46621272 6.6875 8.6875 C7.31011719 9.68136719 7.93273437 10.67523438 8.57421875 11.69921875 C9.04472656 12.45847656 9.51523437 13.21773437 10 14 C9.01 14 8.02 14 7 14 C6.5875 13.05125 6.175 12.1025 5.75 11.125 C3.9959869 7.99283376 3.29148243 7.13499394 0 6 C0 4.02 0 2.04 0 0 Z " fill="#CF9E85" transform="translate(21,151)"/>
<path d="M0 0 C0.99 0.33 1.98 0.66 3 1 C2.690625 1.598125 2.38125 2.19625 2.0625 2.8125 C0.89790296 5.08956772 0.89790296 5.08956772 0 8 C-1.65 7.67 -3.3 7.34 -5 7 C-5 5 -5 5 -2.5 2.375 C-1.675 1.59125 -0.85 0.8075 0 0 Z " fill="#C7A699" transform="translate(168,168)"/>
<path d="M0 0 C2.29225435 0.11371497 4.58382388 0.24130964 6.875 0.375 C8.15117188 0.44460937 9.42734375 0.51421875 10.7421875 0.5859375 C14 1 14 1 16 3 C12.19068824 4.26977059 10.18381007 3.52074507 6.3125 2.5625 C4.54326172 2.13130859 4.54326172 2.13130859 2.73828125 1.69140625 C1.83464844 1.46324219 0.93101563 1.23507813 0 1 C0 0.67 0 0.34 0 0 Z " fill="#BA927F" transform="translate(72,199)"/>
<path d="M0 0 C0.33 0.66 0.66 1.32 1 2 C2.32 2.33 3.64 2.66 5 3 C3.02 5.31 1.04 7.62 -1 10 C-1.99 9.34 -2.98 8.68 -4 8 C-3.525625 7.608125 -3.05125 7.21625 -2.5625 6.8125 C-0.64820367 4.59191626 -0.38733012 2.86624291 0 0 Z " fill="#BF9F8F" transform="translate(171,164)"/>
<path d="M0 0 C0.66 0 1.32 0 2 0 C3.33333333 1.33333333 4.66666667 2.66666667 6 4 C8.13309192 5.23512079 8.13309192 5.23512079 10 6 C7.50907189 7.24546405 6.58919267 6.7767578 4 6 C4 6.66 4 7.32 4 8 C3.01 8 2.02 8 1 8 C0.67 5.36 0.34 2.72 0 0 Z " fill="#C46743" transform="translate(42,157)"/>
<path d="M0 0 C0.66 0 1.32 0 2 0 C2.33 3.63 2.66 7.26 3 11 C1.68 11.33 0.36 11.66 -1 12 C-0.67 8.04 -0.34 4.08 0 0 Z " fill="#C36A48" transform="translate(71,140)"/>
<path d="M0 0 C4.13621084 3.3810038 7.81316569 6.66590534 11 11 C10.67 11.66 10.34 12.32 10 13 C9.60167969 12.50628906 9.20335937 12.01257812 8.79296875 11.50390625 C8.26316406 10.86324219 7.73335937 10.22257812 7.1875 9.5625 C6.66542969 8.92441406 6.14335937 8.28632812 5.60546875 7.62890625 C3.99165589 5.7451725 3.99165589 5.7451725 1 5 C0.67 3.35 0.34 1.7 0 0 Z " fill="#CB714F" transform="translate(161,42)"/>
<path d="M0 0 C2.97 0.495 2.97 0.495 6 1 C3.11912454 3.40072955 0.43595166 5.47291037 -3 7 C-3 6.01 -3 5.02 -3 4 C-2.01 3.67 -1.02 3.34 0 3 C0 2.01 0 1.02 0 0 Z " fill="#CCA28A" transform="translate(45,30)"/>
<path d="M0 0 C1.32 0.66 2.64 1.32 4 2 C4 2.99 4 3.98 4 5 C0 5 0 5 -2 4 C-1 1 -1 1 0 0 Z " fill="#C8A897" transform="translate(164,38)"/>
<path d="M0 0 C-3.12781414 2.52631142 -6.29577411 4.42373366 -10 6 C-10.99 5.67 -11.98 5.34 -13 5 C-11.68 4.67 -10.36 4.34 -9 4 C-9 3.34 -9 2.68 -9 2 C-5.86501708 0.14223235 -3.62528568 -0.20140476 0 0 Z " fill="#D19E84" transform="translate(66,23)"/>
<path d="M0 0 C1.32 0.99 2.64 1.98 4 3 C3.67 3.99 3.34 4.98 3 6 C2.01 6 1.02 6 0 6 C-0.33 6.66 -0.66 7.32 -1 8 C-2 5 -2 5 -2 1 C-1.34 0.67 -0.68 0.34 0 0 Z " fill="#CAAD9E" transform="translate(57,19)"/>
<path d="M0 0 C1.875 0.875 1.875 0.875 3.875 4.875 C0.575 3.885 -2.725 2.895 -6.125 1.875 C-2.125 -0.125 -2.125 -0.125 0 0 Z " fill="#B59D88" transform="translate(67.125,194.125)"/>
<path d="M0 0 C0.99 0.33 1.98 0.66 3 1 C0.525 4.465 0.525 4.465 -2 8 C-2.99 7.01 -3.98 6.02 -5 5 C-4.34 4.34 -3.68 3.68 -3 3 C-2.01 3 -1.02 3 0 3 C0 2.01 0 1.02 0 0 Z " fill="#BA9B88" transform="translate(179,157)"/>
<path d="M0 0 C1.65 0 3.3 0 5 0 C5 1.32 5 2.64 5 4 C5.66 4.66 6.32 5.32 7 6 C6.34 6.66 5.68 7.32 5 8 C4.16382818 6.8562364 3.33113541 5.70992861 2.5 4.5625 C2.0359375 3.92441406 1.571875 3.28632813 1.09375 2.62890625 C0 1 0 1 0 0 Z " fill="#BCA28D" transform="translate(17,157)"/>
<path d="M0 0 C0.33 0 0.66 0 1 0 C1 2.97 1 5.94 1 9 C3.97 9 6.94 9 10 9 C10 9.33 10 9.66 10 10 C6.7 10.33 3.4 10.66 0 11 C-1.04973814 6.80104745 -0.72795155 4.20594226 0 0 Z " fill="#B45F45" transform="translate(81,124)"/>
<path d="M0 0 C0.66 0 1.32 0 2 0 C2.33 0.66 2.66 1.32 3 2 C3.99 2.66 4.98 3.32 6 4 C5.34 6.31 4.68 8.62 4 11 C1.54176828 7.31265242 0.98757384 4.30300029 0 0 Z " fill="#CEA087" transform="translate(183,74)"/>
<path d="M0 0 C0.66 0.33 1.32 0.66 2 1 C-0.41556126 4.19199167 -2.68003538 6.74716687 -6 9 C-6.66 8.67 -7.32 8.34 -8 8 C-5.33333333 5.33333333 -2.66666667 2.66666667 0 0 Z " fill="#CA7350" transform="translate(42,37)"/>
<path d="M0 0 C0.99 0 1.98 0 3 0 C3 1.98 3 3.96 3 6 C2.34 5.34 1.68 4.68 1 4 C-1.475 5.485 -1.475 5.485 -4 7 C-3.67 5.35 -3.34 3.7 -3 2 C-2.34 2 -1.68 2 -1 2 C-0.67 1.34 -0.34 0.68 0 0 Z " fill="#CBAF9E" transform="translate(7,90)"/>
<path d="M0 0 C2.97 0 5.94 0 9 0 C9 0.33 9 0.66 9 1 C7.35 1 5.7 1 4 1 C4 2.32 4 3.64 4 5 C1.525 4.01 1.525 4.01 -1 3 C-0.67 2.01 -0.34 1.02 0 0 Z " fill="#BE663A" transform="translate(123,49)"/>
<path d="M0 0 C0.33 0.99 0.66 1.98 1 3 C0.01 3.33 -0.98 3.66 -2 4 C-2.309375 4.78375 -2.61875 5.5675 -2.9375 6.375 C-4.14208614 9.35103635 -5.33158609 10.31000453 -8 12 C-6.59023295 8.96147295 -4.91129772 6.4060405 -2.875 3.75 C-2.06675781 2.69039062 -2.06675781 2.69039062 -1.2421875 1.609375 C-0.83226562 1.07828125 -0.42234375 0.5471875 0 0 Z " fill="#C9704E" transform="translate(33,46)"/>
<path d="M0 0 C1.65 0.33 3.3 0.66 5 1 C4.67 2.32 4.34 3.64 4 5 C2.68 5.33 1.36 5.66 0 6 C0 4 0 2 0 0 Z " fill="#C3A899" transform="translate(145,23)"/>
<path d="M0 0 C0 0.66 0 1.32 0 2 C-6.45 6.09326923 -6.45 6.09326923 -9.234375 5.62109375 C-9.81703125 5.41613281 -10.3996875 5.21117187 -11 5 C-9.54462432 4.16151196 -8.08559627 3.32936066 -6.625 2.5 C-5.81289062 2.0359375 -5.00078125 1.571875 -4.1640625 1.09375 C-2 0 -2 0 0 0 Z " fill="#D09E84" transform="translate(149,182)"/>
<path d="M0 0 C0.66 0.33 1.32 0.66 2 1 C-0.31 4.3 -2.62 7.6 -5 11 C-5.33 10.34 -5.66 9.68 -6 9 C-4.02 6.03 -2.04 3.06 0 0 Z " fill="#D39D84" transform="translate(29,48)"/>
<path d="M0 0 C0.68707555 2.49064888 1 4.37886292 1 7 C0.01 7 -0.98 7 -2 7 C-2.33 7.99 -2.66 8.98 -3 10 C-3.33 9.34 -3.66 8.68 -4 8 C-3.22265625 6.0546875 -3.22265625 6.0546875 -2.0625 3.875 C-1.49208984 2.78832031 -1.49208984 2.78832031 -0.91015625 1.6796875 C-0.60980469 1.12539063 -0.30945313 0.57109375 0 0 Z " fill="#B59B8B" transform="translate(14,61)"/>
<path d="M0 0 C1.32 0 2.64 0 4 0 C4 1.98 4 3.96 4 6 C2.68 5.34 1.36 4.68 0 4 C0 2.68 0 1.36 0 0 Z " fill="#C46743" transform="translate(47,152)"/>
<path d="M0 0 C1.98 0 3.96 0 6 0 C6 0.66 6 1.32 6 2 C1.375 4.125 1.375 4.125 -2 3 C-1.34 3 -0.68 3 0 3 C0 2.01 0 1.02 0 0 Z " fill="#B59F82" transform="translate(133,194)"/>
<path d="M0 0 C1.65 0.33 3.3 0.66 5 1 C0.25 5.875 0.25 5.875 -2 7 C-1.67 6.21625 -1.34 5.4325 -1 4.625 C0.11866511 2.15667503 0.11866511 2.15667503 0 0 Z " fill="#B39C8F" transform="translate(162,175)"/>
<path d="M0 0 C0.66 0.33 1.32 0.66 2 1 C0.35 3.64 -1.3 6.28 -3 9 C-3.33 8.01 -3.66 7.02 -4 6 C-2.0625 2.8125 -2.0625 2.8125 0 0 Z " fill="#C76F49" transform="translate(172,155)"/>
<path d="M0 0 C0.66 0.66 1.32 1.32 2 2 C0.68 3.32 -0.64 4.64 -2 6 C-3.32 5.34 -4.64 4.68 -6 4 C-5.34 3.67 -4.68 3.34 -4 3 C-3.34 3.33 -2.68 3.66 -2 4 C-2 3.01 -2 2.02 -2 1 C-1.34 0.67 -0.68 0.34 0 0 Z " fill="#BC6742" transform="translate(113,122)"/>
<path d="M0 0 C3.0831351 1.19899698 6.06279492 2.47700477 9 4 C8.67 4.66 8.34 5.32 8 6 C5.36 4.68 2.72 3.36 0 2 C0 1.34 0 0.68 0 0 Z " fill="#CEA188" transform="translate(50,182)"/>
<path d="M0 0 C1.32 0.33 2.64 0.66 4 1 C4 1.66 4 2.32 4 3 C4.99 3.33 5.98 3.66 7 4 C5.02 4 3.04 4 1 4 C0.67 2.68 0.34 1.36 0 0 Z " fill="#C9673F" transform="translate(124,72)"/>
<path d="M0 0 C1.32 1.32 2.64 2.64 4 4 C3.67 4.99 3.34 5.98 3 7 C3 6.34 3 5.68 3 5 C2.34 5 1.68 5 1 5 C0.67 5.66 0.34 6.32 0 7 C0 4.69 0 2.38 0 0 Z " fill="#BF7152" transform="translate(72,65)"/>
<path d="M0 0 C1.65 0 3.3 0 5 0 C5.66 1.98 6.32 3.96 7 6 C5.83054208 5.19152271 4.66449539 4.37810888 3.5 3.5625 C2.8503125 3.11003906 2.200625 2.65757813 1.53125 2.19140625 C1.0259375 1.79824219 0.520625 1.40507813 0 1 C0 0.67 0 0.34 0 0 Z " fill="#CC9B7E" transform="translate(152,34)"/>
</svg>
