<?xml version="1.0" encoding="UTF-8"?>
<svg version="1.1" xmlns="http://www.w3.org/2000/svg" width="248" height="228">
<path d="M0 0 C1.42254633 1.15949019 2.83948713 2.32590077 4.25 3.5 C4.90355469 4.00789063 5.55710938 4.51578125 6.23046875 5.0390625 C22.90469547 18.5515097 33.69642396 40.59516993 37.25 61.5 C38.12528003 77.12344678 38.87108608 93.69283224 33.25 108.5 C33.00330566 109.1595166 32.75661133 109.8190332 32.50244141 110.49853516 C22.98318364 135.43326374 4.58089922 155.33830036 -19.75 166.5 C-41.28249051 175.1828122 -67.63061687 177.61574489 -89.75 169.5 C-90.80445313 169.12617188 -91.85890625 168.75234375 -92.9453125 168.3671875 C-118.59090703 158.46313437 -137.2001583 139.5565461 -148.49560547 114.91308594 C-158.02320952 93.19265447 -158.26468235 64.43005219 -149.92041016 42.29980469 C-145.90493949 32.29268592 -140.70518766 23.75333056 -133.75 15.5 C-133.0178125 14.61699219 -132.285625 13.73398437 -131.53125 12.82421875 C-119.43945355 -1.20481973 -103.37486529 -10.9514313 -85.75 -16.5 C-84.74710937 -16.81839844 -83.74421875 -17.13679688 -82.7109375 -17.46484375 C-54.20833137 -24.98925437 -23.15621188 -17.71470068 0 0 Z M-100.75 29.5 C-100.75 52.6 -100.75 75.7 -100.75 99.5 C-94.48 100.49 -88.21 101.48 -81.75 102.5 C-73.88366337 105.87128713 -73.88366337 105.87128713 -70.1875 108.4375 C-69.48496094 108.92089844 -68.78242187 109.40429688 -68.05859375 109.90234375 C-67.29675781 110.42957031 -66.53492188 110.95679688 -65.75 111.5 C-63.75107517 112.83494468 -61.75118365 114.16844385 -59.75 115.5 C-59.51754309 106.52900818 -59.34024598 97.5590638 -59.23187828 88.58570957 C-59.17984538 84.41811274 -59.10937166 80.25258661 -58.99560547 76.08618164 C-58.88635091 72.05946208 -58.82703942 68.03472371 -58.80122757 64.00663567 C-58.78285352 62.47586825 -58.74696826 60.94520059 -58.69269943 59.41528511 C-58.30257458 50.51408062 -58.30257458 50.51408062 -61.89117432 42.599823 C-64.4058171 40.29594507 -66.90011004 38.36691357 -69.75 36.5 C-70.52346771 35.96294937 -71.29693542 35.42589874 -72.09384155 34.87257385 C-80.59185727 29.21743941 -90.91522148 29.5 -100.75 29.5 Z M-50.13928223 43.14151001 C-55.02302375 48.69647686 -54.22382478 55.7292048 -53.921875 62.66796875 C-53.89944202 64.19917591 -53.88238478 65.73047029 -53.87042236 67.26179504 C-53.82499396 71.25739047 -53.70751206 75.24759721 -53.57397461 79.24108887 C-53.4503369 83.32990618 -53.39622802 87.41961066 -53.3359375 91.50976562 C-53.20793802 99.50896074 -53.00366023 107.5038069 -52.75 115.5 C-48.31728247 113.37114453 -44.67944961 110.47435772 -40.796875 107.47265625 C-31.40377577 101.39122662 -21.9620412 101.27032229 -10.75 99.5 C-10.75 76.4 -10.75 53.3 -10.75 29.5 C-27.0184612 29.5 -38.36704822 31.54596153 -50.13928223 43.14151001 Z M-109.75 35.5 C-109.75 58.27 -109.75 81.04 -109.75 104.5 C-104.1953182 106.09856013 -104.1953182 106.09856013 -98.61328125 107.47265625 C-86.26142709 110.38991469 -75.14667225 114.95307551 -63.75 120.5 C-65.95022792 113.72742342 -70.90766696 111.5818459 -76.8984375 108.3359375 C-85.6172143 104.32835939 -93.87786618 104.05875797 -103.75 102.5 C-104.08 80.39 -104.41 58.28 -104.75 35.5 C-106.4 35.5 -108.05 35.5 -109.75 35.5 Z M-6.75 35.5 C-8.15607756 38.31215512 -7.86950486 40.6404422 -7.86352539 43.78564453 C-7.86367142 44.42967224 -7.86381744 45.07369995 -7.8639679 45.73724365 C-7.8632704 47.86913402 -7.85548566 50.00093737 -7.84765625 52.1328125 C-7.84579149 53.60968986 -7.84436786 55.08656784 -7.84336853 56.56344604 C-7.83954792 60.45312199 -7.82972152 64.34276067 -7.81866455 68.23242188 C-7.80844064 72.20051571 -7.80386881 76.16861555 -7.79882812 80.13671875 C-7.78809885 87.92449616 -7.77102789 95.71224286 -7.75 103.5 C-8.70769287 103.56493652 -9.66538574 103.62987305 -10.65209961 103.69677734 C-11.91030518 103.7839502 -13.16851074 103.87112305 -14.46484375 103.9609375 C-15.71128662 104.04649902 -16.95772949 104.13206055 -18.24194336 104.22021484 C-29.09596247 105.08587744 -40.46132038 108.97105555 -47.75 117.5 C-48.08 118.49 -48.41 119.48 -48.75 120.5 C-44.86872505 119.30667041 -41.28483696 117.84776068 -37.65087891 116.0378418 C-27.85586468 111.17415545 -18.04593229 108.64254534 -7.375 106.3125 C-3.9578141 105.88625913 -3.9578141 105.88625913 -2.75 104.5 C-2.65574405 102.35256451 -2.63257352 100.20198974 -2.63647461 98.05249023 C-2.63632858 97.37934784 -2.63618256 96.70620544 -2.6360321 96.01266479 C-2.63673122 93.77794216 -2.64452348 91.5433019 -2.65234375 89.30859375 C-2.65420794 87.76302638 -2.65563184 86.21745843 -2.65663147 84.67189026 C-2.6604566 80.59642923 -2.67028683 76.52100363 -2.68133545 72.44555664 C-2.69154968 68.28988118 -2.69612911 64.13420001 -2.70117188 59.97851562 C-2.71190911 51.81899413 -2.72898546 43.65950147 -2.75 35.5 C-4.07 35.5 -5.39 35.5 -6.75 35.5 Z " fill="#D6663A" transform="translate(184.75,38.5)"/>
<path d="M0 0 C1.42254633 1.15949019 2.83948713 2.32590077 4.25 3.5 C4.90355469 4.00789063 5.55710938 4.51578125 6.23046875 5.0390625 C22.90469547 18.5515097 33.69642396 40.59516993 37.25 61.5 C38.12528003 77.12344678 38.87108608 93.69283224 33.25 108.5 C33.00330566 109.1595166 32.75661133 109.8190332 32.50244141 110.49853516 C22.98318364 135.43326374 4.58089922 155.33830036 -19.75 166.5 C-41.28249051 175.1828122 -67.63061687 177.61574489 -89.75 169.5 C-90.80445313 169.12617188 -91.85890625 168.75234375 -92.9453125 168.3671875 C-118.59090703 158.46313437 -137.2001583 139.5565461 -148.49560547 114.91308594 C-158.02320952 93.19265447 -158.26468235 64.43005219 -149.92041016 42.29980469 C-145.90493949 32.29268592 -140.70518766 23.75333056 -133.75 15.5 C-133.0178125 14.61699219 -132.285625 13.73398437 -131.53125 12.82421875 C-119.43945355 -1.20481973 -103.37486529 -10.9514313 -85.75 -16.5 C-84.74710937 -16.81839844 -83.74421875 -17.13679688 -82.7109375 -17.46484375 C-54.20833137 -24.98925437 -23.15621188 -17.71470068 0 0 Z M-98.75 -3.5 C-99.74386719 -3.02691406 -100.73773438 -2.55382813 -101.76171875 -2.06640625 C-114.77762659 4.75631145 -127.24260047 15.86343152 -134.75 28.5 C-135.07983887 29.05171875 -135.40967773 29.6034375 -135.74951172 30.171875 C-140.96372129 39.0184823 -144.36528966 47.47713328 -146.75 57.5 C-147.10449219 58.72074219 -147.45898438 59.94148438 -147.82421875 61.19921875 C-153.24991121 83.0823223 -146.36158752 104.55757198 -135.75 123.5 C-134.96882813 124.95986328 -134.96882813 124.95986328 -134.171875 126.44921875 C-126.11584586 140.38452169 -113.82505198 150.18097297 -99.75 157.5 C-98.35007812 158.25023437 -98.35007812 158.25023437 -96.921875 159.015625 C-77.91040244 168.46444071 -54.4197056 169.74810545 -34.15625 163.703125 C-25.35673575 160.59503969 -17.02642819 156.80301023 -8.75 152.5 C-8.75 151.84 -8.75 151.18 -8.75 150.5 C-8.20601562 150.25894531 -7.66203125 150.01789063 -7.1015625 149.76953125 C7.13951315 142.0812429 16.91122763 127.95720007 23.25 113.5 C23.62769531 112.68144531 24.00539062 111.86289063 24.39453125 111.01953125 C33.37957281 90.39095268 32.79122142 65.98479089 25.375 45.02734375 C24.45509898 42.76455152 23.39866942 40.65601989 22.25 38.5 C21.70730469 37.43394531 21.16460937 36.36789063 20.60546875 35.26953125 C10.03187929 15.19330629 -8.50294128 -1.04513298 -30.10864258 -8.29101562 C-53.81134421 -15.20866773 -76.3810557 -14.16620812 -98.75 -3.5 Z " fill="#C5A592" transform="translate(184.75,38.5)"/>
<path d="M0 0 C0.33 0 0.66 0 1 0 C1.83890803 34.25325998 1.83890803 34.25325998 -3 47 C-3.24669434 47.6595166 -3.49338867 48.3190332 -3.74755859 48.99853516 C-13.26681636 73.93326374 -31.66910078 93.83830036 -56 105 C-68.25138949 109.94027916 -79.31040135 112.20141496 -92.5559082 112.24023438 C-94.53283819 112.24985564 -96.50962546 112.28101444 -98.48632812 112.3125 C-107.06190636 112.34692279 -114.74383617 111.32311369 -123 109 C-120.01590521 108.13555126 -117.38126796 107.88245959 -114.27905273 107.90234375 C-113.34806259 107.90564697 -112.41707245 107.9089502 -111.45787048 107.91235352 C-110.45985916 107.92065186 -109.46184784 107.9289502 -108.43359375 107.9375 C-106.8879348 107.94317993 -106.8879348 107.94317993 -105.31105042 107.94897461 C-102.0198245 107.96119013 -98.72868616 107.97982194 -95.4375 108 C-91.10286696 108.02653277 -86.76827721 108.04655626 -82.43359375 108.0625 C-81.4335582 108.07079834 -80.43352264 108.07909668 -79.40318298 108.08764648 C-78.01142601 108.09260132 -78.01142601 108.09260132 -76.59155273 108.09765625 C-75.77532944 108.10289307 -74.95910614 108.10812988 -74.1181488 108.11352539 C-71.8090985 108.08358911 -71.8090985 108.08358911 -69 107 C-68.67 106.34 -68.34 105.68 -68 105 C-72.95 105 -77.9 105 -83 105 C-83 104.67 -83 104.34 -83 104 C-81.98421875 103.76925781 -80.9684375 103.53851563 -79.921875 103.30078125 C-69.48708644 100.85751369 -59.96238996 97.54992179 -50.375 92.6875 C-47 91 -47 91 -45 91 C-45 90.34 -45 89.68 -45 89 C-43.49096123 87.64626036 -41.91587302 86.36556599 -40.3125 85.125 C-39.44238281 84.44695312 -38.57226562 83.76890625 -37.67578125 83.0703125 C-35.95388015 81.73803866 -34.22150287 80.41913991 -32.4765625 79.1171875 C-29.62002499 76.67516332 -27.32961287 73.97530814 -25.0625 71 C-24.6279248 70.43112061 -24.19334961 69.86224121 -23.74560547 69.27612305 C-19.72310971 63.86663722 -16.7064171 58.17268001 -14 52 C-13.62230469 51.18144531 -13.24460937 50.36289063 -12.85546875 49.51953125 C-9.83894783 42.59396075 -8.40702043 35.39751652 -7 28 C-6.67 28 -6.34 28 -6 28 C-5.505 31.96 -5.505 31.96 -5 36 C-4.34 36 -3.68 36 -3 36 C-2.98018066 35.01604248 -2.96036133 34.03208496 -2.93994141 33.01831055 C-2.86386013 29.36717161 -2.775147 25.71642991 -2.68261719 22.06567383 C-2.64433779 20.48567549 -2.60948303 18.90559031 -2.578125 17.32543945 C-2.53245124 15.05388355 -2.47446216 12.78292491 -2.4140625 10.51171875 C-2.40251129 9.80536789 -2.39096008 9.09901703 -2.37905884 8.3712616 C-2.26928952 4.72258607 -2.07857636 3.11786454 0 0 Z " fill="#C6A896" transform="translate(221,100)"/>
<path d="M0 0 C1.65 0 3.3 0 5 0 C5 23.76 5 47.52 5 72 C-3.415 72.99 -3.415 72.99 -12 74 C-15.20292336 74.89995321 -17.9776502 75.75339931 -21 77 C-22.63082811 77.62158476 -24.26236941 78.24130083 -25.89453125 78.859375 C-28.37845334 79.81184154 -30.85976178 80.76867042 -33.33398438 81.74609375 C-34.53958008 82.20435547 -34.53958008 82.20435547 -35.76953125 82.671875 C-36.48729736 82.9512793 -37.20506348 83.23068359 -37.94458008 83.51855469 C-40.31484587 84.07374701 -41.7163622 83.76710185 -44 83 C-36.22215265 76.19438357 -26.66352675 73.20301789 -17 70 C-15.90816406 69.62101562 -14.81632812 69.24203125 -13.69140625 68.8515625 C-10 68 -10 68 0 68 C0 45.56 0 23.12 0 0 Z " fill="#E13A26" transform="translate(186,78)"/>
<path d="M0 0 C1.65 0 3.3 0 5 0 C5 22.44 5 44.88 5 68 C9.95 68 14.9 68 20 68 C20.33 67.34 20.66 66.68 21 66 C21.66 66.99 22.32 67.98 23 69 C24.59227583 69.47429493 26.18877388 69.93768678 27.80078125 70.33984375 C33.78999803 72.13767259 44.03894275 75.398306 47.14306641 81.09936523 C47.42585449 81.72657471 47.70864258 82.35378418 48 83 C42.96149479 81.54097339 37.96416233 80.0220904 33.02734375 78.24609375 C32.18880859 77.94896484 31.35027344 77.65183594 30.48632812 77.34570312 C28.81009372 76.7484242 27.13800679 76.1393517 25.47070312 75.51757812 C16.7403121 72.47024012 9.80369391 72.15337575 0 71 C0 47.57 0 24.14 0 0 Z " fill="#E13A26" transform="translate(66,79)"/>
<path d="M0 0 C0.99 0.99 1.98 1.98 3 3 C5.62570704 3.25069913 5.62570704 3.25069913 8 3 C6.68 3.33 5.36 3.66 4 4 C4.00222061 4.74866837 4.00444122 5.49733673 4.00672913 6.26869202 C4.02681629 13.34497513 4.04201699 20.42124826 4.05181217 27.49755192 C4.05701735 31.13501775 4.06407177 34.7724599 4.07543945 38.40991211 C4.08635273 41.92419605 4.09229464 45.4384573 4.09487724 48.95275688 C4.09760767 50.93734867 4.1054062 52.92193141 4.11329651 54.9065094 C4.11365534 60.70601965 4.07460889 66.29230227 3 72 C1.741875 72.12375 0.48375 72.2475 -0.8125 72.375 C-13.08943475 73.78420373 -22.29217768 76.96246681 -33 83 C-34.485 83.495 -34.485 83.495 -36 84 C-36.495 84.99 -36.495 84.99 -37 86 C-37.99 85.01 -38.98 84.02 -40 83 C-28.12130168 71.76864219 -16.22551605 68 0 68 C0 45.56 0 23.12 0 0 Z " fill="#D06136" transform="translate(174,70)"/>
<path d="M0 0 C0.33 0 0.66 0 1 0 C1 23.1 1 46.2 1 70 C7.93 70.495 7.93 70.495 15 71 C25.84861886 73.12255586 32.52050569 78.21306686 41 85 C41.06951349 76.07263952 41.12281799 67.14537222 41.15543652 58.21780014 C41.17109187 54.07234894 41.19232757 49.92708291 41.22631836 45.78173828 C41.25891675 41.78116282 41.276854 37.78076547 41.28463173 33.78006744 C41.2901744 32.25382941 41.30099794 30.72760111 41.31719017 29.2014389 C41.33897148 27.06344037 41.34196673 24.92617759 41.34057617 22.78808594 C41.34723801 21.5711908 41.35389984 20.35429565 41.36076355 19.1005249 C40.9734599 15.77190538 40.26269851 14.41117285 38 12 C41.875 13.875 41.875 13.875 43 15 C43.09436529 17.23929886 43.11742327 19.4816175 43.11352539 21.72290039 C43.11367142 22.4253035 43.11381744 23.1277066 43.1139679 23.85139465 C43.11326872 26.18351278 43.10547617 28.515552 43.09765625 30.84765625 C43.09579208 32.46048438 43.09436818 34.07331307 43.09336853 35.68614197 C43.08954323 39.93915357 43.07971285 44.19213124 43.06866455 48.44512939 C43.05845069 52.7817743 43.05387096 57.11842467 43.04882812 61.45507812 C43.03809059 69.97006769 43.02101403 78.48502963 43 87 C41.68 87 40.36 87 39 87 C39.33 87.99 39.66 88.98 40 90 C39.34 90.99 38.68 91.98 38 93 C37.01 92.67 36.02 92.34 35 92 C35 91.34 35 90.68 35 90 C35.66 89.67 36.32 89.34 37 89 C29.26865658 79.93566633 19.34878449 77.2501776 8.015625 75.640625 C4.2137545 75.09330258 0.66813443 74.13308865 -3 73 C-3 72.34 -3 71.68 -3 71 C-2.01 71 -1.02 71 0 71 C0 47.57 0 24.14 0 0 Z " fill="#BD6747" transform="translate(83,68)"/>
<path d="M0 0 C0.99 0.33 1.98 0.66 3 1 C-5.94634479 7.11832091 -14.73730175 12.30587776 -25 16 C-26.11632812 16.41378906 -27.23265625 16.82757813 -28.3828125 17.25390625 C-37.58845533 20.10705905 -46.57818075 20.38234147 -56.1875 20.4375 C-57.44626953 20.44765137 -58.70503906 20.45780273 -60.00195312 20.46826172 C-68.35821874 20.39056464 -75.94758522 19.22150171 -84 17 C-81.01590521 16.13555126 -78.38126796 15.88245959 -75.27905273 15.90234375 C-73.88256752 15.90729858 -73.88256752 15.90729858 -72.45787048 15.91235352 C-71.45985916 15.92065186 -70.46184784 15.9289502 -69.43359375 15.9375 C-67.8879348 15.94317993 -67.8879348 15.94317993 -66.31105042 15.94897461 C-63.0198245 15.96119013 -59.72868616 15.97982194 -56.4375 16 C-52.10286696 16.02653277 -47.76827721 16.04655626 -43.43359375 16.0625 C-42.4335582 16.07079834 -41.43352264 16.07909668 -40.40318298 16.08764648 C-39.01142601 16.09260132 -39.01142601 16.09260132 -37.59155273 16.09765625 C-36.77532944 16.10289307 -35.95910614 16.10812988 -35.1181488 16.11352539 C-32.8090985 16.08358911 -32.8090985 16.08358911 -30 15 C-29.67 14.34 -29.34 13.68 -29 13 C-33.95 13 -38.9 13 -44 13 C-44 12.67 -44 12.34 -44 12 C-42.98421875 11.76925781 -41.9684375 11.53851563 -40.921875 11.30078125 C-33.10937471 9.46954794 -25.79862652 7.3644642 -18.453125 4.05078125 C-16.2963503 3.12693986 -14.28870955 2.48661815 -12 2 C-12.33 3.32 -12.66 4.64 -13 6 C-11.35 5.34 -9.7 4.68 -8 4 C-8 3.01 -8 2.02 -8 1 C-7.01 1.33 -6.02 1.66 -5 2 C-2.67642489 2.18490007 -2.67642489 2.18490007 0 0 Z " fill="#C29D84" transform="translate(182,192)"/>
<path d="M0 0 C0.33 0 0.66 0 1 0 C1.14496399 6.09735506 1.28724949 12.19476519 1.42724609 18.29223633 C1.47504505 20.35865897 1.52352663 22.42506596 1.57275391 24.49145508 C1.87014044 36.99686241 2.07607526 49.49090232 2 62 C1.39631592 62.02545898 0.79263184 62.05091797 0.1706543 62.07714844 C-9.10610449 62.54875961 -18.17517784 65.65515694 -26.74609375 69.10546875 C-29 70 -29 70 -32.75 70.875 C-37.43760146 71.98427974 -41.66541576 73.93304548 -46 76 C-46 75.34 -46 74.68 -46 74 C-34.84645183 68.35180994 -24.27333943 63.64961355 -12 61 C-9.03 60.34 -6.06 59.68 -3 59 C-2.67 43.16 -2.34 27.32 -2 11 C-1.34 11 -0.68 11 0 11 C0 7.37 0 3.74 0 0 Z " fill="#CF6744" transform="translate(184,84)"/>
<path d="M0 0 C0.33 0.66 0.66 1.32 1 2 C2.32 1.67 3.64 1.34 5 1 C5 23.44 5 45.88 5 69 C9.455 68.505 9.455 68.505 14 68 C15.32 68.33 16.64 68.66 18 69 C18 69.66 18 70.32 18 71 C13.05 71 8.1 71 3 71 C3 48.56 3 26.12 3 3 C1.35 3 -0.3 3 -2 3 C-2 25.11 -2 47.22 -2 70 C-2.33 70 -2.66 70 -3 70 C-3.06942341 61.16848225 -3.12277203 52.33705802 -3.15543652 43.50532722 C-3.17111161 39.40465807 -3.1923831 35.3041752 -3.22631836 31.20361328 C-3.25884669 27.24843381 -3.27683912 23.29343383 -3.28463173 19.33813095 C-3.29018704 17.82698616 -3.30103491 16.31585151 -3.31719017 14.80478287 C-3.33887859 12.69271648 -3.34197066 10.58139758 -3.34057617 8.46923828 C-3.34723801 7.26566681 -3.35389984 6.06209534 -3.36076355 4.822052 C-3.18218559 3.42513626 -3.18218559 3.42513626 -3 2 C-2.01 1.34 -1.02 0.68 0 0 Z " fill="#E15C3B" transform="translate(68,76)"/>
<path d="M0 0 C0.33 0 0.66 0 1 0 C1.125 2.375 1.125 2.375 1 5 C0.34 5.66 -0.32 6.32 -1 7 C-0.2575 6.54625 0.485 6.0925 1.25 5.625 C3.47106199 4.31255428 5.68781872 3.13632841 8 2 C1.51269413 11.23949623 -5.14735227 18.99049604 -16 23 C-16.99 23 -17.98 23 -19 23 C-19.66 22.34 -20.32 21.68 -21 21 C-21 21.99 -21 22.98 -21 24 C-22.65 24.66 -24.3 25.32 -26 26 C-25.67 24.35 -25.34 22.7 -25 21 C-23.02 20.34 -21.04 19.68 -19 19 C-19 18.34 -19 17.68 -19 17 C-17.49096123 15.64626036 -15.91587302 14.36556599 -14.3125 13.125 C-13.00732422 12.10792969 -13.00732422 12.10792969 -11.67578125 11.0703125 C-10.35126953 10.04550781 -10.35126953 10.04550781 -9 9 C-5.44280242 6.2430428 -2.76501733 3.55502228 0 0 Z " fill="#C7A38E" transform="translate(195,172)"/>
<path d="M0 0 C0.33 0 0.66 0 1 0 C1.07533781 4.17680545 1.12914847 8.35322911 1.16479492 12.53051758 C1.17968738 13.94530137 1.20000836 15.36004067 1.22631836 16.7746582 C1.39734243 26.22122332 0.61948346 34.84608165 -2 44 C-5.36541838 45.08174162 -6.29847322 44.92538169 -10 44 C-9.01 38.72 -8.02 33.44 -7 28 C-6.67 28 -6.34 28 -6 28 C-5.67 30.64 -5.34 33.28 -5 36 C-4.34 36 -3.68 36 -3 36 C-2.98018066 35.01604248 -2.96036133 34.03208496 -2.93994141 33.01831055 C-2.86386013 29.36717161 -2.775147 25.71642991 -2.68261719 22.06567383 C-2.64433779 20.48567549 -2.60948303 18.90559031 -2.578125 17.32543945 C-2.53245124 15.05388355 -2.47446216 12.78292491 -2.4140625 10.51171875 C-2.40251129 9.80536789 -2.39096008 9.09901703 -2.37905884 8.3712616 C-2.26928952 4.72258607 -2.07857636 3.11786454 0 0 Z " fill="#C38F72" transform="translate(221,100)"/>
<path d="M0 0 C2.64 0 5.28 0 8 0 C6.68 0.33 5.36 0.66 4 1 C4.33 23.77 4.66 46.54 5 70 C6.65 70.33 8.3 70.66 10 71 C10 71.33 10 71.66 10 72 C7.36 72 4.72 72 2 72 C1.67 49.89 1.34 27.78 1 5 C0.67 5 0.34 5 0 5 C0 3.35 0 1.7 0 0 Z " fill="#C67253" transform="translate(71,73)"/>
<path d="M0 0 C0.33 0 0.66 0 1 0 C2.50752298 19.71807978 3.30212524 39.21544504 3 59 C2.01 59.495 2.01 59.495 1 60 C-0.31857548 57.36284904 -0.11991704 55.4016736 -0.11352539 52.44873047 C-0.11344986 51.28767792 -0.11337433 50.12662537 -0.11329651 48.9303894 C-0.10813522 47.67203278 -0.10297394 46.41367615 -0.09765625 45.1171875 C-0.0962413 43.83264679 -0.09482635 42.54810608 -0.09336853 41.22463989 C-0.08954911 37.80843158 -0.07972373 34.39226574 -0.06866455 30.97607422 C-0.05843807 27.49056574 -0.05386826 24.0050504 -0.04882812 20.51953125 C-0.03810096 13.67967005 -0.02103142 6.83983706 0 0 Z " fill="#D2592E" transform="translate(175,76)"/>
<path d="M0 0 C0.43957031 0.49113281 0.87914062 0.98226562 1.33203125 1.48828125 C2.95842292 3.27541725 2.95842292 3.27541725 5.6875 3.1875 C6.450625 3.125625 7.21375 3.06375 8 3 C6.68 3.33 5.36 3.66 4 4 C3.67 11.59 3.34 19.18 3 27 C2.67 27 2.34 27 2 27 C1.97532083 32.23274388 1.95714997 37.46545403 1.94506836 42.69824219 C1.94003289 44.47917267 1.93320419 46.260099 1.92456055 48.04101562 C1.91246058 50.59766665 1.90676391 53.15426312 1.90234375 55.7109375 C1.89718246 56.50994476 1.89202118 57.30895203 1.88670349 58.13217163 C1.7866125 62.19691905 1.7866125 62.19691905 3 66 C3.039992 67.99960012 3.04346799 70.00047242 3 72 C1.35 72 -0.3 72 -2 72 C-0.515 71.505 -0.515 71.505 1 71 C0.67 70.01 0.34 69.02 0 68 C-0.08961953 65.80724981 -0.11758191 63.61181342 -0.11352539 61.41723633 C-0.11367142 60.75355545 -0.11381744 60.08987457 -0.1139679 59.40608215 C-0.11327182 57.21469848 -0.1054937 55.02340005 -0.09765625 52.83203125 C-0.09579099 51.31174262 -0.09436759 49.79145339 -0.09336853 48.27116394 C-0.08955188 44.27135557 -0.07972885 40.27158356 -0.06866455 36.27178955 C-0.05843213 32.18966158 -0.05386698 28.10752773 -0.04882812 24.02539062 C-0.03810583 16.01691041 -0.02103961 8.00845973 0 0 Z " fill="#BC6644" transform="translate(174,70)"/>
<path d="M0 0 C5.85339816 0.1186938 11.70664192 0.24297054 17.55981445 0.37231445 C19.5490399 0.41549871 21.53829848 0.4571847 23.52758789 0.49731445 C26.39479537 0.55541898 29.2618386 0.61899555 32.12890625 0.68359375 C33.01147598 0.70030624 33.89404572 0.71701874 34.80335999 0.73423767 C39.62055449 0.84857197 44.24572958 1.20809129 49 2 C49 2.33 49 2.66 49 3 C42.79634594 4.17092137 36.74177539 4.22177737 30.4440918 4.24023438 C28.46716181 4.24985564 26.49037454 4.28101444 24.51367188 4.3125 C15.93809364 4.34692279 8.25616383 3.32311369 0 1 C0 0.67 0 0.34 0 0 Z " fill="#BD795D" transform="translate(98,208)"/>
<path d="M0 0 C0.33 0 0.66 0 1 0 C1.33 6.27 1.66 12.54 2 19 C2.33 19 2.66 19 3 19 C3.07516846 19.57967529 3.15033691 20.15935059 3.2277832 20.7565918 C3.57758754 23.40193751 3.94486827 26.04457534 4.3125 28.6875 C4.43044922 29.59951172 4.54839844 30.51152344 4.66992188 31.45117188 C5.36243959 36.33430963 6.10064305 39.89512095 9 44 C9.51762522 45.29781396 10.0005447 46.61035004 10.4375 47.9375 C11.78238969 51.71026949 13.75969793 54.6756808 16 58 C17.25 61.375 17.25 61.375 18 64 C14.11063354 60.61529407 12.14382947 56.87168333 9.9375 52.3125 C9.58534424 51.59425049 9.23318848 50.87600098 8.87036133 50.13598633 C6.84302663 45.93552359 4.9174834 41.77006291 3.64550781 37.27001953 C3.2034078 35.71531231 2.73141197 34.16888448 2.234375 32.63085938 C0.01876943 25.40298924 -0.36721035 18.83729497 -0.1875 11.3125 C-0.17396484 10.21744141 -0.16042969 9.12238281 -0.14648438 7.99414062 C-0.11156837 5.32888586 -0.06253717 2.66472496 0 0 Z " fill="#CC7A55" transform="translate(36,104)"/>
<path d="M0 0 C0.99 0.33 1.98 0.66 3 1 C0.79411638 2.44137875 -1.41454997 3.87815365 -3.625 5.3125 C-4.24246094 5.71662109 -4.85992187 6.12074219 -5.49609375 6.53710938 C-9.21716477 8.94601325 -12.90062871 11.27920374 -17 13 C-17.99 12.67 -18.98 12.34 -20 12 C-19.360625 11.401875 -18.72125 10.80375 -18.0625 10.1875 C-15.79689611 8.09189663 -15.79689611 8.09189663 -15 5 C-11.535 4.505 -11.535 4.505 -8 4 C-8 3.01 -8 2.02 -8 1 C-7.01 1.33 -6.02 1.66 -5 2 C-2.67642489 2.18490007 -2.67642489 2.18490007 0 0 Z " fill="#B89E8B" transform="translate(182,192)"/>
<path d="M0 0 C0.66 0.33 1.32 0.66 2 1 C1.67 1.66 1.34 2.32 1 3 C1.99 3.33 2.98 3.66 4 4 C2.21190303 5.17213045 0.41940875 6.33755526 -1.375 7.5 C-2.37273437 8.1496875 -3.37046875 8.799375 -4.3984375 9.46875 C-7 11 -7 11 -9 11 C-9.33 11.66 -9.66 12.32 -10 13 C-10.99 12.01 -11.98 11.02 -13 10 C-4.07749077 1.91881919 -4.07749077 1.91881919 0 0 Z " fill="#C36640" transform="translate(147,143)"/>
<path d="M0 0 C3.67420866 0.30618405 4.78135513 0.75771784 7.3125 3.5625 C8.1478125 4.7690625 8.1478125 4.7690625 9 6 C8.01 6.495 8.01 6.495 7 7 C8.49097658 10.7952131 10.75700849 12.61042731 14 15 C9.8538451 15 8.36376221 13.21954975 5.125 10.6875 C1.516448 7.87934111 -2.02521153 5.26606944 -6 3 C-3.3333581 1.66667905 -1.83319697 2.32897967 1 3 C0.67 2.01 0.34 1.02 0 0 Z " fill="#CBA18A" transform="translate(174,34)"/>
<path d="M0 0 C1.79640787 3.36826475 2 5.18260321 2 9 C1.34 9 0.68 9 0 9 C-1.97386331 17.03230159 -2.41308094 24.87781657 -2.625 33.125 C-2.66367187 34.36765625 -2.70234375 35.6103125 -2.7421875 36.890625 C-2.83561268 39.92694319 -2.92138119 42.9632685 -3 46 C-3.33 46 -3.66 46 -4 46 C-4.07558065 42.12639496 -4.1292563 38.25308994 -4.16479492 34.37890625 C-4.18685261 32.43213762 -4.22501918 30.48557235 -4.26367188 28.5390625 C-4.33987176 18.58227692 -3.16019863 9.48059588 0 0 Z " fill="#B29786" transform="translate(34,84)"/>
<path d="M0 0 C1.06669922 0.00322266 2.13339844 0.00644531 3.23242188 0.00976562 C4.88661133 0.02233398 4.88661133 0.02233398 6.57421875 0.03515625 C7.69634766 0.03966797 8.81847656 0.04417969 9.97460938 0.04882812 C12.73703385 0.06058312 15.49934873 0.07701548 18.26171875 0.09765625 C17.93171875 0.75765625 17.60171875 1.41765625 17.26171875 2.09765625 C10.99171875 2.09765625 4.72171875 2.09765625 -1.73828125 2.09765625 C-2.06828125 2.75765625 -2.39828125 3.41765625 -2.73828125 4.09765625 C-5.37828125 3.43765625 -8.01828125 2.77765625 -10.73828125 2.09765625 C-10.73828125 1.76765625 -10.73828125 1.43765625 -10.73828125 1.09765625 C-7.09180065 0.25660845 -3.73877218 -0.01999343 0 0 Z " fill="#B29E96" transform="translate(118.73828125,18.90234375)"/>
<path d="M0 0 C0 0.33 0 0.66 0 1 C-1.16015625 1.03738281 -2.3203125 1.07476563 -3.515625 1.11328125 C-11.80439738 1.44138219 -19.41230522 2.06693576 -27.4296875 4.3671875 C-31.05659199 5.26013359 -34.2850665 5.21432309 -38 5 C-27.39121281 -2.07252479 -12.1663895 -0.33960005 0 0 Z " fill="#CA7653" transform="translate(136,26)"/>
<path d="M0 0 C3.96509139 -0.09990539 7.92968163 -0.17194834 11.89575195 -0.21972656 C13.89756051 -0.24940781 15.89901919 -0.30027058 17.90039062 -0.3515625 C25.51647752 -0.42829889 31.39395013 0.02404327 38 4 C35.17247175 5.41376413 33.88936272 4.46680882 30.875 3.5625 C20.45651421 0.97259393 9.65873222 1.74587935 -1 2 C-0.67 1.34 -0.34 0.68 0 0 Z " fill="#D1A088" transform="translate(113,25)"/>
<path d="M0 0 C0 0.99 0 1.98 0 3 C-0.61488281 3.13277344 -1.22976562 3.26554688 -1.86328125 3.40234375 C-3.07564453 3.66724609 -3.07564453 3.66724609 -4.3125 3.9375 C-5.11300781 4.11152344 -5.91351563 4.28554687 -6.73828125 4.46484375 C-9.145401 4.99886159 -9.145401 4.99886159 -12 6 C-12.99 5.67 -13.98 5.34 -15 5 C-14.67 3.68 -14.34 2.36 -14 1 C-9.27685687 0.22887459 -4.78478822 -0.09764874 0 0 Z " fill="#D05E3A" transform="translate(163,141)"/>
<path d="M0 0 C7.24638702 1.0293933 13.46495702 2.67600283 20 6 C19.01 6.66 18.02 7.32 17 8 C13.08610984 7.16130925 10.33960156 6.22640104 7 4 C5.96875 3.67 4.9375 3.34 3.875 3 C1 2 1 2 0 0 Z " fill="#CE6246" transform="translate(87,146)"/>
<path d="M0 0 C2.99332739 0.9977758 3.94766315 1.7522025 6 4 C4.20966193 5.31431172 2.41768797 6.6263953 0.625 7.9375 C-0.37273437 8.66839844 -1.37046875 9.39929688 -2.3984375 10.15234375 C-5 12 -5 12 -7 13 C-7 11.68 -7 10.36 -7 9 C-5.68 9 -4.36 9 -3 9 C-3.061875 8.2575 -3.12375 7.515 -3.1875 6.75 C-2.96905704 3.54616994 -2.09749995 2.35968744 0 0 Z " fill="#CCA28B" transform="translate(74,35)"/>
<path d="M0 0 C3.95646871 2.16579504 6.90481845 4.66363298 10.0625 7.875 C10.89910156 8.71804687 11.73570312 9.56109375 12.59765625 10.4296875 C14.87214366 12.86320411 16.95876188 15.3694899 19 18 C18.67 18.66 18.34 19.32 18 20 C17.12988281 18.98679687 17.12988281 18.98679687 16.2421875 17.953125 C11.37589432 12.19545513 11.37589432 12.19545513 5.5 7.5625 C3 6 3 6 2 3 C1.34 2.67 0.68 2.34 0 2 C0 1.34 0 0.68 0 0 Z " fill="#CA6E4B" transform="translate(181,46)"/>
<path d="M0 0 C2 2 2 2 2.13525391 3.97119141 C2.08288574 4.75671387 2.03051758 5.54223633 1.9765625 6.3515625 C1.925 7.20234375 1.8734375 8.053125 1.8203125 8.9296875 C1.75585938 9.81914063 1.69140625 10.70859375 1.625 11.625 C1.56828125 12.5221875 1.5115625 13.419375 1.453125 14.34375 C1.31145247 16.56328624 1.1600296 18.78172402 1 21 C0.34 21 -0.32 21 -1 21 C-1.02710123 18.4374282 -1.04688771 15.87514635 -1.0625 13.3125 C-1.07087891 12.59126953 -1.07925781 11.87003906 -1.08789062 11.12695312 C-1.10543632 7.28444618 -0.93524221 3.73360474 0 0 Z " fill="#C4674E" transform="translate(183,74)"/>
<path d="M0 0 C0 3 0 3 -1.375 4.6875 C-3 6 -3 6 -5 6 C-5 6.66 -5 7.32 -5 8 C-6.32781878 9.0073108 -7.66209359 10.00612666 -9 11 C-9.515625 11.721875 -10.03125 12.44375 -10.5625 13.1875 C-11.2740625 14.0846875 -11.2740625 14.0846875 -12 15 C-12.99 15 -13.98 15 -15 15 C-15 15.66 -15 16.32 -15 17 C-15.66 16.67 -16.32 16.34 -17 16 C-11.97973348 9.74960195 -6.3842275 4.82991859 0 0 Z " fill="#C9704A" transform="translate(73,43)"/>
<path d="M0 0 C1.07980476 3.21750519 0.97733906 4.82122732 -0.43359375 7.890625 C-0.75263672 8.59960938 -1.07167969 9.30859375 -1.40039062 10.0390625 C-1.74263672 10.76867187 -2.08488281 11.49828125 -2.4375 12.25 C-2.77587891 12.99507812 -3.11425781 13.74015625 -3.46289062 14.5078125 C-4.29826304 16.34327865 -5.14777967 18.17229555 -6 20 C-6.99 20 -7.98 20 -9 20 C-7.828125 13.9453125 -7.828125 13.9453125 -7 12 C-6.3503125 11.690625 -5.700625 11.38125 -5.03125 11.0625 C-2.76931167 10.14873573 -2.76931167 10.14873573 -1.953125 7.6171875 C-1.60507813 6.25980469 -1.60507813 6.25980469 -1.25 4.875 C-1.00765625 3.96492187 -0.7653125 3.05484375 -0.515625 2.1171875 C-0.34546875 1.41851562 -0.1753125 0.71984375 0 0 Z " fill="#B79D8E" transform="translate(217,143)"/>
<path d="M0 0 C8.58 0 17.16 0 26 0 C24.68 1.32 23.36 2.64 22 4 C19.84375 3.98828125 19.84375 3.98828125 17.5 3.3125 C11.69194271 1.84748256 5.96512263 1.38947536 0 1 C0 0.67 0 0.34 0 0 Z " fill="#D3A086" transform="translate(112,205)"/>
<path d="M0 0 C0.99 0 1.98 0 3 0 C1.6302836 3.99500618 -0.25722422 6.80009492 -3 10 C-3 9.01 -3 8.02 -3 7 C-4.32 6.67 -5.64 6.34 -7 6 C-7.33 6.66 -7.66 7.32 -8 8 C-8.66 8 -9.32 8 -10 8 C-8.70700306 5.11562221 -7.34058637 3.12780579 -5 1 C-4.34 2.32 -3.68 3.64 -3 5 C-2.34 4.67 -1.68 4.34 -1 4 C-0.34786708 1.97536745 -0.34786708 1.97536745 0 0 Z " fill="#C59B86" transform="translate(206,164)"/>
<path d="M0 0 C-0.33 0.99 -0.66 1.98 -1 3 C-3.3984375 4.01953125 -3.3984375 4.01953125 -6.375 4.8125 C-7.84066406 5.22435547 -7.84066406 5.22435547 -9.3359375 5.64453125 C-12 6 -12 6 -15 4 C-13.44219668 3.32243118 -11.87849904 2.65840543 -10.3125 2 C-9.44238281 1.62875 -8.57226562 1.2575 -7.67578125 0.875 C-4.9427998 -0.01870488 -2.85299066 -0.16449676 0 0 Z " fill="#E63426" transform="translate(175,149)"/>
<path d="M0 0 C2.37434053 2.12440995 3.47674304 3.78701068 4.4375 6.8125 C5.77089518 10.65127456 7.72594213 13.62559155 10 17 C11.25 20.375 11.25 20.375 12 23 C7.99892096 19.54861875 6.01803663 15.60377537 3.75 10.9375 C3.38648438 10.21755859 3.02296875 9.49761719 2.6484375 8.75585938 C0 3.39426692 0 3.39426692 0 0 Z " fill="#C96D49" transform="translate(42,145)"/>
<path d="M0 0 C0.66 0.33 1.32 0.66 2 1 C1.67 1.66 1.34 2.32 1 3 C0.34 3 -0.32 3 -1 3 C-1 3.99 -1 4.98 -1 6 C-1.886875 5.95875 -2.77375 5.9175 -3.6875 5.875 C-6.9595278 5.81051279 -6.9595278 5.81051279 -9.625 7.0625 C-12.35352312 8.1395486 -13.27699322 7.82149783 -16 7 C-13.3789879 5.80293183 -10.75385304 4.61711354 -8.125 3.4375 C-7.00544922 2.92413086 -7.00544922 2.92413086 -5.86328125 2.40039062 C-3.93450668 1.54026143 -1.9688967 0.76383202 0 0 Z " fill="#CF9D85" transform="translate(168,194)"/>
<path d="M0 0 C1.48285242 0.95262034 2.96118201 1.91228405 4.4375 2.875 C5.67306641 3.67550781 5.67306641 3.67550781 6.93359375 4.4921875 C9 6 9 6 10 8 C9.38125 8.12375 8.7625 8.2475 8.125 8.375 C5.80879168 8.87197356 5.80879168 8.87197356 4 11 C3.34 10.34 2.68 9.68 2 9 C2.375 5.875 2.375 5.875 3 3 C2.01 2.67 1.02 2.34 0 2 C0 1.34 0 0.68 0 0 Z " fill="#BEA591" transform="translate(179,35)"/>
<path d="M0 0 C1.65 0 3.3 0 5 0 C4.67 0.99 4.34 1.98 4 3 C4.66 3 5.32 3 6 3 C6 2.34 6 1.68 6 1 C6.99 1.33 7.98 1.66 9 2 C6.36 4.31 3.72 6.62 1 9 C0.17189174 5.68756695 -0.09278428 3.34023421 0 0 Z " fill="#C8A794" transform="translate(58,47)"/>
<path d="M0 0 C0.33 0 0.66 0 1 0 C1.125 2.875 1.125 2.875 1 6 C0.34 6.66 -0.32 7.32 -1 8 C-1.75776264 9.68698982 -2.46111782 11.39890633 -3.125 13.125 C-3.47820312 14.03507813 -3.83140625 14.94515625 -4.1953125 15.8828125 C-4.46085938 16.58148438 -4.72640625 17.28015625 -5 18 C-5.99 18 -6.98 18 -8 18 C-7.01267601 16.01653663 -6.01943332 14.03750023 -5 12.0703125 C-2.96918416 8.11974106 -1.28146789 4.27155965 0 0 Z " fill="#D39D83" transform="translate(210,145)"/>
<path d="M0 0 C1.485 0.99 1.485 0.99 3 2 C3.66 1.67 4.32 1.34 5 1 C5 3.31 5 5.62 5 8 C4.34 8 3.68 8 3 8 C3 8.99 3 9.98 3 11 C2.34 11 1.68 11 1 11 C-0.17571451 7.32589215 -0.07366746 3.83070817 0 0 Z " fill="#BBA190" transform="translate(31,130)"/>
<path d="M0 0 C2.475 0.99 2.475 0.99 5 2 C5 2.66 5 3.32 5 4 C5.99 4 6.98 4 8 4 C9.421875 5.6796875 9.421875 5.6796875 10.75 7.875 C11.19859375 8.59429687 11.6471875 9.31359375 12.109375 10.0546875 C12.40328125 10.69664063 12.6971875 11.33859375 13 12 C12.67 12.66 12.34 13.32 12 14 C9.99699451 11.85690336 7.99750256 9.71071503 6 7.5625 C5.42765625 6.95083984 4.8553125 6.33917969 4.265625 5.70898438 C0 1.11328125 0 1.11328125 0 0 Z " fill="#D19F85" transform="translate(187,50)"/>
<path d="M0 0 C0.80566406 0.17144531 1.61132812 0.34289062 2.44140625 0.51953125 C4.4375 1.1875 4.4375 1.1875 5.4375 3.1875 C1.8075 3.1875 -1.8225 3.1875 -5.5625 3.1875 C-5.8925 2.1975 -6.2225 1.2075 -6.5625 0.1875 C-3.9640401 -1.11172995 -2.80288549 -0.62536289 0 0 Z " fill="#D0613C" transform="translate(100.5625,140.8125)"/>
<path d="M0 0 C0 0.99 0 1.98 0 3 C1.32 3.33 2.64 3.66 4 4 C2.00045254 4.04254356 -0.00041636 4.04080783 -2 4 C-2.33 3.67 -2.66 3.34 -3 3 C-5.01964199 2.92755947 -7.04167124 2.91622812 -9.0625 2.9375 C-10.16722656 2.94652344 -11.27195313 2.95554688 -12.41015625 2.96484375 C-13.26480469 2.97644531 -14.11945313 2.98804688 -15 3 C-9.94813947 0.37814833 -5.68917445 -0.13230638 0 0 Z " fill="#B76443" transform="translate(166,139)"/>
<path d="M0 0 C0.33 0.66 0.66 1.32 1 2 C-0.74834756 7.24504268 -3.36990655 10.91327103 -8 14 C-6.6744419 10.37723685 -5.05653045 7.36494652 -2.875 4.1875 C-2.33617187 3.39730469 -1.79734375 2.60710938 -1.2421875 1.79296875 C-0.83226562 1.20128906 -0.42234375 0.60960937 0 0 Z " fill="#C8714C" transform="translate(55,60)"/>
<path d="M0 0 C-1.68673918 4.49797113 -3.81673892 8.72886302 -6 13 C-6.5625 11.0625 -6.5625 11.0625 -7 9 C-6.67 8.67 -6.34 8.34 -6 8 C-5.63239269 5.67182036 -5.29758419 3.3381615 -5 1 C-2 0 -2 0 0 0 Z " fill="#CFA188" transform="translate(50,67)"/>
<path d="M0 0 C1.76462683 3.08809695 2 4.23312136 2 8 C-1.63 7.01 -5.26 6.02 -9 5 C-9 4.67 -9 4.34 -9 4 C-7.88625 3.71125 -6.7725 3.4225 -5.625 3.125 C-1.99708908 2.30758671 -1.99708908 2.30758671 0 0 Z " fill="#CD6944" transform="translate(110,65)"/>
<path d="M0 0 C-0.33 0.99 -0.66 1.98 -1 3 C-3.3125 3.6875 -3.3125 3.6875 -6 4 C-7.8125 2.5625 -7.8125 2.5625 -9 1 C-5.64919071 -1.10976881 -3.77897651 -1.0497157 0 0 Z " fill="#C5A897" transform="translate(166,200)"/>
<path d="M0 0 C0.33 0.99 0.66 1.98 1 3 C1.7425 3.0825 2.485 3.165 3.25 3.25 C6.51221354 4.1396946 7.80954878 5.48503749 10 8 C9.34 8 8.68 8 8 8 C7.67 8.66 7.34 9.32 7 10 C6.46375 9.21625 5.9275 8.4325 5.375 7.625 C2.69757158 4.66573701 0.81566975 3.95391744 -3 3 C-3 2.34 -3 1.68 -3 1 C-2.01 0.67 -1.02 0.34 0 0 Z " fill="#DE5C3A" transform="translate(107,152)"/>
<path d="M0 0 C1.79640787 3.36826475 2 5.18260321 2 9 C1.34 9 0.68 9 0 9 C-0.33 10.32 -0.66 11.64 -1 13 C-1.33 13 -1.66 13 -2 13 C-2.19294408 8.17639811 -1.75747614 4.50353262 0 0 Z " fill="#BB9E8D" transform="translate(34,84)"/>
<path d="M0 0 C0.66 0 1.32 0 2 0 C1.86722656 0.72445312 1.73445313 1.44890625 1.59765625 2.1953125 C0.69718291 7.12491105 -0.19781966 12.05322123 -1 17 C-1.33 17 -1.66 17 -2 17 C-2 13.04 -2 9.08 -2 5 C-1.34 5 -0.68 5 0 5 C0 3.35 0 1.7 0 0 Z " fill="#D09D80" transform="translate(39,85)"/>
<path d="M0 0 C-0.66 0.66 -1.32 1.32 -2 2 C-2.99 2 -3.98 2 -5 2 C-5.33 2.66 -5.66 3.32 -6 4 C-8.64 3.34 -11.28 2.68 -14 2 C-14 1.67 -14 1.34 -14 1 C-9.32798795 -0.20568053 -4.78503708 -0.09382426 0 0 Z " fill="#BA9B8D" transform="translate(122,19)"/>
<path d="M0 0 C1.98 0 3.96 0 6 0 C6.33 1.32 6.66 2.64 7 4 C5.35 4.33 3.7 4.66 2 5 C1.34 3.35 0.68 1.7 0 0 Z " fill="#C3A999" transform="translate(90,201)"/>
<path d="M0 0 C1.45880109 0.14107747 2.91703551 0.28802415 4.375 0.4375 C5.59316406 0.55931641 5.59316406 0.55931641 6.8359375 0.68359375 C9 1 9 1 11 2 C11 2.66 11 3.32 11 4 C3.57142857 3 3.57142857 3 0 2 C0 1.34 0 0.68 0 0 Z " fill="#E73225" transform="translate(98,154)"/>
<path d="M0 0 C0.99 0.33 1.98 0.66 3 1 C1.02 1.99 1.02 1.99 -1 3 C-1 3.66 -1 4.32 -1 5 C-2.98 5.66 -4.96 6.32 -7 7 C-7 6.34 -7 5.68 -7 5 C-6.01 5 -5.02 5 -4 5 C-3.71125 4.360625 -3.4225 3.72125 -3.125 3.0625 C-2 1 -2 1 0 0 Z " fill="#C87049" transform="translate(177,186)"/>
<path d="M0 0 C0.99 0.66 1.98 1.32 3 2 C5.62531524 2.16713569 5.62531524 2.16713569 8 2 C6.66666667 2.66666667 5.33333333 3.33333333 4 4 C2.453125 4.8353125 2.453125 4.8353125 0.875 5.6875 C-0.07375 6.120625 -1.0225 6.55375 -2 7 C-2.66 6.67 -3.32 6.34 -4 6 C-3.34 4.68 -2.68 3.36 -2 2 C-1.34 2 -0.68 2 0 2 C0 1.34 0 0.68 0 0 Z " fill="#CB6944" transform="translate(148,67)"/>
<path d="M0 0 C-0.33 0.99 -0.66 1.98 -1 3 C-2.11375 2.5359375 -2.11375 2.5359375 -3.25 2.0625 C-5.50692176 1.1905075 -7.6450153 0.52332993 -10 0 C-6.22996568 -2.61002376 -4.07631429 -1.66758312 0 0 Z " fill="#D26A46" transform="translate(96,35)"/>
<path d="M0 0 C1.67542976 0.28604898 3.34385343 0.61781233 5 1 C4.67 1.99 4.34 2.98 4 4 C4.66 4.33 5.32 4.66 6 5 C4.68 5 3.36 5 2 5 C1.67 5.66 1.34 6.32 1 7 C0.34 5.02 -0.32 3.04 -1 1 C-0.67 0.67 -0.34 0.34 0 0 Z " fill="#C6AC9B" transform="translate(49,170)"/>
<path d="M0 0 C2.31 0 4.62 0 7 0 C5.02 0.99 5.02 0.99 3 2 C3 2.66 3 3.32 3 4 C0.69 4 -1.62 4 -4 4 C-3.34 3.525625 -2.68 3.05125 -2 2.5625 C-1.34 2.046875 -0.68 1.53125 0 1 C0 0.67 0 0.34 0 0 Z " fill="#B96A4A" transform="translate(91,139)"/>
<path d="M0 0 C1.79093191 -0.08086147 3.58289628 -0.13912702 5.375 -0.1875 C6.87160156 -0.23970703 6.87160156 -0.23970703 8.3984375 -0.29296875 C9.25695312 -0.19628906 10.11546875 -0.09960938 11 0 C11.66 0.99 12.32 1.98 13 3 C11.39504433 2.88557539 9.79101881 2.75805306 8.1875 2.625 C7.29417969 2.55539063 6.40085937 2.48578125 5.48046875 2.4140625 C3 2 3 2 0 0 Z " fill="#AA8F7A" transform="translate(98,208)"/>
<path d="M0 0 C2.475 0.495 2.475 0.495 5 1 C5.33 1.99 5.66 2.98 6 4 C6.99 4.66 7.98 5.32 9 6 C5 6 5 6 3.515625 4.6875 C2.34375 3.125 1.171875 1.5625 0 0 Z " fill="#CD7350" transform="translate(64,180)"/>
<path d="M0 0 C0.66 0.33 1.32 0.66 2 1 C-1.75 7.875 -1.75 7.875 -4 9 C-4 7.68 -4 6.36 -4 5 C-3.34 5 -2.68 5 -2 5 C-1.7834375 4.0409375 -1.7834375 4.0409375 -1.5625 3.0625 C-1 1 -1 1 0 0 Z " fill="#CA6D45" transform="translate(201,160)"/>
<path d="M0 0 C0.556875 0.28875 1.11375 0.5775 1.6875 0.875 C4.08494645 2.0413253 6.51596939 3.0339881 9 4 C5.67465243 5.10844919 3.37817425 4.84454356 0 4 C0 2.68 0 1.36 0 0 Z " fill="#D16B4A" transform="translate(166,36)"/>
<path d="M0 0 C0.99 1.32 1.98 2.64 3 4 C2.01 4.33 1.02 4.66 0 5 C-2.1875 3.5625 -2.1875 3.5625 -4 2 C-2.68 1.34 -1.36 0.68 0 0 Z " fill="#B99D85" transform="translate(89,201)"/>
<path d="M0 0 C1.98 1.65 3.96 3.3 6 5 C5.67 5.66 5.34 6.32 5 7 C3.68 6.67 2.36 6.34 1 6 C0.67 4.02 0.34 2.04 0 0 Z " fill="#CAA38C" transform="translate(63,180)"/>
<path d="M0 0 C0.66 0.33 1.32 0.66 2 1 C0.02 3.31 -1.96 5.62 -4 8 C-4.66 7.01 -5.32 6.02 -6 5 C-4.02 3.35 -2.04 1.7 0 0 Z " fill="#B99D8E" transform="translate(201,174)"/>
<path d="M0 0 C0.66 0.33 1.32 0.66 2 1 C1.67 1.99 1.34 2.98 1 4 C-0.98 4.33 -2.96 4.66 -5 5 C-3.35 3.35 -1.7 1.7 0 0 Z " fill="#D74326" transform="translate(147,157)"/>
<path d="M0 0 C1.65 0 3.3 0 5 0 C5 0.99 5 1.98 5 3 C3.02 3 1.04 3 -1 3 C-0.67 2.01 -0.34 1.02 0 0 Z " fill="#CA5833" transform="translate(158,141)"/>
<path d="M0 0 C0.99 0.33 1.98 0.66 3 1 C0.69 2.65 -1.62 4.3 -4 6 C-3.67 4.35 -3.34 2.7 -3 1 C-2.01 1.33 -1.02 1.66 0 2 C0 1.34 0 0.68 0 0 Z " fill="#D09F82" transform="translate(64,48)"/>
<path d="M0 0 C-2.96687001 1.64826111 -5.65626525 2.44271087 -9 3 C-9 2.34 -9 1.68 -9 1 C-3.375 -1.125 -3.375 -1.125 0 0 Z " fill="#BA9E8F" transform="translate(99,24)"/>
</svg>
