<?xml version="1.0" encoding="UTF-8"?>
<svg version="1.1" xmlns="http://www.w3.org/2000/svg" width="225" height="209">
<path d="M0 0 C5.23481848 3.338351 10.05750069 7.14945945 14.79931641 11.14746094 C15.45158203 11.69660156 16.10384766 12.24574219 16.77587891 12.81152344 C33.64779586 28.40405332 44.67457505 52.53691166 45.921875 75.39331055 C46.83411109 101.9780817 39.91565361 126.94694335 21.79931641 147.14746094 C20.99880859 148.04207031 20.19830078 148.93667969 19.37353516 149.85839844 C8.23599437 161.63944158 -5.03714655 169.59797761 -20.20068359 175.14746094 C-21.93898437 175.79908203 -21.93898437 175.79908203 -23.71240234 176.46386719 C-41.28218111 181.91524719 -64.04396939 181.73286639 -81.20068359 175.14746094 C-82.28349609 174.79683594 -83.36630859 174.44621094 -84.48193359 174.08496094 C-109.33726608 165.56313266 -128.09772464 145.96208887 -139.45068359 122.77246094 C-149.47926898 100.25596406 -150.71336877 72.47812427 -142.19970703 49.24365234 C-133.7017539 27.58882915 -118.65036428 9.27228723 -98.20068359 -1.85253906 C-97.26998047 -2.39523438 -96.33927734 -2.93792969 -95.38037109 -3.49707031 C-87.1067345 -8.04872276 -78.33104694 -10.20716558 -69.20849609 -12.37524414 C-67.86462639 -12.69470733 -66.52614205 -13.03769124 -65.1940918 -13.40332031 C-43.85856959 -18.21132532 -18.28344107 -11.03404438 0 0 Z M-61.20068359 26.14746094 C-62.86386139 27.63054942 -64.53065143 29.1095951 -66.20068359 30.58496094 C-70.01974007 34.02444758 -73.66687412 37.58700392 -77.27099609 41.24902344 C-79.81047756 43.74737969 -82.49993493 46.04525505 -85.20068359 48.36621094 C-87.98953892 50.85003522 -90.57755343 53.51457531 -93.19677734 56.17480469 C-95.7784729 58.71623988 -98.50656337 61.05888106 -101.25146484 63.42089844 C-103.83045457 65.70529414 -106.2543216 68.11783586 -108.65380859 70.58886719 C-110.20068359 72.14746094 -110.20068359 72.14746094 -112.70068359 74.27246094 C-114.46453937 76.08910598 -114.46453937 76.08910598 -114.26318359 78.77246094 C-113.40513577 81.39809151 -113.40513577 81.39809151 -110.63427734 82.29589844 C-109.83119141 82.57691406 -109.02810547 82.85792969 -108.20068359 83.14746094 C-107.69730469 82.63884521 -107.19392578 82.13022949 -106.67529297 81.60620117 C-104.35316381 79.26305366 -102.02695589 76.92399492 -99.70068359 74.58496094 C-98.90919922 73.78509766 -98.11771484 72.98523438 -97.30224609 72.16113281 C-93.05793602 67.89942802 -88.73999987 63.82460039 -84.17919922 59.90551758 C-80.52131395 56.6552175 -77.12805888 53.13726564 -73.70068359 49.64746094 C-68.92605465 44.78586243 -64.11363752 40.08208481 -58.91430664 35.67285156 C-57.31291836 34.24736731 -55.9303426 32.75201968 -54.51318359 31.14746094 C-52.20068359 29.14746094 -52.20068359 29.14746094 -49.81518555 29.28564453 C-46.700664 30.31228204 -45.32090044 31.58040921 -43.05615234 33.93652344 C-42.29625 34.71382812 -41.53634766 35.49113281 -40.75341797 36.29199219 C-39.97289063 37.11054687 -39.19236328 37.92910156 -38.38818359 38.77246094 C-32.07240969 45.3509439 -32.07240969 45.3509439 -25.35302734 51.50683594 C-19.78685937 56.2734935 -14.71888703 61.56006642 -9.57568359 66.77246094 C-7.56567284 68.80932298 -5.55218573 70.84265869 -3.53662109 72.87402344 C-2.65538574 73.76686035 -1.77415039 74.65969727 -0.86621094 75.57958984 C1.92069981 78.26439725 4.79944615 80.70570608 7.79931641 83.14746094 C10.32295629 82.52212719 10.32295629 82.52212719 12.79931641 81.14746094 C14.08073153 78.96939076 14.08073153 78.96939076 13.79931641 76.14746094 C11.9826462 73.51965607 9.69618168 71.43879392 7.36181641 69.27246094 C6.7145459 68.64968262 6.06727539 68.0269043 5.40039062 67.38525391 C1.56201993 63.71615238 -2.35908859 60.14949245 -6.41162109 56.71777344 C-9.14708114 54.31678012 -11.65589688 51.70072683 -14.20849609 49.10839844 C-16.10395433 47.24267288 -18.05515094 45.50086839 -20.07568359 43.77246094 C-23.26750868 41.03124645 -26.24371336 38.14060206 -29.20068359 35.14746094 C-33.37254415 30.93074166 -37.67704968 26.97984293 -42.20068359 23.14746094 C-43.06693359 22.34308594 -43.93318359 21.53871094 -44.82568359 20.70996094 C-47.14355168 18.99475159 -47.14355168 18.99475159 -50.01318359 18.45996094 C-54.96012785 19.52694891 -57.62979774 22.70320225 -61.20068359 26.14746094 Z M-76.82568359 62.27246094 C-77.42834927 62.83227032 -78.03101494 63.3920797 -78.65194321 63.968853 C-93.19701211 77.59556711 -104.7378802 89.44904771 -105.85095215 110.24328613 C-105.93972731 121.61662091 -105.48945439 134.17517652 -102.20068359 145.14746094 C-100.27551904 147.51105527 -100.27551904 147.51105527 -96.85253906 147.37451172 C-95.42427731 147.37401145 -93.99599028 147.36295943 -92.56787109 147.34277344 C-91.90150635 147.34075928 -91.2351416 147.33874512 -90.54858398 147.33666992 C-88.05754724 147.32619981 -85.56660856 147.29827718 -83.07568359 147.27246094 C-77.50693359 147.23121094 -71.93818359 147.18996094 -66.20068359 147.14746094 C-65.87068359 134.27746094 -65.54068359 121.40746094 -65.20068359 108.14746094 C-60.98110716 106.03767272 -55.399139 106.96253218 -50.76318359 106.95996094 C-49.60496094 106.94771484 -48.44673828 106.93546875 -47.25341797 106.92285156 C-45.58956055 106.91995117 -45.58956055 106.91995117 -43.89208984 106.91699219 C-42.8731665 106.9128833 -41.85424316 106.90877441 -40.80444336 106.90454102 C-38.20068359 107.14746094 -38.20068359 107.14746094 -35.20068359 109.14746094 C-34.86304771 112.12041068 -34.71155322 114.89488595 -34.68896484 117.87402344 C-34.67101364 118.73683929 -34.65306244 119.59965515 -34.63456726 120.48861694 C-34.58029839 123.24984825 -34.54651602 126.01090512 -34.51318359 128.77246094 C-34.48002509 130.64227697 -34.44553682 132.51206993 -34.40966797 134.38183594 C-34.32456264 138.97025203 -34.25783105 143.5586149 -34.20068359 148.14746094 C-29.53741977 148.02934113 -24.8743748 147.90510227 -20.21142578 147.77514648 C-18.62455703 147.73178853 -17.03764136 147.69011407 -15.45068359 147.65014648 C-13.1718938 147.59246462 -10.89334038 147.52876456 -8.61474609 147.46386719 C-7.90323395 147.44715469 -7.1917218 147.4304422 -6.45864868 147.41322327 C-2.70407543 147.35024156 -2.70407543 147.35024156 0.79931641 146.14746094 C1.76607623 143.24718147 1.95864859 141.27619096 2.02392578 138.25219727 C2.04644409 137.25718704 2.0689624 136.26217682 2.09216309 135.23701477 C2.16334511 130.68177088 2.22069395 126.12668627 2.25927734 121.57104492 C2.28587305 119.17240418 2.32678513 116.77387757 2.38232422 114.37573242 C2.4616208 110.90985074 2.4946154 107.44614915 2.51806641 103.97949219 C2.56755432 102.38220024 2.56755432 102.38220024 2.61804199 100.75263977 C2.60422908 95.57967969 2.32032258 92.07297133 -1.10571289 88.05834961 C-2.44978886 86.7331673 -3.81682098 85.43103899 -5.20068359 84.14746094 C-6.80494158 82.50186524 -8.40535896 80.85251993 -10.00268555 79.20019531 C-11.81195077 77.3777221 -13.62418147 75.55818935 -15.43896484 73.74121094 C-16.41073065 72.76622459 -17.38242429 71.79116631 -18.35404968 70.81604004 C-20.37351624 68.79063494 -22.39498831 66.76725659 -24.41772461 64.74511719 C-27.01317176 62.14977265 -29.60161232 59.54755527 -32.18844318 56.9436264 C-34.18469188 54.93629777 -36.18542974 52.93349143 -38.18749046 50.93196106 C-39.14481398 49.97345617 -40.10051333 49.01332629 -41.05455971 48.05155945 C-42.38019454 46.71618418 -43.71275318 45.38769283 -45.0456543 44.05957031 C-45.80175491 43.30204468 -46.55785553 42.54451904 -47.33686829 41.76403809 C-53.15415408 36.71842479 -71.91795644 57.7041763 -76.82568359 62.27246094 Z " fill="#D5663B" transform="translate(161.20068359375,22.8525390625)"/>
<path d="M0 0 C5.23481848 3.338351 10.05750069 7.14945945 14.79931641 11.14746094 C15.45158203 11.69660156 16.10384766 12.24574219 16.77587891 12.81152344 C33.64779586 28.40405332 44.67457505 52.53691166 45.921875 75.39331055 C46.83411109 101.9780817 39.91565361 126.94694335 21.79931641 147.14746094 C20.99880859 148.04207031 20.19830078 148.93667969 19.37353516 149.85839844 C8.23599437 161.63944158 -5.03714655 169.59797761 -20.20068359 175.14746094 C-21.93898437 175.79908203 -21.93898437 175.79908203 -23.71240234 176.46386719 C-41.28218111 181.91524719 -64.04396939 181.73286639 -81.20068359 175.14746094 C-82.28349609 174.79683594 -83.36630859 174.44621094 -84.48193359 174.08496094 C-109.33726608 165.56313266 -128.09772464 145.96208887 -139.45068359 122.77246094 C-149.47926898 100.25596406 -150.71336877 72.47812427 -142.19970703 49.24365234 C-133.7017539 27.58882915 -118.65036428 9.27228723 -98.20068359 -1.85253906 C-97.26998047 -2.39523438 -96.33927734 -2.93792969 -95.38037109 -3.49707031 C-87.1067345 -8.04872276 -78.33104694 -10.20716558 -69.20849609 -12.37524414 C-67.86462639 -12.69470733 -66.52614205 -13.03769124 -65.1940918 -13.40332031 C-43.85856959 -18.21132532 -18.28344107 -11.03404438 0 0 Z M-98.20068359 6.14746094 C-99.05919922 6.68757813 -99.91771484 7.22769531 -100.80224609 7.78417969 C-105.52225423 10.79140895 -110.35723251 14.04448421 -114.20068359 18.14746094 C-114.20068359 18.80746094 -114.20068359 19.46746094 -114.20068359 20.14746094 C-115.04953125 20.46457031 -115.04953125 20.46457031 -115.91552734 20.78808594 C-119.02666563 22.63881435 -120.62479963 24.98839037 -122.76318359 27.89746094 C-123.52759766 28.92355469 -124.29201172 29.94964844 -125.07958984 31.00683594 C-127.08907198 33.98220176 -128.66752375 36.90653139 -130.20068359 40.14746094 C-130.68408203 41.08203125 -131.16748047 42.01660156 -131.66552734 42.97949219 C-142.37557038 64.65525568 -143.31890525 89.12632267 -136.20068359 112.14746094 C-135.24801908 114.50051741 -134.2521888 116.83688066 -133.20068359 119.14746094 C-132.82427734 119.97890625 -132.44787109 120.81035156 -132.06005859 121.66699219 C-125.02989977 136.19763736 -113.01739863 153.53869674 -97.20068359 159.14746094 C-98.19068359 157.16746094 -98.19068359 157.16746094 -99.20068359 155.14746094 C-99.86068359 155.14746094 -100.52068359 155.14746094 -101.20068359 155.14746094 C-101.53068359 154.15746094 -101.86068359 153.16746094 -102.20068359 152.14746094 C-103.19068359 152.14746094 -104.18068359 152.14746094 -105.20068359 152.14746094 C-105.20068359 151.48746094 -105.20068359 150.82746094 -105.20068359 150.14746094 C-106.19068359 150.14746094 -107.18068359 150.14746094 -108.20068359 150.14746094 C-108.20068359 149.15746094 -108.20068359 148.16746094 -108.20068359 147.14746094 C-106.88390625 147.39109375 -106.88390625 147.39109375 -105.54052734 147.63964844 C-99.64848178 148.47819452 -93.70114013 148.29170877 -87.76318359 148.27246094 C-85.97944336 148.27826172 -85.97944336 148.27826172 -84.15966797 148.28417969 C-82.99886719 148.28289062 -81.83806641 148.28160156 -80.64208984 148.28027344 C-79.07503296 148.27858154 -79.07503296 148.27858154 -77.47631836 148.27685547 C-73.70191036 148.12775834 -69.9488661 147.61598375 -66.20068359 147.14746094 C-65.87068359 134.27746094 -65.54068359 121.40746094 -65.20068359 108.14746094 C-60.98110716 106.03767272 -55.399139 106.96253218 -50.76318359 106.95996094 C-49.60496094 106.94771484 -48.44673828 106.93546875 -47.25341797 106.92285156 C-45.58956055 106.91995117 -45.58956055 106.91995117 -43.89208984 106.91699219 C-42.8731665 106.9128833 -41.85424316 106.90877441 -40.80444336 106.90454102 C-38.20068359 107.14746094 -38.20068359 107.14746094 -35.20068359 109.14746094 C-34.86304771 112.12041068 -34.71155322 114.89488595 -34.68896484 117.87402344 C-34.67101364 118.73683929 -34.65306244 119.59965515 -34.63456726 120.48861694 C-34.58029839 123.24984825 -34.54651602 126.01090512 -34.51318359 128.77246094 C-34.48002509 130.64227697 -34.44553682 132.51206993 -34.40966797 134.38183594 C-34.32456264 138.97025203 -34.25783105 143.5586149 -34.20068359 148.14746094 C-29.53741977 148.02934113 -24.8743748 147.90510227 -20.21142578 147.77514648 C-18.62455703 147.73178853 -17.03764136 147.69011407 -15.45068359 147.65014648 C-13.1718938 147.59246462 -10.89334038 147.52876456 -8.61474609 147.46386719 C-7.54747787 147.43879845 -7.54747787 147.43879845 -6.45864868 147.41322327 C-2.70407543 147.35024156 -2.70407543 147.35024156 0.79931641 146.14746094 C1.76607623 143.24718147 1.95864859 141.27619096 2.02392578 138.25219727 C2.04644409 137.25718704 2.0689624 136.26217682 2.09216309 135.23701477 C2.16334511 130.68177088 2.22069395 126.12668627 2.25927734 121.57104492 C2.28587305 119.17240418 2.32678513 116.77387757 2.38232422 114.37573242 C2.4616208 110.90985074 2.4946154 107.44614915 2.51806641 103.97949219 C2.56755432 102.38220024 2.56755432 102.38220024 2.61804199 100.75263977 C2.60423684 95.58258382 2.32048841 92.07267171 -1.10131836 88.05834961 C-2.44612789 86.73240209 -3.81472911 85.43034038 -5.20068359 84.14746094 C-6.81496327 82.50134119 -8.42599631 80.85203368 -10.03442383 79.20019531 C-11.85681024 77.37796525 -13.68188526 75.5584211 -15.50927734 73.74121094 C-16.4859837 72.76637449 -17.46246593 71.79131345 -18.43873596 70.81604004 C-20.9829582 68.27559793 -23.53017095 65.73817585 -26.07806396 63.20141602 C-28.68784242 60.60194967 -31.29471842 57.999576 -33.90185547 55.39746094 C-38.99866231 50.31131176 -44.09863868 45.22835624 -49.20068359 40.14746094 C-52.94253113 41.70725083 -55.30971137 44.01478267 -58.15283203 46.87255859 C-58.63134109 47.3507756 -59.10985016 47.82899261 -59.6028595 48.32170105 C-61.17671554 49.89694577 -62.74337652 51.47914629 -64.31005859 53.06152344 C-65.40249645 54.15769307 -66.49537794 55.25342075 -67.58868408 56.34872437 C-70.46019602 59.22785982 -73.32565014 62.1129515 -76.18988037 64.99932861 C-79.11562485 67.94555909 -82.04706374 70.88611163 -84.97802734 73.82714844 C-90.72449841 79.59504682 -96.46458165 85.36925058 -102.20068359 91.14746094 C-102.86068359 90.15746094 -103.52068359 89.16746094 -104.20068359 88.14746094 C-102.88068359 88.14746094 -101.56068359 88.14746094 -100.20068359 88.14746094 C-100.20068359 87.48746094 -100.20068359 86.82746094 -100.20068359 86.14746094 C-99.21068359 85.81746094 -98.22068359 85.48746094 -97.20068359 85.14746094 C-97.20068359 84.48746094 -97.20068359 83.82746094 -97.20068359 83.14746094 C-98.19068359 83.14746094 -99.18068359 83.14746094 -100.20068359 83.14746094 C-100.20068359 81.82746094 -100.20068359 80.50746094 -100.20068359 79.14746094 C-101.52068359 79.14746094 -102.84068359 79.14746094 -104.20068359 79.14746094 C-102.03725174 76.95668234 -99.87006396 74.76983687 -97.70068359 72.58496094 C-97.09998047 71.97587891 -96.49927734 71.36679688 -95.88037109 70.73925781 C-92.76707834 67.609405 -89.61026009 64.59350714 -86.26318359 61.71386719 C-81.85224242 57.906703 -77.78154304 53.80265298 -73.70068359 49.64746094 C-68.92605465 44.78586243 -64.11363752 40.08208481 -58.91430664 35.67285156 C-57.31291836 34.24736731 -55.9303426 32.75201968 -54.51318359 31.14746094 C-52.20068359 29.14746094 -52.20068359 29.14746094 -49.81518555 29.28564453 C-46.700664 30.31228204 -45.32090044 31.58040921 -43.05615234 33.93652344 C-42.29625 34.71382812 -41.53634766 35.49113281 -40.75341797 36.29199219 C-39.97289063 37.11054687 -39.19236328 37.92910156 -38.38818359 38.77246094 C-32.07240969 45.3509439 -32.07240969 45.3509439 -25.35302734 51.50683594 C-19.78685937 56.2734935 -14.71888703 61.56006642 -9.57568359 66.77246094 C-7.56567284 68.80932298 -5.55218573 70.84265869 -3.53662109 72.87402344 C-2.65538574 73.76686035 -1.77415039 74.65969727 -0.86621094 75.57958984 C1.92069981 78.26439725 4.79944615 80.70570608 7.79931641 83.14746094 C10.27431641 82.15746094 10.27431641 82.15746094 12.79931641 81.14746094 C10.74697956 83.39525844 9.7926438 84.14968514 6.79931641 85.14746094 C5.64410138 87.61877011 5.64410138 87.61877011 4.79931641 90.14746094 C4.46931641 90.47746094 4.13931641 90.80746094 3.79931641 91.14746094 C3.70597935 92.74357075 3.68186268 94.34379522 3.68579102 95.94262695 C3.68586655 96.96360977 3.68594208 97.98459259 3.6860199 99.03651428 C3.69118118 100.14691574 3.69634247 101.2573172 3.70166016 102.40136719 C3.7030751 103.53195053 3.70449005 104.66253387 3.70594788 105.82737732 C3.71156622 109.45493159 3.72412183 113.08242518 3.73681641 116.70996094 C3.74182904 119.16243401 3.74639236 121.61490804 3.75048828 124.06738281 C3.7615416 130.09409639 3.77829757 136.12077433 3.79931641 142.14746094 C4.45931641 142.47746094 5.11931641 142.80746094 5.79931641 143.14746094 C5.46931641 144.46746094 5.13931641 145.78746094 4.79931641 147.14746094 C3.14931641 147.14746094 1.49931641 147.14746094 -0.20068359 147.14746094 C0.12931641 149.78746094 0.45931641 152.42746094 0.79931641 155.14746094 C7.42668018 151.44393413 12.10351556 146.98548361 16.79931641 141.14746094 C17.27369141 140.6846875 17.74806641 140.22191406 18.23681641 139.74511719 C33.06277464 124.5855749 39.08210459 101.86155663 39.11621094 81.24047852 C38.85707604 63.457746 33.38501942 45.50095655 22.79931641 31.14746094 C22.04431023 29.96313753 21.29370671 28.77598542 20.54931641 27.58496094 C19.97181641 26.78058594 19.39431641 25.97621094 18.79931641 25.14746094 C18.13931641 25.14746094 17.47931641 25.14746094 16.79931641 25.14746094 C16.39712891 24.25027344 16.39712891 24.25027344 15.98681641 23.33496094 C14.80014234 21.1489824 13.70332528 19.734135 11.79931641 18.14746094 C11.13931641 18.14746094 10.47931641 18.14746094 9.79931641 18.14746094 C9.46931641 17.15746094 9.13931641 16.16746094 8.79931641 15.14746094 C-21.08046631 -9.09462693 -65.197748 -16.28214811 -98.20068359 6.14746094 Z " fill="#D4663C" transform="translate(161.20068359375,22.8525390625)"/>
<path d="M0 0 C5.23481848 3.338351 10.05750069 7.14945945 14.79931641 11.14746094 C15.45158203 11.69660156 16.10384766 12.24574219 16.77587891 12.81152344 C33.64779586 28.40405332 44.67457505 52.53691166 45.921875 75.39331055 C46.83411109 101.9780817 39.91565361 126.94694335 21.79931641 147.14746094 C20.99880859 148.04207031 20.19830078 148.93667969 19.37353516 149.85839844 C8.23599437 161.63944158 -5.03714655 169.59797761 -20.20068359 175.14746094 C-21.93898437 175.79908203 -21.93898437 175.79908203 -23.71240234 176.46386719 C-41.28218111 181.91524719 -64.04396939 181.73286639 -81.20068359 175.14746094 C-82.28349609 174.79683594 -83.36630859 174.44621094 -84.48193359 174.08496094 C-109.33726608 165.56313266 -128.09772464 145.96208887 -139.45068359 122.77246094 C-149.47926898 100.25596406 -150.71336877 72.47812427 -142.19970703 49.24365234 C-133.7017539 27.58882915 -118.65036428 9.27228723 -98.20068359 -1.85253906 C-97.26998047 -2.39523438 -96.33927734 -2.93792969 -95.38037109 -3.49707031 C-87.1067345 -8.04872276 -78.33104694 -10.20716558 -69.20849609 -12.37524414 C-67.86462639 -12.69470733 -66.52614205 -13.03769124 -65.1940918 -13.40332031 C-43.85856959 -18.21132532 -18.28344107 -11.03404438 0 0 Z M-98.20068359 6.14746094 C-99.05919922 6.68757813 -99.91771484 7.22769531 -100.80224609 7.78417969 C-105.52225423 10.79140895 -110.35723251 14.04448421 -114.20068359 18.14746094 C-114.20068359 18.80746094 -114.20068359 19.46746094 -114.20068359 20.14746094 C-115.04953125 20.46457031 -115.04953125 20.46457031 -115.91552734 20.78808594 C-119.02666563 22.63881435 -120.62479963 24.98839037 -122.76318359 27.89746094 C-123.52759766 28.92355469 -124.29201172 29.94964844 -125.07958984 31.00683594 C-127.08907198 33.98220176 -128.66752375 36.90653139 -130.20068359 40.14746094 C-130.68408203 41.08203125 -131.16748047 42.01660156 -131.66552734 42.97949219 C-142.37557038 64.65525568 -143.31890525 89.12632267 -136.20068359 112.14746094 C-135.24801908 114.50051741 -134.2521888 116.83688066 -133.20068359 119.14746094 C-132.82427734 119.97890625 -132.44787109 120.81035156 -132.06005859 121.66699219 C-120.78493689 144.97155712 -101.72379649 160.65169474 -77.49755859 169.08886719 C-54.60536546 176.3567874 -29.43430658 172.44656611 -8.20068359 162.14746094 C-3.90337811 159.80825489 -0.10403255 156.90884285 3.73681641 153.89746094 C4.35854736 153.41019531 4.98027832 152.92292969 5.62084961 152.42089844 C9.9047002 149.00240941 13.44309415 145.501479 16.79931641 141.14746094 C17.27369141 140.68210938 17.74806641 140.21675781 18.23681641 139.73730469 C33.08408517 124.63020872 39.08216228 101.82667658 39.11621094 81.24047852 C38.85707604 63.457746 33.38501942 45.50095655 22.79931641 31.14746094 C22.04431023 29.96313753 21.29370671 28.77598542 20.54931641 27.58496094 C19.97181641 26.78058594 19.39431641 25.97621094 18.79931641 25.14746094 C18.13931641 25.14746094 17.47931641 25.14746094 16.79931641 25.14746094 C16.39712891 24.25027344 16.39712891 24.25027344 15.98681641 23.33496094 C14.80014234 21.1489824 13.70332528 19.734135 11.79931641 18.14746094 C11.13931641 18.14746094 10.47931641 18.14746094 9.79931641 18.14746094 C9.46931641 17.15746094 9.13931641 16.16746094 8.79931641 15.14746094 C-21.08046631 -9.09462693 -65.197748 -16.28214811 -98.20068359 6.14746094 Z " fill="#C3A591" transform="translate(161.20068359375,22.8525390625)"/>
<path d="M0 0 C0.66 0 1.32 0 2 0 C2.66193086 1.15760932 3.30354146 2.3268383 3.9375 3.5 C4.29714844 4.1496875 4.65679687 4.799375 5.02734375 5.46875 C7.51693376 11.94768305 7.15610896 19.15602796 7.125 26 C7.12886719 26.85078125 7.13273438 27.7015625 7.13671875 28.578125 C7.12870611 33.8023643 6.91071617 38.84894292 6 44 C3.81734379 45.68979836 2.72785349 46 0 46 C-0.66 48.64 -1.32 51.28 -2 54 C-2.66 54 -3.32 54 -4 54 C-4.33 55.32 -4.66 56.64 -5 58 C-6.57743761 54.84512478 -5.13344063 52.54655764 -4.125 49.25 C-1.90123459 41.94112069 -0.85083744 35.43205276 -0.9375 27.79296875 C-0.94317993 26.64396843 -0.94317993 26.64396843 -0.94897461 25.47175598 C-0.9611199 23.04361144 -0.97976793 20.61558979 -1 18.1875 C-1.02649854 14.97265985 -1.04650766 11.7578763 -1.0625 8.54296875 C-1.07079834 7.80137009 -1.07909668 7.05977142 -1.08764648 6.29570007 C-1.09620633 4.53024572 -1.05333341 2.76466935 -1 1 C-0.67 0.67 -0.34 0.34 0 0 Z " fill="#C7A793" transform="translate(200,80)"/>
<path d="M0 0 C3.91652632 -0.08714316 7.83280311 -0.14043985 11.75 -0.1875 C12.86117187 -0.21263672 13.97234375 -0.23777344 15.1171875 -0.26367188 C16.18710938 -0.27333984 17.25703125 -0.28300781 18.359375 -0.29296875 C19.34389648 -0.3086792 20.32841797 -0.32438965 21.34277344 -0.34057617 C24.64130487 0.08219591 25.86719974 0.40999458 28 3 C28.61864521 6.00746003 28.60499733 8.98066297 28.609375 12.04296875 C28.63417938 13.36836418 28.63417938 13.36836418 28.65948486 14.72053528 C28.70807285 17.54292678 28.72935941 20.36477912 28.75 23.1875 C28.7781507 25.10093874 28.80807686 27.01435225 28.83984375 28.92773438 C28.91383455 33.61844521 28.96334302 38.30885483 29 43 C27.515 42.505 27.515 42.505 26 42 C25.97494385 40.88963379 25.9498877 39.77926758 25.92407227 38.63525391 C25.83005085 34.52396681 25.72981743 30.41285077 25.62768555 26.30175781 C25.5843167 24.52087397 25.54264306 22.73994802 25.50268555 20.95898438 C25.4450301 18.40221452 25.3813223 15.84565702 25.31640625 13.2890625 C25.29969376 12.49005524 25.28298126 11.69104797 25.26576233 10.86782837 C25.24607009 6.80193632 25.24607009 6.80193632 24 3 C16.08 2.67 8.16 2.34 0 2 C0 1.34 0 0.68 0 0 Z " fill="#B9603E" transform="translate(99,129)"/>
<path d="M0 0 C1.64630328 0.14042877 3.29204179 0.28749329 4.9375 0.4375 C6.31228516 0.55931641 6.31228516 0.55931641 7.71484375 0.68359375 C10 1 10 1 11 2 C12.34983748 2.12185143 13.70574701 2.17766831 15.06079102 2.20532227 C16.35201622 2.2352401 16.35201622 2.2352401 17.66932678 2.26576233 C18.60473801 2.28247482 19.54014923 2.29918732 20.50390625 2.31640625 C21.93342873 2.3475779 21.93342873 2.3475779 23.39183044 2.37937927 C26.4486441 2.44498177 29.50554656 2.50380918 32.5625 2.5625 C34.62956663 2.60567506 36.69662414 2.64928901 38.76367188 2.69335938 C43.84235595 2.80067401 48.9211297 2.90191091 54 3 C53.67 3.66 53.34 4.32 53 5 C46.76472595 6.76545999 40.05301926 6.28718104 33.625 6.3125 C32.95036713 6.31578308 32.27573425 6.31906616 31.58065796 6.32244873 C20.62256504 6.3397681 9.42839489 6.28559659 0 0 Z " fill="#BD8665" transform="translate(77,196)"/>
<path d="M0 0 C0.65484375 0.19335938 1.3096875 0.38671875 1.984375 0.5859375 C21.5375176 6.16465898 40.21994461 6.45455156 60 2 C61.9976862 1.65306925 63.99702619 1.31497145 66 1 C65.34 1.33 64.68 1.66 64 2 C64 2.66 64 3.32 64 4 C63.34 4 62.68 4 62 4 C61.67 4.99 61.34 5.98 61 7 C60.34 7 59.68 7 59 7 C58.67 8.32 58.34 9.64 58 11 C56.0625 10.6875 56.0625 10.6875 54 10 C53.505 8.515 53.505 8.515 53 7 C53.99 6.67 54.98 6.34 56 6 C54.17662109 6.23783203 54.17662109 6.23783203 52.31640625 6.48046875 C35.40627438 8.34028595 15.42030011 9.41107279 0 1 C0 0.67 0 0.34 0 0 Z " fill="#CFA186" transform="translate(76,189)"/>
<path d="M0 0 C1 3 1 3 1 5 C0.34 5 -0.32 5 -1 5 C-1.020625 5.70125 -1.04125 6.4025 -1.0625 7.125 C-2.46891367 11.43800193 -5.10729612 13.7489705 -9 16 C-12.01495351 16.73582067 -14.90152711 16.98594797 -18 17 C-18 15 -18 15 -16.6875 13.375 C-15 12 -15 12 -12 12 C-11.79375 11.443125 -11.5875 10.88625 -11.375 10.3125 C-10.03153247 8.05303189 -8.94842298 7.0001344 -6.9375 5.375 C-3.99175287 3.32880603 -3.99175287 3.32880603 -3 1 C-2.01 0.67 -1.02 0.34 0 0 Z " fill="#C4A897" transform="translate(177,168)"/>
<path d="M0 0 C0 0.99 0 1.98 0 3 C0.99 3.66 1.98 4.32 3 5 C2.01 5.495 2.01 5.495 1 6 C1 6.99 1 7.98 1 9 C2.32 8.67 3.64 8.34 5 8 C1.6189962 12.13621084 -1.66590534 15.81316569 -6 19 C-6 18.01 -6 17.02 -6 16 C-5.34 16 -4.68 16 -4 16 C-4 13.69 -4 11.38 -4 9 C-7.62613199 9.56959153 -9.25517741 10.92374534 -11.75 13.5625 C-12.36359375 14.20316406 -12.9771875 14.84382813 -13.609375 15.50390625 C-14.29773438 16.24447266 -14.29773438 16.24447266 -15 17 C-15.66 16.67 -16.32 16.34 -17 16 C-5.47835991 4.29384966 -5.47835991 4.29384966 0 0 Z " fill="#C76744" transform="translate(102,58)"/>
<path d="M0 0 C4.43698984 1.39448252 7.09989671 3.35415587 10 7 C10.3125 10.3125 10.3125 10.3125 10 13 C8.68 13.33 7.36 13.66 6 14 C5.67 13.01 5.34 12.02 5 11 C4.01 11 3.02 11 2 11 C0.61328125 9.5390625 0.61328125 9.5390625 -0.6875 7.625 C-1.34298828 6.68527344 -1.34298828 6.68527344 -2.01171875 5.7265625 C-3 4 -3 4 -3 2 C-2.01 2 -1.02 2 0 2 C0 1.34 0 0.68 0 0 Z " fill="#D6663A" transform="translate(142,84)"/>
<path d="M0 0 C0.66 0 1.32 0 2 0 C1.71125 1.093125 1.4225 2.18625 1.125 3.3125 C-2.99802726 20.0266323 -4.24325034 37.65078546 0.44140625 54.390625 C1.0115167 57.05379829 0.91036859 58.46784896 0 61 C-4.98405855 51.03188291 -4.20640705 40.05593226 -4.25 29.125 C-4.270625 27.83980469 -4.29125 26.55460937 -4.3125 25.23046875 C-4.34742961 16.6290524 -3.92237138 7.84474276 0 0 Z " fill="#D39A80" transform="translate(24,74)"/>
<path d="M0 0 C0.33 0 0.66 0 1 0 C1.97144634 5.6821901 2.15091893 11.17917843 2.125 16.9375 C2.12886719 17.79279297 2.13273438 18.64808594 2.13671875 19.52929688 C2.12871508 24.77570319 1.75800859 29.80824277 1 35 C-1.44077852 32.55922148 -1.23616181 31.25117641 -1.25224304 27.92015076 C-1.24505753 27.23364944 -1.23787201 26.54714813 -1.23046875 25.83984375 C-1.23001053 25.13477188 -1.22955231 24.42970001 -1.2290802 23.70326233 C-1.22605863 22.21288368 -1.2181751 20.72250816 -1.20581055 19.23217773 C-1.18754456 16.94308367 -1.18530091 14.65439373 -1.18554688 12.36523438 C-1.18063206 10.91926731 -1.1748039 9.47330301 -1.16796875 8.02734375 C-1.16685593 7.33881821 -1.1657431 6.65029266 -1.16459656 5.94090271 C-1.11605499 1.11605499 -1.11605499 1.11605499 0 0 Z " fill="#BF7158" transform="translate(205,89)"/>
<path d="M0 0 C6.64543717 9.96815576 5.30578212 27.59384294 3.171875 38.96484375 C0.8367667 49.74484995 0.8367667 49.74484995 -2 54 C-1.85904936 52.3745692 -1.71207913 50.74965949 -1.5625 49.125 C-1.48128906 48.22007812 -1.40007812 47.31515625 -1.31640625 46.3828125 C-1 44 -1 44 0 42 C2.20494172 29.88086778 2.21448242 19.46116146 0.4375 7.35546875 C0 4 0 4 0 0 Z " fill="#CB7250" transform="translate(196,82)"/>
<path d="M0 0 C0.66 0 1.32 0 2 0 C1.67 13.2 1.34 26.4 1 40 C0.34 40 -0.32 40 -1 40 C-1.02464775 34.46411467 -1.04283496 28.928261 -1.05493164 23.39233398 C-1.05997244 21.5075627 -1.06680498 19.62279535 -1.07543945 17.73803711 C-1.08751617 15.03498364 -1.09323068 12.33198169 -1.09765625 9.62890625 C-1.10281754 8.78099014 -1.10797882 7.93307404 -1.11329651 7.0594635 C-1.11349195 5.03928932 -1.06206211 3.01922066 -1 1 C-0.67 0.67 -0.34 0.34 0 0 Z " fill="#BF6A4A" transform="translate(96,130)"/>
<path d="M0 0 C3.625 0.375 3.625 0.375 7 1 C4 3 4 3 2 3 C2.34786708 4.97536745 2.34786708 4.97536745 3 7 C3.66 7.33 4.32 7.66 5 8 C-2.46121831 7.09950813 -2.46121831 7.09950813 -5.78125 6.48632812 C-8.86300626 6.02069869 -11.72323225 5.88560878 -14.8359375 5.90234375 C-16.43115234 5.90717773 -16.43115234 5.90717773 -18.05859375 5.91210938 C-19.70021484 5.92467773 -19.70021484 5.92467773 -21.375 5.9375 C-22.49261719 5.94201172 -23.61023438 5.94652344 -24.76171875 5.95117188 C-27.50786804 5.96290756 -30.25390586 5.97932637 -33 6 C-33 5.34 -33 4.68 -33 4 C-22.77 4 -12.54 4 -2 4 C-2 3.34 -2 2.68 -2 2 C-1.34 1.34 -0.68 0.68 0 0 Z " fill="#CAA28C" transform="translate(129,11)"/>
<path d="M0 0 C0.66 0.33 1.32 0.66 2 1 C1.18958252 1.57129639 0.37916504 2.14259277 -0.45581055 2.73120117 C-4.62724482 6.94162511 -3.72593291 12.74763785 -3.70703125 18.30078125 C-3.72215256 19.49229294 -3.73727386 20.68380463 -3.75285339 21.91142273 C-3.79579421 25.71197338 -3.80457523 29.51173073 -3.8125 33.3125 C-3.83563911 35.89129723 -3.86100321 38.47007552 -3.88867188 41.04882812 C-3.9515877 47.36589289 -3.98647104 53.68264684 -4 60 C-4.33 60 -4.66 60 -5 60 C-5.33 41.19 -5.66 22.38 -6 3 C-4.68 3 -3.36 3 -2 3 C-2 2.34 -2 1.68 -2 1 C-1.34 0.67 -0.68 0.34 0 0 Z " fill="#AE6445" transform="translate(63,108)"/>
<path d="M0 0 C1.77174819 0.08723378 3.54247377 0.19541655 5.3125 0.3125 C6.29863281 0.37050781 7.28476563 0.42851562 8.30078125 0.48828125 C11.24384457 1.04622813 12.18182999 1.68540132 14 4 C12.85546875 5.51953125 12.85546875 5.51953125 11 7 C8.30078125 7.07421875 8.30078125 7.07421875 5.3125 6.6875 C3.82169922 6.50767578 3.82169922 6.50767578 2.30078125 6.32421875 C1.54152344 6.21722656 0.78226562 6.11023438 0 6 C0 4 0 2 0 0 Z " fill="#C6AA99" transform="translate(116,9)"/>
<path d="M0 0 C0.33 0 0.66 0 1 0 C1.02900455 3.6041498 1.04680018 7.20826962 1.0625 10.8125 C1.07087891 11.83666016 1.07925781 12.86082031 1.08789062 13.91601562 C1.09111328 14.89892578 1.09433594 15.88183594 1.09765625 16.89453125 C1.10289307 17.80050049 1.10812988 18.70646973 1.11352539 19.63989258 C1 22 1 22 0 25 C0.66 25.33 1.32 25.66 2 26 C1.525625 26.86625 1.05125 27.7325 0.5625 28.625 C-0.93234895 31.85387374 -1.58218313 34.49033826 -2 38 C-2.66 38 -3.32 38 -4 38 C-4.33 39.32 -4.66 40.64 -5 42 C-6.57743761 38.84512478 -5.13344063 36.54655764 -4.125 33.25 C-1.69851492 25.27483924 -0.79795517 17.90955973 -0.4375 9.625 C-0.39431641 8.69816406 -0.35113281 7.77132812 -0.30664062 6.81640625 C-0.20123814 4.54439706 -0.09911394 2.27229075 0 0 Z " fill="#CFA089" transform="translate(200,96)"/>
<path d="M0 0 C0 0.99 0 1.98 0 3 C-2.35953094 5.35953094 -3.77895617 5.49141413 -7 6 C-6.34 6.33 -5.68 6.66 -5 7 C-5.33 7.99 -5.66 8.98 -6 10 C-6.66 10 -7.32 10 -8 10 C-8.33 10.99 -8.66 11.98 -9 13 C-11.66666667 12.33333333 -14.33333333 11.66666667 -17 11 C-11.47131676 7.03981643 -5.97842675 3.24914497 0 0 Z " fill="#BFA492" transform="translate(68,18)"/>
<path d="M0 0 C0 0.66 0 1.32 0 2 C-1.65957768 3.01172115 -3.32781827 4.00924977 -5 5 C-7.5312801 7.28657632 -9.96550016 9.6524233 -12.40234375 12.0390625 C-15.34306788 14.25897756 -17.36925126 14.69347391 -21 15 C-6.42857143 0 -6.42857143 0 0 0 Z " fill="#C97653" transform="translate(68,27)"/>
<path d="M0 0 C1.98 1.32 3.96 2.64 6 4 C5.67 4.66 5.34 5.32 5 6 C4.34 5.34 3.68 4.68 3 4 C2.34 5.65 1.68 7.3 1 9 C2.175625 9.2165625 2.175625 9.2165625 3.375 9.4375 C6 10 6 10 8 11 C8 12.32 8 13.64 8 15 C7.34 15 6.68 15 6 15 C4.66666667 13.66666667 3.33333333 12.33333333 2 11 C-0.62294196 8.93983486 -3.30391992 6.96316511 -6 5 C-5.34 4.34 -4.68 3.68 -4 3 C-4 3.66 -4 4.32 -4 5 C-2.68 4.67 -1.36 4.34 0 4 C0 2.68 0 1.36 0 0 Z " fill="#BE9F8B" transform="translate(165,26)"/>
<path d="M0 0 C2.02910711 0.25327449 4.04962145 0.57730068 6.0625 0.9375 C7.16722656 1.13214844 8.27195312 1.32679687 9.41015625 1.52734375 C10.69212891 1.76130859 10.69212891 1.76130859 12 2 C12 2.66 12 3.32 12 4 C11.01 4 10.02 4 9 4 C9.99 5.32 10.98 6.64 12 8 C11.67 8.66 11.34 9.32 11 10 C9.02 8.02 7.04 6.04 5 4 C3.35 4.66 1.7 5.32 0 6 C-0.38218767 4.34385343 -0.71395102 2.67542976 -1 1 C-0.67 0.67 -0.34 0.34 0 0 Z " fill="#C96741" transform="translate(107,60)"/>
<path d="M0 0 C1.34061543 0.30271961 2.67405895 0.63837971 4 1 C6.18703385 0.62092718 6.18703385 0.62092718 8 0 C8.33 0.99 8.66 1.98 9 3 C8.01 4.485 8.01 4.485 7 6 C7.78375 6.12375 8.5675 6.2475 9.375 6.375 C12 7 12 7 14 9 C9.76677156 8.37954537 6.47709705 6.89476441 2.6875 4.9375 C1.61886719 4.38964844 0.55023438 3.84179688 -0.55078125 3.27734375 C-1.35902344 2.85582031 -2.16726562 2.43429688 -3 2 C-2.01 1.34 -1.02 0.68 0 0 Z " fill="#BBA291" transform="translate(63,187)"/>
<path d="M0 0 C0 0.66 0 1.32 0 2 C-0.90363281 2.26554687 -1.80726562 2.53109375 -2.73828125 2.8046875 C-4.50751953 3.33449219 -4.50751953 3.33449219 -6.3125 3.875 C-8.07013672 4.39707031 -8.07013672 4.39707031 -9.86328125 4.9296875 C-13.10911725 5.88765453 -13.10911725 5.88765453 -16 8 C-18.6875 8.125 -18.6875 8.125 -21 8 C-14.36845812 2.84213409 -8.47226158 0 0 0 Z " fill="#CB7952" transform="translate(89,19)"/>
<path d="M0 0 C0.66 0 1.32 0 2 0 C1.38578278 3.10640135 0.75677646 6.20962625 0.125 9.3125 C-0.04902344 10.19357422 -0.22304688 11.07464844 -0.40234375 11.98242188 C-0.57636719 12.82998047 -0.75039063 13.67753906 -0.9296875 14.55078125 C-1.08679199 15.33106689 -1.24389648 16.11135254 -1.40576172 16.9152832 C-2 19 -2 19 -4 22 C-4.4284736 14.57312433 -3.36274668 6.72549337 0 0 Z " fill="#CEA286" transform="translate(24,74)"/>
<path d="M0 0 C5.37143477 4.75165383 9.94945786 10.82340489 11 18 C10.34 18 9.68 18 9 18 C8.68546875 17.40832031 8.3709375 16.81664063 8.046875 16.20703125 C6.1074512 12.62610719 4.28212934 9.34313028 1.6875 6.1875 C0 4 0 4 0 0 Z " fill="#CC6F4D" transform="translate(180,50)"/>
<path d="M0 0 C0.33 1.32 0.66 2.64 1 4 C0.34 4 -0.32 4 -1 4 C-0.67 5.98 -0.34 7.96 0 10 C-0.99 10 -1.98 10 -3 10 C-3.99 11.98 -4.98 13.96 -6 16 C-6.66 16 -7.32 16 -8 16 C-6.42986223 10.03347646 -3.24970218 5.17090975 0 0 Z " fill="#CB704B" transform="translate(37,53)"/>
<path d="M0 0 C0.515625 0.2475 1.03125 0.495 1.5625 0.75 C1.5625 1.41 1.5625 2.07 1.5625 2.75 C0.29831754 3.44965443 -0.97415402 4.13434763 -2.25 4.8125 C-2.95769531 5.19535156 -3.66539062 5.57820312 -4.39453125 5.97265625 C-6.4375 6.75 -6.4375 6.75 -9.4375 5.75 C-9.4375 5.09 -9.4375 4.43 -9.4375 3.75 C-3.0375 -0.31153846 -3.0375 -0.31153846 0 0 Z " fill="#C3A996" transform="translate(154.4375,187.25)"/>
<path d="M0 0 C1.65 0.33 3.3 0.66 5 1 C1.88983545 4.28788824 -1.01618925 6.83735988 -5 9 C-4.75 6.125 -4.75 6.125 -4 3 C-1.9375 1.625 -1.9375 1.625 0 1 C0 0.67 0 0.34 0 0 Z " fill="#D06B43" transform="translate(167,169)"/>
<path d="M0 0 C0.66 0 1.32 0 2 0 C2 0.66 2 1.32 2 2 C2.99 2.33 3.98 2.66 5 3 C4.835 3.598125 4.67 4.19625 4.5 4.8125 C3.8885876 7.11344336 3.8885876 7.11344336 4 10 C2.02 8.02 0.04 6.04 -2 4 C-1.34 2.68 -0.68 1.36 0 0 Z " fill="#CA6840" transform="translate(163,82)"/>
<path d="M0 0 C2.375 0.3125 2.375 0.3125 5 1 C5.66 1.99 6.32 2.98 7 4 C6.01 4.495 6.01 4.495 5 5 C4.67 4.34 4.34 3.68 4 3 C2.35 3.33 0.7 3.66 -1 4 C-0.01 5.485 -0.01 5.485 1 7 C-1.31 7 -3.62 7 -6 7 C-4.02 4.69 -2.04 2.38 0 0 Z " fill="#BF6644" transform="translate(109,51)"/>
<path d="M0 0 C2 1 2 1 2 1 Z M-8 1 C-5.36 1 -2.72 1 0 1 C0 1.66 0 2.32 0 3 C1.98 3 3.96 3 6 3 C6 3.66 6 4.32 6 5 C6.66 5 7.32 5 8 5 C8 5.66 8 6.32 8 7 C2.63904723 5.41078475 -2.70843973 3.81027062 -8 2 C-8 1.67 -8 1.34 -8 1 Z " fill="#CE9F85" transform="translate(142,18)"/>
<path d="M0 0 C0.66 0 1.32 0 2 0 C1.40895235 4.84659077 0.02055843 8.60748167 -2 13 C-2.88935377 9.696686 -3.46274105 6.37705625 -4 3 C-2.68 2.34 -1.36 1.68 0 1 C0 0.67 0 0.34 0 0 Z " fill="#BAA08E" transform="translate(201,132)"/>
<path d="M0 0 C1.32 0.66 2.64 1.32 4 2 C2.38405168 4.04119788 0.7143618 6.04072937 -1 8 C-1.66 8 -2.32 8 -3 8 C-2.25 2.25 -2.25 2.25 0 0 Z " fill="#C76641" transform="translate(100,43)"/>
<path d="M0 0 C0.66 0.99 1.32 1.98 2 3 C2.99 3.66 3.98 4.32 5 5 C1.37 5.66 -2.26 6.32 -6 7 C-2.25 1.125 -2.25 1.125 0 0 Z " fill="#CCA48E" transform="translate(88,13)"/>
<path d="M0 0 C2.31 0.66 4.62 1.32 7 2 C7 2.66 7 3.32 7 4 C7.99 4.33 8.98 4.66 10 5 C10.33 5.99 10.66 6.98 11 8 C6.40378078 6.5129879 3.53027653 4.20187872 0 1 C0 0.67 0 0.34 0 0 Z " fill="#CB714E" transform="translate(53,174)"/>
<path d="M0 0 C0.99 0 1.98 0 3 0 C3.50744423 1.89385437 4.00564574 3.79018666 4.5 5.6875 C4.7784375 6.74324219 5.056875 7.79898438 5.34375 8.88671875 C5.9391715 11.71142672 6.12786492 14.12836708 6 17 C3.97774806 13.9666221 3.00652476 11.38655511 1.875 7.9375 C1.52179688 6.87402344 1.16859375 5.81054688 0.8046875 4.71484375 C0 2 0 2 0 0 Z " fill="#D19F85" transform="translate(192,68)"/>
<path d="M0 0 C2.3515625 0.19140625 2.3515625 0.19140625 5 1 C6.3984375 3.21484375 6.3984375 3.21484375 7.375 5.9375 C7.71273437 6.83339844 8.05046875 7.72929688 8.3984375 8.65234375 C9 11 9 11 8 13 C6.8529806 11.20909242 5.70742065 9.41725003 4.5625 7.625 C3.60537109 6.12839844 3.60537109 6.12839844 2.62890625 4.6015625 C1 2 1 2 0 0 Z " fill="#D09F86" transform="translate(180,49)"/>
<path d="M0 0 C0.99 0.66 1.98 1.32 3 2 C3.1875 4.625 3.1875 4.625 3 7 C1.68 7.33 0.36 7.66 -1 8 C-1.33 6.35 -1.66 4.7 -2 3 C-1.34 3 -0.68 3 0 3 C0 2.01 0 1.02 0 0 Z " fill="#C5A898" transform="translate(30,150)"/>
<path d="M0 0 C2 2 2 2 2.125 4.625 C2.08375 5.40875 2.0425 6.1925 2 7 C3.65 7.33 5.3 7.66 7 8 C6.01 8.99 5.02 9.98 4 11 C4.33 11.66 4.66 12.32 5 13 C4.34 13.66 3.68 14.32 3 15 C2.49564306 13.0636296 1.99666126 11.12585854 1.5 9.1875 C1.2215625 8.10855469 0.943125 7.02960938 0.65625 5.91796875 C0 3 0 3 0 0 Z " fill="#BA9D8B" transform="translate(15,121)"/>
<path d="M0 0 C0.515625 0.268125 1.03125 0.53625 1.5625 0.8125 C4.66401415 2.32349407 7.82262806 3.65572726 11 5 C11 6.32 11 7.64 11 9 C9 9 9 9 7.1875 7.3125 C6.1046875 6.1678125 6.1046875 6.1678125 5 5 C4.0925 4.0925 3.185 3.185 2.25 2.25 C1.5075 1.5075 0.765 0.765 0 0 Z " fill="#CF9D82" transform="translate(162,32)"/>
<path d="M0 0 C4.55105375 0.54179211 8.06386006 1.62000841 12 4 C12.33 4.99 12.66 5.98 13 7 C8.50202887 5.31326082 4.27113698 3.18326108 0 1 C0 0.67 0 0.34 0 0 Z " fill="#C97352" transform="translate(64,182)"/>
<path d="M0 0 C0.66 0 1.32 0 2 0 C2 0.66 2 1.32 2 2 C2.66 2.33 3.32 2.66 4 3 C1.69 4.98 -0.62 6.96 -3 9 C-3 8.01 -3 7.02 -3 6 C-2.34 6 -1.68 6 -1 6 C-1.020625 5.195625 -1.04125 4.39125 -1.0625 3.5625 C-1 1 -1 1 0 0 Z " fill="#B7A190" transform="translate(172,174)"/>
<path d="M0 0 C2.64 0 5.28 0 8 0 C7.34 1.98 6.68 3.96 6 6 C3.97945196 4.35830472 1.97956942 2.69088222 0 1 C0 0.67 0 0.34 0 0 Z " fill="#C5653E" transform="translate(133,59)"/>
<path d="M0 0 C2.97069541 2.54631035 4.4775751 5.42230149 6 9 C5.67 9.66 5.34 10.32 5 11 C4.34 10.01 3.68 9.02 3 8 C2.01 7.67 1.02 7.34 0 7 C0 4.69 0 2.38 0 0 Z " fill="#B79E90" transform="translate(192,55)"/>
<path d="M0 0 C0.66 0.33 1.32 0.66 2 1 C0.76446724 2.20254524 -0.48902339 3.38666232 -1.75 4.5625 C-2.79414062 5.55443359 -2.79414062 5.55443359 -3.859375 6.56640625 C-6 8 -6 8 -8.265625 7.71484375 C-8.83796875 7.47894531 -9.4103125 7.24304687 -10 7 C-9.36191406 6.57847656 -8.72382812 6.15695313 -8.06640625 5.72265625 C-7.24011719 5.17480469 -6.41382813 4.62695312 -5.5625 4.0625 C-4.73878906 3.51722656 -3.91507813 2.97195312 -3.06640625 2.41015625 C-1.10014075 1.16197019 -1.10014075 1.16197019 0 0 Z " fill="#CD6C48" transform="translate(57,34)"/>
<path d="M0 0 C3.93548431 3.06093224 6.68116787 5.49115974 9 10 C6.5625 9.1875 6.5625 9.1875 4 8 C3.67 7.01 3.34 6.02 3 5 C2.01 4.67 1.02 4.34 0 4 C0 2.68 0 1.36 0 0 Z " fill="#D0A288" transform="translate(38,160)"/>
<path d="M0 0 C1.98 0.495 1.98 0.495 4 1 C4 2.32 4 3.64 4 5 C4.99 5.33 5.98 5.66 7 6 C5.68 6.33 4.36 6.66 3 7 C3 6.01 3 5.02 3 4 C1.68 4.33 0.36 4.66 -1 5 C-0.67 3.35 -0.34 1.7 0 0 Z " fill="#C2AB98" transform="translate(34,159)"/>
<path d="M0 0 C1.32 0.33 2.64 0.66 4 1 C4.12375 1.78375 4.2475 2.5675 4.375 3.375 C4.79117993 6.14057822 4.79117993 6.14057822 7 8 C4.03824877 7.38722388 2.61941217 6.74627478 0 5 C-0.1875 2.375 -0.1875 2.375 0 0 Z " fill="#C0653C" transform="translate(44,98)"/>
<path d="M0 0 C3.91402949 1.26941497 5.79072873 2.51167694 8 6 C5.69 5.67 3.38 5.34 1 5 C0.67 3.35 0.34 1.7 0 0 Z " fill="#C7AC97" transform="translate(191,61)"/>
<path d="M0 0 C5.1103144 1.1454153 9.37234081 2.45478745 14 5 C10.97878489 5.97110486 8.99536737 6.13617383 6 5 C5.67 4.34 5.34 3.68 5 3 C3.35636866 2.27840576 1.68949614 1.60648579 0 1 C0 0.67 0 0.34 0 0 Z " fill="#CB6F49" transform="translate(138,21)"/>
<path d="M0 0 C2.31 0.33 4.62 0.66 7 1 C7 2.98 7 4.96 7 7 C5.83040013 6.02433888 4.66438823 5.044375 3.5 4.0625 C2.8503125 3.51722656 2.200625 2.97195312 1.53125 2.41015625 C1.0259375 1.94480469 0.520625 1.47945313 0 1 C0 0.67 0 0.34 0 0 Z " fill="#C1653E" transform="translate(168,92)"/>
<path d="M0 0 C1.32 0 2.64 0 4 0 C4.33 1.98 4.66 3.96 5 6 C3.02 6 1.04 6 -1 6 C-1 5.34 -1 4.68 -1 4 C-0.34 4 0.32 4 1 4 C0.67 2.68 0.34 1.36 0 0 Z " fill="#CDB7A7" transform="translate(98,9)"/>
<path d="M0 0 C0 0.66 0 1.32 0 2 C-4.95 3.485 -4.95 3.485 -10 5 C-10.33 4.34 -10.66 3.68 -11 3 C-4.5 0 -4.5 0 0 0 Z " fill="#C97047" transform="translate(89,19)"/>
<path d="M0 0 C0 0.99 0 1.98 0 3 C-2.95183101 5.95183101 -5.95511947 6.08663988 -10 7 C-7.2180632 3.72713318 -3.72045933 2.03572303 0 0 Z " fill="#BC9B8D" transform="translate(68,18)"/>
<path d="M0 0 C1.32 0 2.64 0 4 0 C8 5 8 5 8 9 C6.66368764 7.6905332 5.33102075 6.37734515 4 5.0625 C3.2575 4.33160156 2.515 3.60070312 1.75 2.84765625 C0 1 0 1 0 0 Z " fill="#C46B4A" transform="translate(135,86)"/>
<path d="M0 0 C0.66 0.33 1.32 0.66 2 1 C-2.30769231 6.78461538 -2.30769231 6.78461538 -5.8125 7.875 C-6.8953125 7.936875 -6.8953125 7.936875 -8 8 C-5.33333333 5.33333333 -2.66666667 2.66666667 0 0 Z " fill="#D2987E" transform="translate(168,173)"/>
<path d="M0 0 C0.66 0.33 1.32 0.66 2 1 C-1.465 3.97 -1.465 3.97 -5 7 C-5.33 5.68 -5.66 4.36 -6 3 C-4.68 3 -3.36 3 -2 3 C-2 2.34 -2 1.68 -2 1 C-1.34 0.67 -0.68 0.34 0 0 Z " fill="#C46B4A" transform="translate(63,108)"/>
<path d="M0 0 C0.66 0.33 1.32 0.66 2 1 C1.67 3.31 1.34 5.62 1 8 C0.34 8 -0.32 8 -1 8 C-1.33 5.69 -1.66 3.38 -2 1 C-1.34 0.67 -0.68 0.34 0 0 Z " fill="#C5A899" transform="translate(197,69)"/>
<path d="M0 0 C1.65 0 3.3 0 5 0 C3.35 1.98 1.7 3.96 0 6 C-0.66 5.01 -1.32 4.02 -2 3 C-1.34 3 -0.68 3 0 3 C0 2.01 0 1.02 0 0 Z " fill="#C56642" transform="translate(59,82)"/>
<path d="M0 0 C1.98 0 3.96 0 6 0 C5.67 1.65 5.34 3.3 5 5 C4.34 5 3.68 5 3 5 C1.375 2.5 1.375 2.5 0 0 Z " fill="#CFA48D" transform="translate(175,43)"/>
<path d="M0 0 C3.3 0.33 6.6 0.66 10 1 C10 1.66 10 2.32 10 3 C6.7 3 3.4 3 0 3 C0 2.01 0 1.02 0 0 Z " fill="#C06A4E" transform="translate(106,40)"/>
</svg>
