<?xml version="1.0" encoding="UTF-8"?>
<svg version="1.1" xmlns="http://www.w3.org/2000/svg" width="100" height="100">
<path d="M0 0 C2.56522374 1.93159213 4.80986329 4.15398004 7.0859375 6.4140625 C7.74711578 7.06192719 8.40829407 7.70979187 9.08950806 8.37728882 C10.48142614 9.74898553 11.86798903 11.12613477 13.24951172 12.50830078 C15.3679884 14.61801739 17.51635482 16.69368877 19.66796875 18.76953125 C21.01757888 20.10740686 22.36530165 21.44718963 23.7109375 22.7890625 C24.67947159 23.71448349 24.67947159 23.71448349 25.66757202 24.65859985 C28.66254244 27.71662228 29.93099926 29.14169522 30.2824707 33.51367188 C28.61041018 38.05907912 26.19796719 40.64959469 22.76953125 43.9921875 C22.14149094 44.6235965 21.51345062 45.25500549 20.86637878 45.9055481 C19.53952587 47.23210296 18.20521751 48.55123752 16.86401367 49.86328125 C14.8171363 51.87045364 12.80125825 53.90535696 10.78710938 55.9453125 C9.49133152 57.23353167 8.19386012 58.52005006 6.89453125 59.8046875 C5.994179 60.7155159 5.994179 60.7155159 5.07563782 61.64474487 C1.56600732 65.0388611 -0.87412678 66.97148972 -6 67 C-8.4375 65.4375 -8.4375 65.4375 -10 63 C-9.9124256 58.79642872 -8.92147426 56.03833323 -6 53 C-5.34 53 -4.68 53 -4 53 C-4 52.34 -4 51.68 -4 51 C-2.34997172 49.64613064 -0.6825613 48.31321858 1 47 C1.495 46.01 1.495 46.01 2 45 C2.66 45 3.32 45 4 45 C4 44.34 4 43.68 4 43 C5.5 41.375 5.5 41.375 7 40 C5.73816895 39.98541748 4.47633789 39.97083496 3.17626953 39.95581055 C-1.49426979 39.89794671 -6.16432092 39.82071383 -10.83447266 39.73754883 C-12.85782971 39.70424321 -14.88128093 39.676229 -16.90478516 39.65356445 C-19.80932852 39.62012165 -22.71300442 39.56781231 -25.6171875 39.51171875 C-26.97975174 39.50213387 -26.97975174 39.50213387 -28.36984253 39.49235535 C-29.63092331 39.46266411 -29.63092331 39.46266411 -30.91748047 39.43237305 C-31.65916473 39.42126999 -32.400849 39.41016693 -33.16500854 39.39872742 C-35 39 -35 39 -37 36 C-37.54941577 30.72560862 -37.54941577 30.72560862 -35.74272156 28.33952332 C-33.60203836 26.69411127 -32.48257907 26.60784653 -29.80395508 26.56762695 C-28.54298759 26.53793571 -28.54298759 26.53793571 -27.25654602 26.50764465 C-26.35333115 26.50125473 -25.45011627 26.49486481 -24.51953125 26.48828125 C-23.59154221 26.47033005 -22.66355316 26.45237885 -21.70744324 26.43388367 C-18.74250843 26.37968709 -15.77773545 26.345855 -12.8125 26.3125 C-10.80271181 26.27933518 -8.792945 26.24484631 -6.78320312 26.20898438 C-1.85558535 26.12395521 3.07198364 26.05718862 8 26 C7.49025635 25.51644043 6.9805127 25.03288086 6.45532227 24.53466797 C4.14456326 22.32809225 1.85358653 20.10198739 -0.4375 17.875 C-1.23994141 17.11445312 -2.04238281 16.35390625 -2.86914062 15.5703125 C-4.01479492 14.44882812 -4.01479492 14.44882812 -5.18359375 13.3046875 C-5.89056396 12.62390137 -6.59753418 11.94311523 -7.32592773 11.24169922 C-9.41155917 8.44889364 -9.83808866 6.46241181 -10 3 C-7.13461509 -1.29807737 -4.69943275 -1.64309424 0 0 Z " fill="#1D1A1A" transform="translate(70,17)"/>
<path d="M0 0 C0.8971875 -0.01546875 1.794375 -0.0309375 2.71875 -0.046875 C9.16385403 -0.00828156 9.16385403 -0.00828156 11.8671875 2.3359375 C13.12495151 5.41912892 12.70761557 7.35354883 11.75 10.5 C8.16831647 12.88778902 5.33932358 12.90145481 1.1875 13.0625 C-3.67985649 13.1058018 -3.67985649 13.1058018 -8.25 14.5 C-8.27312504 23.87035938 -8.29091591 33.24070901 -8.30181217 42.61109066 C-8.30704065 46.96168459 -8.31413765 51.31225907 -8.32543945 55.6628418 C-8.33626959 59.85790258 -8.3422771 64.05294459 -8.34487724 68.24801826 C-8.34673126 69.85206968 -8.35035144 71.45612003 -8.35573006 73.0601635 C-8.36294219 75.29916515 -8.36399087 77.5380883 -8.36352539 79.77709961 C-8.36685631 81.69237709 -8.36685631 81.69237709 -8.37025452 83.64634705 C-8.57668089 86.39888855 -8.57668089 86.39888855 -7.25 87.5 C-3.8836022 87.73722938 -0.52447239 87.89608667 2.84765625 88.01757812 C6.61746432 88.19954518 8.54364292 88.36242861 11.75 90.5 C12.7075577 93.64626102 13.12794711 95.57927422 11.86328125 98.66015625 C8.37874616 101.69382728 4.52289181 101.11724849 0.0625 101.0625 C-1.24750977 101.09827148 -1.24750977 101.09827148 -2.58398438 101.13476562 C-8.84789009 101.12073148 -13.58284087 99.83897302 -18.25 95.5 C-21.37098104 91.33322564 -21.68556583 87.72868238 -21.65405273 82.68383789 C-21.66091599 81.91245987 -21.66777924 81.14108185 -21.67485046 80.34632874 C-21.69310175 77.80491555 -21.68928343 75.2641207 -21.68359375 72.72265625 C-21.68815644 70.9505544 -21.69346227 69.17845432 -21.69947815 67.40635681 C-21.70840601 63.69506637 -21.70598994 59.98399116 -21.69604492 56.27270508 C-21.68455689 51.52347016 -21.70476559 46.77497894 -21.73396206 42.02584171 C-21.75233393 38.3668905 -21.75202962 34.70811717 -21.74632454 31.04913139 C-21.74617144 29.29848627 -21.75220653 27.54782901 -21.76461601 25.79722786 C-21.7795429 23.34620025 -21.76883758 20.89654224 -21.75170898 18.44555664 C-21.76137695 17.72692444 -21.77104492 17.00829224 -21.78100586 16.2678833 C-21.70744816 11.22532046 -20.4176008 8.38065902 -17.25 4.5 C-11.600911 0.24189271 -6.94669283 -0.1218718 0 0 Z " fill="#1E1B1B" transform="translate(21.25,-0.5)"/>
</svg>
