<?xml version="1.0" encoding="UTF-8"?>
<svg version="1.1" xmlns="http://www.w3.org/2000/svg" width="100" height="100">
<path d="M0 0 C1.60546875 1.84765625 1.60546875 1.84765625 3.1875 4.0625 C3.71730469 4.79597656 4.24710938 5.52945312 4.79296875 6.28515625 C5.19128906 6.85105469 5.58960938 7.41695312 6 8 C7.939509 7.80811844 7.939509 7.80811844 10 7 C11.34231442 5.16016576 11.34231442 5.16016576 12.25 2.9375 C12.58515625 2.20402344 12.9203125 1.47054688 13.265625 0.71484375 C13.50796875 0.14894531 13.7503125 -0.41695313 14 -1 C15.6045556 -0.85851011 17.20863767 -0.71164314 18.8125 -0.5625 C19.70582031 -0.48128906 20.59914062 -0.40007812 21.51953125 -0.31640625 C24 -0 24 -0 27 1 C27 4.96 27 8.92 27 13 C31.04907371 14.50634063 31.04907371 14.50634063 34.4375 12 C35.04335937 11.63132812 35.64921875 11.26265625 36.2734375 10.8828125 C38 10 38 10 40.5625 9.875 C44.19004274 11.5492505 46.30884671 14.05850687 49 17 C47.94124926 20.40312738 46.99097846 23.01353231 45 26 C45 27.32 45 28.64 45 30 C48.96 30.66 52.92 31.32 57 32 C58.59138085 36.17737474 59.21278058 39.53160785 59 44 C56.03 45.65 53.06 47.3 50 49 C49.41923094 53.82088464 49.41923094 53.82088464 51.75 55.80078125 C52.4925 56.29964844 53.235 56.79851563 54 57.3125 C54.7425 57.82425781 55.485 58.33601563 56.25 58.86328125 C56.8275 59.23839844 57.405 59.61351562 58 60 C57.45660208 64.56454251 56.20536179 67.9728176 54 72 C50.04 71.67 46.08 71.34 42 71 C41.04492668 75.77536661 40.9986746 76.9960238 42.4375 81.3125 C42.72496094 82.19550781 43.01242188 83.07851562 43.30859375 83.98828125 C43.65083984 84.98408203 43.65083984 84.98408203 44 86 C38.01377211 91.95172514 38.01377211 91.95172514 34.375 92.125 C32 91 32 91 29.5625 88.875 C27.08088771 86.63323549 27.08088771 86.63323549 23.6875 87.25 C22.3571875 87.62125 22.3571875 87.62125 21 88 C20.86722656 88.71027344 20.73445313 89.42054687 20.59765625 90.15234375 C20.42105469 91.07144531 20.24445312 91.99054688 20.0625 92.9375 C19.88847656 93.85402344 19.71445312 94.77054687 19.53515625 95.71484375 C19 98 19 98 18 99 C16.14712498 99.07226502 14.29166122 99.0838122 12.4375 99.0625 C11.42558594 99.05347656 10.41367187 99.04445313 9.37109375 99.03515625 C8.58863281 99.02355469 7.80617187 99.01195313 7 99 C4 92.375 4 92.375 4 89 C-1.20043933 88.26083347 -1.20043933 88.26083347 -5.69140625 90.37109375 C-6.67556171 91.48372903 -7.65614214 92.59953856 -8.6328125 93.71875 C-10 95 -10 95 -12.5625 95.0625 C-15.19640916 93.91438575 -17.55020049 92.49596742 -20 91 C-19.85691406 89.62714844 -19.85691406 89.62714844 -19.7109375 88.2265625 C-19.60007812 87.03804688 -19.48921875 85.84953125 -19.375 84.625 C-19.20097656 82.84996094 -19.20097656 82.84996094 -19.0234375 81.0390625 C-19.01570313 80.03617187 -19.00796875 79.03328125 -19 78 C-19.66 77.34 -20.32 76.68 -21 76 C-23.90675183 75.97831363 -23.90675183 75.97831363 -27.125 76.375 C-28.22070312 76.48585938 -29.31640625 76.59671875 -30.4453125 76.7109375 C-31.28835937 76.80632812 -32.13140625 76.90171875 -33 77 C-33.89422914 75.7636832 -34.76487891 74.51028438 -35.625 73.25 C-36.35589844 72.20585937 -36.35589844 72.20585937 -37.1015625 71.140625 C-38 69 -38 69 -37.3125 66.87890625 C-36 65 -36 65 -33.375 62.6875 C-30.62665005 60.11802596 -30.62665005 60.11802596 -30.6875 56.1875 C-30.8421875 54.6096875 -30.8421875 54.6096875 -31 53 C-35.95 51.515 -35.95 51.515 -41 50 C-41.05391993 48.20866022 -41.09275571 46.41686101 -41.125 44.625 C-41.14820313 43.62726562 -41.17140625 42.62953125 -41.1953125 41.6015625 C-41 39 -41 39 -39 37 C-36.6171875 36.3671875 -36.6171875 36.3671875 -33.875 35.875 C-32.50988281 35.62363281 -32.50988281 35.62363281 -31.1171875 35.3671875 C-30.41851562 35.24601562 -29.71984375 35.12484375 -29 35 C-27.90820051 31.4741749 -27.90820051 31.4741749 -29.03125 28.12109375 C-29.5159375 27.56550781 -30.000625 27.00992187 -30.5 26.4375 C-31.96875 24.74609375 -31.96875 24.74609375 -33 23 C-32.55017456 18.63754196 -30.10503562 15.96703403 -27 13 C-23.52667287 13 -21.02256083 13.99219048 -17.75 15.125 C-15.07506251 16.32809582 -15.07506251 16.32809582 -13 15 C-12.53045739 11.95418731 -12.53045739 11.95418731 -12.375 8.4375 C-12.30023437 7.23996094 -12.22546875 6.04242188 -12.1484375 4.80859375 C-12.09945313 3.88175781 -12.05046875 2.95492188 -12 2 C-10.56656 1.46809459 -9.12804633 0.94984742 -7.6875 0.4375 C-6.48673828 0.00244141 -6.48673828 0.00244141 -5.26171875 -0.44140625 C-3 -1 -3 -1 0 0 Z M-14 31 C-18.95103893 38.23518407 -20.94381933 45.93259001 -19.58984375 54.63671875 C-17.16150201 64.13197117 -11.36520572 71.02343926 -3 76 C4.51526376 79.06177413 13.09587651 79.10704406 20.69921875 76.23046875 C27.66409378 72.50562048 33.64575836 66.87322116 36.3828125 59.37890625 C38.52495009 51.12218604 38.6025469 43.84236743 35 36 C29.60209275 27.04473267 23.00295197 22.7730956 13 20 C2.9339602 18.13246015 -7.60314748 23.42821538 -14 31 Z " fill="#1D1A1A" transform="translate(41,1)"/>
</svg>
