<?xml version="1.0" encoding="UTF-8"?>
<svg version="1.1" xmlns="http://www.w3.org/2000/svg" width="212" height="216">
<path d="M0 0 C0.8971875 0.42925781 1.794375 0.85851563 2.71875 1.30078125 C25.68111881 13.01290902 42.49183623 33.06625548 50.50390625 57.4453125 C58.96846391 84.64842742 55.5178024 110.67447887 42.625 135.8125 C39.29979815 141.75294775 35.54995111 146.94276446 31 152 C30.57090332 152.47824219 30.14180664 152.95648438 29.69970703 153.44921875 C22.33634629 161.53773927 14.46781432 167.5593721 5 173 C4.15953125 173.49113281 3.3190625 173.98226562 2.453125 174.48828125 C-17.21459482 185.14712941 -44.49963326 188.06823815 -66.125 182.3125 C-68.43440461 181.59655971 -70.72933555 180.83066425 -73 180 C-74.01964844 179.649375 -75.03929687 179.29875 -76.08984375 178.9375 C-100.89882979 169.5485539 -119.58740882 150.71327688 -131 127 C-140.56416258 105.42952587 -141.56332373 78.34166024 -134 56 C-133.649375 54.94554687 -133.29875 53.89109375 -132.9375 52.8046875 C-123.53325621 27.7920113 -103.20815174 8.68502797 -79.25 -2.25 C-53.67059526 -12.52668731 -24.90789346 -12.20343631 0 0 Z M-100 31 C-101.49101242 35.5974015 -101.49101242 35.5974015 -99.98046875 37.76953125 C-97.1233935 39.54463718 -94.64839253 39.52235681 -91.3125 39.6875 C-90.13300781 39.75324219 -88.95351562 39.81898437 -87.73828125 39.88671875 C-86.83464844 39.92410156 -85.93101563 39.96148437 -85 40 C-82.91829856 46.79512412 -80.83704916 53.59038658 -78.75610352 60.38574219 C-78.04917465 62.69404178 -77.342145 65.0023105 -76.63500977 67.31054688 C-75.61447623 70.6418445 -74.59431371 73.97325555 -73.57421875 77.3046875 C-73.26159592 78.32488983 -72.94897308 79.34509216 -72.62687683 80.39620972 C-72.03298787 82.3362171 -71.44115499 84.27685543 -70.85165405 86.21820068 C-70.27861454 88.08994769 -69.69443166 89.95831553 -69.09976196 91.82330322 C-68.68263443 93.15044342 -68.68263443 93.15044342 -68.25708008 94.50439453 C-67.8823632 95.67520065 -67.8823632 95.67520065 -67.50007629 96.86965942 C-66.74584286 100.08271733 -67.3480997 102.79976219 -68 106 C-68.45039407 110.18223061 -68.46755704 113.2151721 -66.25 116.9375 C-61.49729052 121.29415035 -55.08988175 120.180364 -49 120 C-44.47396598 119.75143855 -39.95688231 119.41002692 -35.4375 119.0625 C-21.63295711 118.04986324 -7.833848 117.43126684 6 117 C6.38218767 115.34385343 6.71395102 113.67542976 7 112 C4.89844011 109.89844011 0.48433405 110.82899646 -2.31811523 110.81054688 C-4.07877319 110.81151367 -4.07877319 110.81151367 -5.875 110.8125 C-7.07777588 110.81185547 -8.28055176 110.81121094 -9.51977539 110.81054688 C-19.2932036 110.86642769 -28.9785347 111.43133756 -38.71240234 112.28833008 C-45.82992101 112.90612058 -52.85614982 113.11503013 -60 113 C-60.33 111.35 -60.66 109.7 -61 108 C-56.68801839 107.41279637 -52.37538922 106.83049908 -48.0625 106.25 C-47.40338623 106.16107483 -46.74427246 106.07214966 -46.06518555 105.98052979 C-38.00746679 104.89583688 -29.94642686 103.85939982 -21.87109375 102.9140625 C-21.12634293 102.82636597 -20.3815921 102.73866943 -19.61427307 102.64831543 C-15.99121065 102.22241347 -12.36753804 101.80364177 -8.74243164 101.39550781 C-7.41159299 101.24047544 -6.08078106 101.08521346 -4.75 100.9296875 C-3.58984375 100.79804199 -2.4296875 100.66639648 -1.234375 100.53076172 C2.13479012 99.97788091 4.92120312 99.49991242 8 98 C9.42803403 95.24242456 9.42803403 95.24242456 10 92 C10.21591797 91.03473389 10.43183594 90.06946777 10.65429688 89.07495117 C10.84056641 88.07439697 11.02683594 87.07384277 11.21875 86.04296875 C11.53392578 84.37331055 11.53392578 84.37331055 11.85546875 82.66992188 C12.17451172 80.94612305 12.17451172 80.94612305 12.5 79.1875 C12.92583599 76.90992268 13.35289668 74.63257397 13.78125 72.35546875 C13.98516357 71.26991699 14.18907715 70.18436523 14.39916992 69.06591797 C15.0643733 65.67151569 15.81770981 62.30604935 16.63208008 58.94458008 C17.26792807 55.58391037 17.18269524 52.41031119 17 49 C14.92936379 46.92936379 10.47891672 47.81428105 7.62475586 47.79467773 C6.74678848 47.78477814 5.86882111 47.77487854 4.96424866 47.76467896 C2.04780825 47.73296573 -0.86864848 47.70826789 -3.78515625 47.68359375 C-5.80155371 47.66303269 -7.81794677 47.64203646 -9.83433533 47.62062073 C-15.15260266 47.56531241 -20.47090945 47.5159419 -25.78924561 47.46777344 C-31.21174651 47.4176222 -36.63418982 47.36190293 -42.05664062 47.30664062 C-52.70437793 47.19895198 -63.35216515 47.09753094 -74 47 C-74.16276042 45.17708333 -74.32552083 43.35416667 -74.48828125 41.53125 C-75.2215308 37.90418352 -76.7006883 34.4648312 -78 31 C-85.26 31 -92.52 31 -100 31 Z M-70 131 C-71.15548104 134.08128276 -71.13466191 135.5174615 -70.25 138.6875 C-69.07878737 141.2856128 -69.07878737 141.2856128 -66 143 C-63.58995363 143.3539686 -63.58995363 143.3539686 -61 143.3125 C-59.700625 143.33763672 -59.700625 143.33763672 -58.375 143.36328125 C-55.96577154 143.18189699 -55.96577154 143.18189699 -54.25 141.71875 C-52.09351916 138.75358885 -51.685045 135.55832142 -52 132 C-53.25676231 129.00019046 -54.33808886 128.17298869 -57 126 C-62.85486514 124.36252263 -66.42284636 126.12206322 -70 131 Z M-13 130 C-13.8878631 134.2821716 -13.71120785 137.7321947 -11.5625 141.5625 C-7.72720033 143.71400957 -4.29451154 143.62365149 0 143 C2.61760705 142.20426487 2.61760705 142.20426487 4 140 C5.02691377 136.39047473 5.38725101 133.22629487 4.25 129.625 C2.91791442 127.71322892 2.91791442 127.71322892 0 126 C-5.58465516 125.4595495 -9.30240656 125.26245841 -13 130 Z " fill="#D6663B" transform="translate(147,16)"/>
<path d="M0 0 C0.8971875 0.42925781 1.794375 0.85851563 2.71875 1.30078125 C25.68111881 13.01290902 42.49183623 33.06625548 50.50390625 57.4453125 C58.96846391 84.64842742 55.5178024 110.67447887 42.625 135.8125 C39.29979815 141.75294775 35.54995111 146.94276446 31 152 C30.57090332 152.47824219 30.14180664 152.95648438 29.69970703 153.44921875 C22.33634629 161.53773927 14.46781432 167.5593721 5 173 C4.15953125 173.49113281 3.3190625 173.98226562 2.453125 174.48828125 C-17.21459482 185.14712941 -44.49963326 188.06823815 -66.125 182.3125 C-68.43440461 181.59655971 -70.72933555 180.83066425 -73 180 C-74.01964844 179.649375 -75.03929687 179.29875 -76.08984375 178.9375 C-100.89882979 169.5485539 -119.58740882 150.71327688 -131 127 C-140.56416258 105.42952587 -141.56332373 78.34166024 -134 56 C-133.649375 54.94554687 -133.29875 53.89109375 -132.9375 52.8046875 C-123.53325621 27.7920113 -103.20815174 8.68502797 -79.25 -2.25 C-53.67059526 -12.52668731 -24.90789346 -12.20343631 0 0 Z M-110 29 C-110.45632812 29.47308594 -110.91265625 29.94617188 -111.3828125 30.43359375 C-125.85003959 46.22635212 -131.21987231 66.94849242 -131.3125 87.8125 C-131.31805908 88.87436523 -131.32361816 89.93623047 -131.3293457 91.03027344 C-131.27192671 97.29041625 -130.6577059 102.96669653 -129 109 C-128.8337915 109.6499292 -128.66758301 110.2998584 -128.49633789 110.96948242 C-122.45062551 133.9607557 -108.22448837 152.98190666 -87.75390625 165.26147461 C-68.08367411 176.64324199 -44.69110515 180.41645736 -22.2265625 175.9765625 C-14.28039832 173.57154913 -6.62818434 170.25725735 1 167 C1 166.34 1 165.68 1 165 C1.78375 164.814375 2.5675 164.62875 3.375 164.4375 C10.7478244 161.51379377 16.79991846 156.81246296 21.70703125 150.61328125 C23 149 23 149 25.5 146.5625 C28.70072419 143.28175771 31.33172191 139.71785008 34 136 C34.70125 135.05125 35.4025 134.1025 36.125 133.125 C38.64410976 128.92648373 40.3268258 124.59150128 42 120 C42.35320312 119.04609375 42.70640625 118.0921875 43.0703125 117.109375 C51.02519183 94.60001276 49.17900269 70.10074687 39.38671875 48.4296875 C28.912298 26.76910099 10.90379397 12.28640113 -11 3 C-11.77601563 2.65710938 -12.55203125 2.31421875 -13.3515625 1.9609375 C-48.54128173 -10.80701373 -85.35083021 2.98143189 -110 29 Z " fill="#CCAD9A" transform="translate(147,16)"/>
<path d="M0 0 C2 3 2 3 2 5 C2.66 5 3.32 5 4 5 C4.144375 6.134375 4.28875 7.26875 4.4375 8.4375 C4.61171478 11.80777201 4.61171478 11.80777201 6 13 C6.36760731 15.32817964 6.70241581 17.6618385 7 20 C7.66 19.34 8.32 18.68 9 18 C9.12375 19.134375 9.2475 20.26875 9.375 21.4375 C9.58125 22.613125 9.7875 23.78875 10 25 C10.66 25.33 11.32 25.66 12 26 C12.79657165 51.81198519 8.15150164 71.71335539 -6.19921875 93.48046875 C-8 95 -8 95 -11.20703125 95.23828125 C-12.12871094 95.15964844 -13.05039063 95.08101563 -14 95 C-14.33 96.32 -14.66 97.64 -15 99 C-16.32 98.01 -17.64 97.02 -19 96 C-19.3403125 97.175625 -19.3403125 97.175625 -19.6875 98.375 C-21 101 -21 101 -23.5 101.9375 C-26.3445866 102.80354352 -26.3445866 102.80354352 -27.3125 106.125 C-27.539375 107.07375 -27.76625 108.0225 -28 109 C-29.65 108.67 -31.3 108.34 -33 108 C-33 108.66 -33 109.32 -33 110 C-34.32 109.67 -35.64 109.34 -37 109 C-35.56542672 108.0165504 -34.12722594 107.03839079 -32.6875 106.0625 C-31.88699219 105.51722656 -31.08648437 104.97195312 -30.26171875 104.41015625 C-28 103 -28 103 -25 102 C-24.67 101.01 -24.34 100.02 -24 99 C-22.4840625 97.7625 -22.4840625 97.7625 -20.9375 96.5 C-15.97916112 92.41906265 -12.61179682 87.25567809 -9 82 C-8.2575 80.989375 -7.515 79.97875 -6.75 78.9375 C-4.28968808 74.80769071 -2.64284735 70.50827877 -1 66 C-0.64679688 65.04609375 -0.29359375 64.0921875 0.0703125 63.109375 C6.91005073 43.75544904 6.49945612 23.41359286 0 4 C0 2.68 0 1.36 0 0 Z " fill="#CCB2A2" transform="translate(189,70)"/>
<path d="M0 0 C8.58 0 17.16 0 26 0 C26.020625 2.784375 26.04125 5.56875 26.0625 8.4375 C26.071604 9.31591553 26.08070801 10.19433105 26.09008789 11.09936523 C26.09723091 13.06645974 26.05031893 15.03353621 26 17 C25 18 25 18 23.05053711 18.11352539 C22.2178833 18.10828857 21.38522949 18.10305176 20.52734375 18.09765625 C19.62822266 18.09443359 18.72910156 18.09121094 17.80273438 18.08789062 C16.85720703 18.07951172 15.91167969 18.07113281 14.9375 18.0625 C13.98810547 18.05798828 13.03871094 18.05347656 12.06054688 18.04882812 C9.70696935 18.0370011 7.35351523 18.02052025 5 18 C2.50000796 11.86365589 1.33864511 6.69322557 0 0 Z " fill="#D76639" transform="translate(77,72)"/>
<path d="M0 0 C-0.99 1.32 -1.98 2.64 -3 4 C-9.75 2.25 -9.75 2.25 -12 0 C-13.33025597 -0.34540981 -14.66417044 -0.67681543 -16 -1 C-17.63376445 -1.79472949 -19.25794024 -2.60930982 -20.875 -3.4375 C-32.89099061 -8.94764688 -46.61210412 -8.33800442 -59.58398438 -8.56640625 C-66.34483103 -8.73121756 -72.46073137 -9.24676906 -79 -11 C-57.20561467 -25.52959022 -19.94582005 -11.42565676 0 0 Z " fill="#C6AD9B" transform="translate(158,22)"/>
<path d="M0 0 C-0.33 0.66 -0.66 1.32 -1 2 C-3.2578125 2.34375 -3.2578125 2.34375 -6.125 2.5 C-9.48013587 2.74150078 -12.24864571 3.07104163 -15.5 4 C-19.55071287 5.15734653 -23.35173958 5.37696079 -27.546875 5.55859375 C-30.40218399 5.83147671 -30.40218399 5.83147671 -33 9 C-20.79 9 -8.58 9 4 9 C4 9.66 4 10.32 4 11 C2.98522583 11.029729 2.98522583 11.029729 1.94995117 11.06005859 C-12.30230119 11.49335962 -26.50198655 12.13795872 -40.7121582 13.33935547 C-55.92337872 14.58315107 -55.92337872 14.58315107 -62 14 C-62.66 13.34 -63.32 12.68 -64 12 C-63.625 9.375 -63.625 9.375 -63 7 C-48.3835957 5.0183456 -33.76476799 3.05231366 -19.125 1.25 C-18.11767822 1.12262451 -17.11035645 0.99524902 -16.07250977 0.86401367 C-10.66797498 0.20959949 -5.4439105 -0.12869765 0 0 Z " fill="#D68969" transform="translate(149,116)"/>
<path d="M0 0 C7.26 0 14.52 0 22 0 C23.29418729 3.88256187 22.5145056 6.15078689 21.625 10.125 C21.34914062 11.38570312 21.07328125 12.64640625 20.7890625 13.9453125 C20 17 20 17 19 18 C17.59651265 18.09860131 16.18819523 18.13078937 14.78125 18.1328125 C13.50701172 18.13474609 13.50701172 18.13474609 12.20703125 18.13671875 C10.86705078 18.13091797 10.86705078 18.13091797 9.5 18.125 C8.60667969 18.12886719 7.71335938 18.13273437 6.79296875 18.13671875 C5.94347656 18.13542969 5.09398437 18.13414063 4.21875 18.1328125 C3.43435547 18.13168457 2.64996094 18.13055664 1.84179688 18.12939453 C0 18 0 18 -1 17 C-1.09997642 14.50941086 -1.13879627 12.05272605 -1.125 9.5625 C-1.12886719 8.86833984 -1.13273438 8.17417969 -1.13671875 7.45898438 C-1.12663994 2.25327988 -1.12663994 2.25327988 0 0 Z " fill="#DB977D" transform="translate(132,72)"/>
<path d="M0 0 C7.26 0 14.52 0 22 0 C22 5.61 22 11.22 22 17 C19.64875 17.33 17.2975 17.66 14.875 18 C14.14651855 18.10441406 13.41803711 18.20882812 12.66748047 18.31640625 C8.74927987 18.85201056 4.95323219 19.19225445 1 19 C0 18 0 18 -0.11352539 16.23413086 C-0.10828857 15.48526611 -0.10305176 14.73640137 -0.09765625 13.96484375 C-0.09515869 13.23644287 -0.09266113 12.50804199 -0.09008789 11.75756836 C-0.08098389 10.8269458 -0.07187988 9.89632324 -0.0625 8.9375 C-0.041875 5.988125 -0.02125 3.03875 0 0 Z " fill="#DB7D57" transform="translate(106,93)"/>
<path d="M0 0 C7.92 0 15.84 0 24 0 C24 1.65 24 3.3 24 5 C24.66 5 25.32 5 26 5 C27.49821059 8.37097383 28 10.20442119 28 14 C29.10833694 13.98889694 30.21667389 13.97779388 31.3585968 13.96635437 C41.79131805 13.86510212 52.22393994 13.79009412 62.6570406 13.74093914 C68.0211614 13.71481854 73.38488635 13.67937528 78.7487793 13.62280273 C83.92294912 13.56857121 89.09673763 13.53859803 94.27116966 13.52561378 C96.24763177 13.51635798 98.22407244 13.49828384 100.2003727 13.47134972 C102.9638785 13.43517686 105.72579844 13.43004966 108.48950195 13.43237305 C109.7216468 13.40540848 109.7216468 13.40540848 110.97868347 13.37789917 C113.26045227 13.39872742 113.26045227 13.39872742 117 14 C119.69018683 17.07020353 119.97666325 18.64994868 120.25 22.75 C120 26 120 26 119 27 C118.835 28.155 118.67 29.31 118.5 30.5 C118 34 118 34 117 35 C116.46907865 37.27983876 116.03682029 39.57194084 115.59765625 41.87109375 C115 44 115 44 113 46 C113.45023476 40.32467236 114.10771448 34.9014341 115.59765625 29.3984375 C115.97611681 27.14237161 116.04004739 25.13152817 116.02514648 22.85009766 C116.01269897 20.94429932 116.01269897 20.94429932 116 19 C114.90197052 18.98969254 113.80394104 18.97938507 112.67263794 18.96876526 C102.34247056 18.87115782 92.01236512 18.76843593 81.68229866 18.66066074 C76.37106557 18.60541346 71.059827 18.55199057 65.74853516 18.50268555 C60.62623054 18.45506864 55.50399432 18.40272681 50.38177109 18.34705925 C48.42409841 18.32662357 46.46640697 18.30791252 44.50870132 18.29092598 C41.77412357 18.26690882 39.03967577 18.23685063 36.30517578 18.20532227 C35.08166412 18.19668907 35.08166412 18.19668907 33.83343506 18.18788147 C28.22810432 18.11405216 28.22810432 18.11405216 26 17 C25.19785959 14.30375431 24.50606409 11.67273339 23.875 8.9375 C23.25625 6.318125 22.6375 3.69875 22 1 C14.74 1 7.48 1 0 1 C0 0.67 0 0.34 0 0 Z " fill="#DEA78D" transform="translate(47,46)"/>
<path d="M0 0 C0.87454834 0.00523682 1.74909668 0.01047363 2.65014648 0.01586914 C3.59438477 0.0190918 4.53862305 0.02231445 5.51147461 0.02563477 C6.50469727 0.03401367 7.49791992 0.04239258 8.52124023 0.05102539 C9.51833008 0.05553711 10.51541992 0.06004883 11.54272461 0.06469727 C14.0147551 0.07652516 16.48675496 0.09446124 18.95874023 0.11352539 C18.95874023 5.72352539 18.95874023 11.33352539 18.95874023 17.11352539 C16.21971298 18.02653448 14.58425754 18.24199147 11.76342773 18.24633789 C10.96549805 18.24762695 10.16756836 18.24891602 9.34545898 18.25024414 C8.1021582 18.24444336 8.1021582 18.24444336 6.83374023 18.23852539 C5.57883789 18.24432617 5.57883789 18.24432617 4.29858398 18.25024414 C-1.91461102 18.24017413 -1.91461102 18.24017413 -3.04125977 17.11352539 C-3.1410719 14.43621159 -3.18005852 11.79048365 -3.16625977 9.11352539 C-3.17012695 8.36329102 -3.17399414 7.61305664 -3.17797852 6.84008789 C-3.16594961 0.17607542 -3.16594961 0.17607542 0 0 Z " fill="#D6663A" transform="translate(109.041259765625,71.886474609375)"/>
<path d="M0 0 C6.27 0.33 12.54 0.66 19 1 C19 7.6 19 14.2 19 21 C14.38 21.33 9.76 21.66 5 22 C3.96619162 19.08735725 2.94769363 16.17082593 1.9375 13.25 C1.64294922 12.425 1.34839844 11.6 1.04492188 10.75 C0.77099609 9.95078125 0.49707031 9.1515625 0.21484375 8.328125 C-0.04176025 7.5949707 -0.29836426 6.86181641 -0.56274414 6.10644531 C-1 4 -1 4 0 0 Z " fill="#D5663B" transform="translate(84,92)"/>
<path d="M0 0 C2.475 0.495 2.475 0.495 5 1 C3.02941211 3.36470547 1.03585338 5.69211449 -1 8 C-1.556875 8.63679687 -2.11375 9.27359375 -2.6875 9.9296875 C-13.34821787 21.37157866 -29.80361423 30.56855805 -45 34 C-47.3515625 33.6015625 -47.3515625 33.6015625 -49 33 C-48.67 32.01 -48.34 31.02 -48 30 C-46.0625 29.1875 -46.0625 29.1875 -44 29 C-43.34 29.66 -42.68 30.32 -42 31 C-41.7525 30.195625 -41.505 29.39125 -41.25 28.5625 C-40.63125 27.2940625 -40.63125 27.2940625 -40 26 C-38.0625 25.375 -38.0625 25.375 -36 25 C-35.5875 24.505 -35.175 24.01 -34.75 23.5 C-31.88597485 21.0451213 -28.69675715 21.30301288 -25 21 C-25 20.01 -25 19.02 -25 18 C-24.34 18 -23.68 18 -23 18 C-23 17.34 -23 16.68 -23 16 C-21.68 16 -20.36 16 -19 16 C-19 15.34 -19 14.68 -19 14 C-18.01 13.67 -17.02 13.34 -16 13 C-15.505 13.495 -15.505 13.495 -15 14 C-14.5875 13.21625 -14.175 12.4325 -13.75 11.625 C-11.8680493 8.80207395 -10.90642578 8.45321289 -8 7 C-6.24677063 4.46811352 -6.24677063 4.46811352 -5 2 C-3.68 2.33 -2.36 2.66 -1 3 C-0.67 2.01 -0.34 1.02 0 0 Z " fill="#CBB0A0" transform="translate(175,164)"/>
<path d="M0 0 C0.33 0 0.66 0 1 0 C0.85704109 1.39613065 0.71048442 2.79189308 0.5625 4.1875 C0.48128906 4.96480469 0.40007813 5.74210937 0.31640625 6.54296875 C0 9 0 9 -0.50927734 11.30102539 C-1.40736783 16.24052305 -1.18459239 21.24309775 -1.1875 26.25 C-1.19974609 27.34441406 -1.21199219 28.43882813 -1.22460938 29.56640625 C-1.2362033 36.02035799 -0.69911893 41.7817319 1 48 C1.35885187 49.45912519 1.7156314 50.91876163 2.0703125 52.37890625 C2.42064462 53.7737471 2.77219873 55.16828163 3.125 56.5625 C3.30675781 57.28501953 3.48851562 58.00753906 3.67578125 58.75195312 C4.1160847 60.50157998 4.5578789 62.25083157 5 64 C4.01 63.67 3.02 63.34 2 63 C2 61.68 2 60.36 2 59 C1.34 59 0.68 59 0 59 C-0.33 57.35 -0.66 55.7 -1 54 C-2.32 54 -3.64 54 -5 54 C-5 53.34 -5 52.68 -5 52 C-5.66 52 -6.32 52 -7 52 C-8.39430585 45.96588933 -8.18415943 39.97586028 -8.1875 33.8125 C-8.20586914 32.01135742 -8.20586914 32.01135742 -8.22460938 30.17382812 C-8.22654297 29.02978516 -8.22847656 27.88574219 -8.23046875 26.70703125 C-8.23457764 25.6600708 -8.23868652 24.61311035 -8.24291992 23.53442383 C-8 21 -8 21 -6 19 C-4.32597031 15.44268691 -3.41719032 11.80741508 -2.5078125 8.00390625 C-1.8186262 5.28427107 -0.92639015 2.64682901 0 0 Z " fill="#C7AB99" transform="translate(18,77)"/>
<path d="M0 0 C2 3 2 3 2 5 C2.66 5 3.32 5 4 5 C4.144375 6.134375 4.28875 7.26875 4.4375 8.4375 C4.61171478 11.80777201 4.61171478 11.80777201 6 13 C6.36760731 15.32817964 6.70241581 17.6618385 7 20 C7.66 19.34 8.32 18.68 9 18 C9.12375 19.134375 9.2475 20.26875 9.375 21.4375 C9.58125 22.613125 9.7875 23.78875 10 25 C10.66 25.33 11.32 25.66 12 26 C12.02909769 30.06248489 12.04683174 34.12494286 12.0625 38.1875 C12.07087891 39.33798828 12.07925781 40.48847656 12.08789062 41.67382812 C12.09111328 42.78564453 12.09433594 43.89746094 12.09765625 45.04296875 C12.10289307 46.06414795 12.10812988 47.08532715 12.11352539 48.13745117 C12.00519467 50.86901616 11.61706868 53.34169374 11 56 C10.34 56 9.68 56 9 56 C8.67 56.99 8.34 57.98 8 59 C7.01 59 6.02 59 5 59 C2.60457417 63.58154261 0.49170266 68.0276578 -1 73 C-1.66 73 -2.32 73 -3 73 C-1.57776943 68.16845075 -0.14223007 63.36519332 1.5625 58.625 C7.42473298 41.03830106 5.82316411 21.39353803 0 4 C0 2.68 0 1.36 0 0 Z M5 54 C6 56 6 56 6 56 Z " fill="#C99F89" transform="translate(189,70)"/>
<path d="M0 0 C0.74362793 0.05236816 1.48725586 0.10473633 2.25341797 0.15869141 C3.05908203 0.21025391 3.86474609 0.26181641 4.69482422 0.31494141 C5.95746094 0.41162109 5.95746094 0.41162109 7.24560547 0.51025391 C8.09509766 0.56697266 8.94458984 0.62369141 9.81982422 0.68212891 C11.92073997 0.82376368 14.02077881 0.97829717 16.12060547 1.13525391 C15.81085079 2.90656951 15.49770122 4.67729169 15.18310547 6.44775391 C14.92207031 7.92695312 14.92207031 7.92695312 14.65576172 9.43603516 C14.12060547 12.13525391 14.12060547 12.13525391 13.12060547 15.13525391 C10.15903587 16.61603871 7.28554252 16.48839428 3.99560547 16.69775391 C2.71427734 16.78154297 1.43294922 16.86533203 0.11279297 16.95166016 C-0.87462891 17.01224609 -1.86205078 17.07283203 -2.87939453 17.13525391 C-3.53110487 13.52738549 -4.03527443 10.05318621 -4.06689453 6.38525391 C-4.08107422 5.62728516 -4.09525391 4.86931641 -4.10986328 4.08837891 C-3.7836277 1.32367062 -2.81731705 0.20275314 0 0 Z " fill="#D3673D" transform="translate(134.87939453125,91.86474609375)"/>
<path d="M0 0 C0.66 1.32 1.32 2.64 2 4 C2.66 4 3.32 4 4 4 C4.6319296 10.00333124 2.37544123 14.63404795 0 20 C-0.66 20 -1.32 20 -2 20 C-2.12503906 20.85078125 -2.25007813 21.7015625 -2.37890625 22.578125 C-3.01256162 26.06920743 -3.90178947 29.35755947 -4.9375 32.75 C-5.27652344 33.87921875 -5.61554687 35.0084375 -5.96484375 36.171875 C-7 39 -7 39 -9 41 C-9.36952049 43.12860662 -9.36952049 43.12860662 -9.4140625 45.5703125 C-9.45273438 46.46621094 -9.49140625 47.36210938 -9.53125 48.28515625 C-9.5621875 49.22230469 -9.593125 50.15945312 -9.625 51.125 C-9.66367188 52.06988281 -9.70234375 53.01476562 -9.7421875 53.98828125 C-9.83661346 56.32532375 -9.92218394 58.66235501 -10 61 C-10.33 61 -10.66 61 -11 61 C-12.13553833 18.20330749 -12.13553833 18.20330749 0 0 Z " fill="#CCB5A6" transform="translate(20,57)"/>
<path d="M0 0 C7.87966472 0.8838461 15.79333776 0.9359426 23.71484375 1.10742188 C35.55299334 1.43939115 46.70553728 2.03602382 57.4140625 7.421875 C59.91915707 8.73641844 59.91915707 8.73641844 63.390625 9.77734375 C65.765625 10.58984375 65.765625 10.58984375 66.765625 12.58984375 C69.65257686 13.43224347 69.65257686 13.43224347 72.765625 13.58984375 C73.755625 12.92984375 74.745625 12.26984375 75.765625 11.58984375 C75.765625 12.24984375 75.765625 12.90984375 75.765625 13.58984375 C76.425625 13.58984375 77.085625 13.58984375 77.765625 13.58984375 C78.054375 14.72421875 78.343125 15.85859375 78.640625 17.02734375 C79.011875 18.20296875 79.383125 19.37859375 79.765625 20.58984375 C80.425625 20.91984375 81.085625 21.24984375 81.765625 21.58984375 C81.765625 22.24984375 81.765625 22.90984375 81.765625 23.58984375 C82.425625 23.58984375 83.085625 23.58984375 83.765625 23.58984375 C83.435625 24.24984375 83.105625 24.90984375 82.765625 25.58984375 C81.83943359 24.93628906 81.83943359 24.93628906 80.89453125 24.26953125 C79.11309347 23.01683071 77.32764004 21.76982899 75.5390625 20.52734375 C73.86491621 19.3577993 72.20023661 18.17429328 70.5546875 16.96484375 C60.76091337 9.97449195 49.45437509 6.86308293 37.765625 4.58984375 C36.84136719 4.40550781 35.91710937 4.22117187 34.96484375 4.03125 C20.84543644 2.08315107 7.41415612 3.8974875 -6.234375 7.58984375 C-6.234375 6.92984375 -6.234375 6.26984375 -6.234375 5.58984375 C-4.254375 5.25984375 -2.274375 4.92984375 -0.234375 4.58984375 C-0.234375 3.92984375 -0.234375 3.26984375 -0.234375 2.58984375 C-2.214375 2.58984375 -4.194375 2.58984375 -6.234375 2.58984375 C-6.234375 1.92984375 -6.234375 1.26984375 -6.234375 0.58984375 C-3.77242022 -0.64113364 -2.70942255 -0.35062785 0 0 Z " fill="#CEA189" transform="translate(82.234375,11.41015625)"/>
<path d="M0 0 C11.49065996 13.43368701 10.29555798 35.53085273 10 52 C9.67 52 9.34 52 9 52 C8.67 46.06 8.34 40.12 8 34 C7.67 41.59 7.34 49.18 7 57 C6.67 57 6.34 57 6 57 C5.67 47.43 5.34 37.86 5 28 C4.34 28.33 3.68 28.66 3 29 C2.77213542 26.94921875 2.54427083 24.8984375 2.31640625 22.84765625 C2.18113386 20.98859771 2.18113386 20.98859771 1 20 C0.95907063 17.66702567 0.95758277 15.33294775 1 13 C0.34 13 -0.32 13 -1 13 C-1.66 11.02 -2.32 9.04 -3 7 C-1.68 6.67 -0.36 6.34 1 6 C0.01 5.01 -0.98 4.02 -2 3 C-1.34 2.01 -0.68 1.02 0 0 Z " fill="#CEB7A6" transform="translate(192,62)"/>
<path d="M0 0 C8.58 0 17.16 0 26 0 C26.020625 2.784375 26.04125 5.56875 26.0625 8.4375 C26.071604 9.31591553 26.08070801 10.19433105 26.09008789 11.09936523 C26.09723091 13.06645974 26.05031893 15.03353621 26 17 C25 18 25 18 23.05053711 18.11352539 C22.2178833 18.10828857 21.38522949 18.10305176 20.52734375 18.09765625 C19.62822266 18.09443359 18.72910156 18.09121094 17.80273438 18.08789062 C16.85720703 18.07951172 15.91167969 18.07113281 14.9375 18.0625 C13.98810547 18.05798828 13.03871094 18.05347656 12.06054688 18.04882812 C9.70696935 18.0370011 7.35351523 18.02052025 5 18 C2.50000796 11.86365589 1.33864511 6.69322557 0 0 Z M4 3 C3.80842203 7.88523811 4.12595954 10.31489886 6 15 C11.94 15 17.88 15 24 15 C24.020625 13.205625 24.04125 11.41125 24.0625 9.5625 C24.07990234 8.04849609 24.07990234 8.04849609 24.09765625 6.50390625 C24.28612676 4.05978933 24.28612676 4.05978933 23 3 C21.58429877 2.91348389 20.164405 2.89295096 18.74609375 2.90234375 C17.46508789 2.90717773 17.46508789 2.90717773 16.15820312 2.91210938 C15.26037109 2.92048828 14.36253906 2.92886719 13.4375 2.9375 C12.53580078 2.94201172 11.63410156 2.94652344 10.70507812 2.95117188 C8.46998686 2.96299775 6.23502563 2.9794778 4 3 Z " fill="#E0A690" transform="translate(77,72)"/>
<path d="M0 0 C0.87454834 0.00523682 1.74909668 0.01047363 2.65014648 0.01586914 C3.59438477 0.0190918 4.53862305 0.02231445 5.51147461 0.02563477 C6.50469727 0.03401367 7.49791992 0.04239258 8.52124023 0.05102539 C9.51833008 0.05553711 10.51541992 0.06004883 11.54272461 0.06469727 C14.0147551 0.07652516 16.48675496 0.09446124 18.95874023 0.11352539 C18.95874023 5.72352539 18.95874023 11.33352539 18.95874023 17.11352539 C16.21971298 18.02653448 14.58425754 18.24199147 11.76342773 18.24633789 C10.96549805 18.24762695 10.16756836 18.24891602 9.34545898 18.25024414 C8.1021582 18.24444336 8.1021582 18.24444336 6.83374023 18.23852539 C5.57883789 18.24432617 5.57883789 18.24432617 4.29858398 18.25024414 C-1.91461102 18.24017413 -1.91461102 18.24017413 -3.04125977 17.11352539 C-3.1410719 14.43621159 -3.18005852 11.79048365 -3.16625977 9.11352539 C-3.17012695 8.36329102 -3.17399414 7.61305664 -3.17797852 6.84008789 C-3.16594961 0.17607542 -3.16594961 0.17607542 0 0 Z M-0.04125977 4.11352539 C-0.11352478 5.96640041 -0.12507196 7.82186417 -0.10375977 9.67602539 C-0.08313477 11.47040039 -0.06250977 13.26477539 -0.04125977 15.11352539 C5.23874023 15.11352539 10.51874023 15.11352539 15.95874023 15.11352539 C16.80602226 10.87711526 17.04258102 7.38940537 16.95874023 3.11352539 C14.31284009 3.0866786 11.66720928 3.06676183 9.02124023 3.05102539 C7.88912109 3.03845703 7.88912109 3.03845703 6.73413086 3.02563477 C3.04682259 2.64826939 3.04682259 2.64826939 -0.04125977 4.11352539 Z " fill="#DA977A" transform="translate(109.041259765625,71.886474609375)"/>
<path d="M0 0 C4.29 0.33 8.58 0.66 13 1 C13.25 8.5 13.25 8.5 11 13 C5.72 13 0.44 13 -5 13 C-4 9 -4 9 -2.5 7.625 C-0.37295793 5.61862523 -0.37295793 5.61862523 0 0 Z " fill="#D76639" transform="translate(138,74)"/>
<path d="M0 0 C0 0.66 0 1.32 0 2 C-0.66 2 -1.32 2 -2 2 C-1.505 4.475 -1.505 4.475 -1 7 C-1.886875 6.773125 -2.77375 6.54625 -3.6875 6.3125 C-7.5874129 5.94458369 -8.97474324 6.59759022 -12 9 C-12 9.66 -12 10.32 -12 11 C-13.65 11 -15.3 11 -17 11 C-17.66 12.65 -18.32 14.3 -19 16 C-21 15 -21 15 -22 14 C-22.99 14.33 -23.98 14.66 -25 15 C-24.505 15.99 -24.505 15.99 -24 17 C-26.31 17.33 -28.62 17.66 -31 18 C-30.505 17.525625 -30.01 17.05125 -29.5 16.5625 C-27.88457803 15.24076302 -27.88457803 15.24076302 -28 14 C-29.3921875 14.24169922 -29.3921875 14.24169922 -30.8125 14.48828125 C-35.86449424 15.20618285 -40.90577774 15.18407646 -46 15.1875 C-46.9590625 15.19974609 -47.918125 15.21199219 -48.90625 15.22460938 C-54.34346236 15.23581242 -58.86222663 14.80535648 -64 13 C-64 12.67 -64 12.34 -64 12 C-62.82195801 12.01571045 -62.82195801 12.01571045 -61.62011719 12.03173828 C-57.9967785 12.07379584 -54.37349146 12.09948245 -50.75 12.125 C-48.89761719 12.15013672 -48.89761719 12.15013672 -47.0078125 12.17578125 C-35.34496054 12.23716468 -25.13808707 10.93217628 -14.375 6.375 C-6.19196429 3 -6.19196429 3 -4 3 C-4 2.34 -4 1.68 -4 1 C-2 0 -2 0 0 0 Z " fill="#CF9E84" transform="translate(152,180)"/>
<path d="M0 0 C1.98 0.66 3.96 1.32 6 2 C6 3.65 6 5.3 6 7 C6.66 7 7.32 7 8 7 C8 8.32 8 9.64 8 11 C9.32 11.33 10.64 11.66 12 12 C12 14.33333333 12 16.66666667 12 19 C12.99 19.33 13.98 19.66 15 20 C15.33 20.99 15.66 21.98 16 23 C14.68 23.33 13.36 23.66 12 24 C12.33 25.32 12.66 26.64 13 28 C9.71782745 24.94191619 7.90964427 21.35215762 5.9375 17.375 C5.58042969 16.66021484 5.22335938 15.94542969 4.85546875 15.20898438 C2.41744077 10.19192306 0.79312073 5.55184513 0 0 Z " fill="#CBB2A3" transform="translate(12,129)"/>
<path d="M0 0 C0.33 0 0.66 0 1 0 C1.12117188 0.69867188 1.24234375 1.39734375 1.3671875 2.1171875 C1.53476563 3.02726562 1.70234375 3.93734375 1.875 4.875 C2.03742188 5.77992187 2.19984375 6.68484375 2.3671875 7.6171875 C2.83044703 10.16505988 2.83044703 10.16505988 5 12 C7.55867474 12.4657363 10.04687908 12.83484248 12.625 13.125 C13.33140625 13.21136719 14.0378125 13.29773438 14.765625 13.38671875 C16.50950141 13.59881183 18.2546484 13.80040991 20 14 C17.4345406 16.5654594 15.52313332 16.54046087 12 17 C12.825 17.556875 13.65 18.11375 14.5 18.6875 C17 21 17 21 17.3125 23.75 C17.209375 24.4925 17.10625 25.235 17 26 C16.34 25.175 15.68 24.35 15 23.5 C11.77615126 20.81229679 11.77615126 20.81229679 7.9375 20.4375 C4.0559017 20.69254065 4.0559017 20.69254065 1.5625 22.6875 C-0.14918804 25.22079829 -0.6143193 26.99169056 -1 30 C-1.33 30.99 -1.66 31.98 -2 33 C-2.83796731 28.34462607 -3.0161692 24.62921525 -2 20 C0.64 19.34 3.28 18.68 6 18 C5.1028125 17.1028125 5.1028125 17.1028125 4.1875 16.1875 C3.465625 15.465625 2.74375 14.74375 2 14 C1.13375 13.38125 1.13375 13.38125 0.25 12.75 C-1.83147991 9.83592813 -1.36311245 6.46353413 -1 3 C-0.67 2.01 -0.34 1.02 0 0 Z " fill="#D99171" transform="translate(78,122)"/>
<path d="M0 0 C0.33 0.66 0.66 1.32 1 2 C-0.20850753 5.07620099 -1.52221785 8.0444357 -3 11 C-2.71758117 13.3400417 -2.38749213 15.67504723 -2 18 C-3.98 18 -5.96 18 -8 18 C-8.33 19.32 -8.66 20.64 -9 22 C-10.32 21.01 -11.64 20.02 -13 19 C-13.226875 19.78375 -13.45375 20.5675 -13.6875 21.375 C-15 24 -15 24 -17.5 24.9375 C-20.3445866 25.80354352 -20.3445866 25.80354352 -21.3125 29.125 C-21.539375 30.07375 -21.76625 31.0225 -22 32 C-23.65 31.67 -25.3 31.34 -27 31 C-27 31.66 -27 32.32 -27 33 C-28.32 32.67 -29.64 32.34 -31 32 C-29.56542672 31.0165504 -28.12722594 30.03839079 -26.6875 29.0625 C-25.88699219 28.51722656 -25.08648437 27.97195312 -24.26171875 27.41015625 C-22 26 -22 26 -19 25 C-18.67 24.01 -18.34 23.02 -18 22 C-16.989375 21.175 -15.97875 20.35 -14.9375 19.5 C-8.56748036 14.25950962 -4.13529327 7.05807771 0 0 Z " fill="#C9AA99" transform="translate(183,147)"/>
<path d="M0 0 C6.27 0.33 12.54 0.66 19 1 C19 7.6 19 14.2 19 21 C14.38 21.33 9.76 21.66 5 22 C3.96619162 19.08735725 2.94769363 16.17082593 1.9375 13.25 C1.64294922 12.425 1.34839844 11.6 1.04492188 10.75 C0.77099609 9.95078125 0.49707031 9.1515625 0.21484375 8.328125 C-0.04176025 7.5949707 -0.29836426 6.86181641 -0.56274414 6.10644531 C-1 4 -1 4 0 0 Z M1 2 C1.66 5.63 2.32 9.26 3 13 C3.66 13 4.32 13 5 13 C5.33 14.98 5.66 16.96 6 19 C9.63 19 13.26 19 17 19 C17 13.39 17 7.78 17 2 C11.72 2 6.44 2 1 2 Z " fill="#DD9E85" transform="translate(84,92)"/>
<path d="M0 0 C-3.26545761 1.88391785 -6.28111761 2.49287967 -10 3 C-10 3.99 -10 4.98 -10 6 C2.16813224 6.339342 2.16813224 6.339342 14 4 C15.36592183 3.91432754 16.73564858 3.88226353 18.10424805 3.88647461 C18.92487228 3.88655014 19.74549652 3.88662567 20.59098816 3.88670349 C21.47232925 3.89186478 22.35367035 3.89702606 23.26171875 3.90234375 C24.62040825 3.90446617 24.62040825 3.90446617 26.00654602 3.90663147 C28.90023091 3.91222999 31.79383849 3.92478219 34.6875 3.9375 C36.64908742 3.94251519 38.61067606 3.94707807 40.57226562 3.95117188 C45.38154021 3.96219893 50.190757 3.97946253 55 4 C55 4.33 55 4.66 55 5 C53.98522583 5.029729 53.98522583 5.029729 52.94995117 5.06005859 C38.69769881 5.49335962 24.49801345 6.13795872 10.2878418 7.33935547 C-4.92337872 8.58315107 -4.92337872 8.58315107 -11 8 C-11.66 7.34 -12.32 6.68 -13 6 C-12.625 3.375 -12.625 3.375 -12 1 C-7.9472484 0.01751476 -4.16138263 -0.08159574 0 0 Z " fill="#ECC3AB" transform="translate(98,122)"/>
<path d="M0 0 C0 0.33 0 0.66 0 1 C-1.65 1.33 -3.3 1.66 -5 2 C-4.67 2.99 -4.34 3.98 -4 5 C-11.02639415 5.74805717 -17.93391809 6.13794954 -25 6 C-25.5625 4.0625 -25.5625 4.0625 -26 2 C-21.65656698 -2.34343302 -6.11332223 -0.11228551 0 0 Z " fill="#D16841" transform="translate(113,123)"/>
<path d="M0 0 C1.34547879 2.01821818 2.66292584 4.05537794 3.953125 6.109375 C7.94636272 12.4550086 11.87894361 18.4850162 17 24 C16.01 24 15.02 24 14 24 C14 23.34 14 22.68 14 22 C12.68 22 11.36 22 10 22 C10 22.66 10 23.32 10 24 C9.34 23.67 8.68 23.34 8 23 C8.2784375 21.8553125 8.2784375 21.8553125 8.5625 20.6875 C9.22819173 17.91032625 9.22819173 17.91032625 8 15 C7.34 15 6.68 15 6 15 C6 15.99 6 16.98 6 18 C4.35 17.67 2.7 17.34 1 17 C0.67 15.02 0.34 13.04 0 11 C0.99 10.34 1.98 9.68 3 9 C2.01 8.01 1.02 7.02 0 6 C0 6.66 0 7.32 0 8 C-0.99 7.67 -1.98 7.34 -3 7 C-2.34 7 -1.68 7 -1 7 C-0.67 4.69 -0.34 2.38 0 0 Z " fill="#CBA792" transform="translate(24,142)"/>
<path d="M0 0 C6.45534472 3.22767236 12.38948969 7.39211399 17 13 C17.57209545 15.95762551 17.10236821 17.12159412 16 20 C15.67 19.34 15.34 18.68 15 18 C14.34 18 13.68 18 13 18 C12.34 16.68 11.68 15.36 11 14 C10.01 14 9.02 14 8 14 C8 13.34 8 12.68 8 12 C7.34 12 6.68 12 6 12 C6 11.34 6 10.68 6 10 C5.01 9.67 4.02 9.34 3 9 C2.67 6.69 2.34 4.38 2 2 C1.34 2 0.68 2 0 2 C0 1.34 0 0.68 0 0 Z " fill="#CCB6A5" transform="translate(158,23)"/>
<path d="M0 0 C0.74362793 0.05236816 1.48725586 0.10473633 2.25341797 0.15869141 C3.05908203 0.21025391 3.86474609 0.26181641 4.69482422 0.31494141 C5.95746094 0.41162109 5.95746094 0.41162109 7.24560547 0.51025391 C8.09509766 0.56697266 8.94458984 0.62369141 9.81982422 0.68212891 C11.92073997 0.82376368 14.02077881 0.97829717 16.12060547 1.13525391 C15.81085079 2.90656951 15.49770122 4.67729169 15.18310547 6.44775391 C14.92207031 7.92695312 14.92207031 7.92695312 14.65576172 9.43603516 C14.12060547 12.13525391 14.12060547 12.13525391 13.12060547 15.13525391 C10.15903587 16.61603871 7.28554252 16.48839428 3.99560547 16.69775391 C2.71427734 16.78154297 1.43294922 16.86533203 0.11279297 16.95166016 C-0.87462891 17.01224609 -1.86205078 17.07283203 -2.87939453 17.13525391 C-3.53110487 13.52738549 -4.03527443 10.05318621 -4.06689453 6.38525391 C-4.08107422 5.62728516 -4.09525391 4.86931641 -4.10986328 4.08837891 C-3.7836277 1.32367062 -2.81731705 0.20275314 0 0 Z M-1.87939453 2.13525391 C-1.87939453 5.76525391 -1.87939453 9.39525391 -1.87939453 13.13525391 C-1.21939453 13.13525391 -0.55939453 13.13525391 0.12060547 13.13525391 C0.12060547 13.79525391 0.12060547 14.45525391 0.12060547 15.13525391 C1.55800059 15.16237457 2.9955441 15.18170458 4.43310547 15.19775391 C5.23361328 15.20935547 6.03412109 15.22095703 6.85888672 15.23291016 C9.28921881 15.23183245 9.28921881 15.23183245 12.12060547 14.13525391 C12.45060547 11.82525391 12.78060547 9.51525391 13.12060547 7.13525391 C13.45060547 7.13525391 13.78060547 7.13525391 14.12060547 7.13525391 C14.12060547 5.48525391 14.12060547 3.83525391 14.12060547 2.13525391 C8.84060547 2.13525391 3.56060547 2.13525391 -1.87939453 2.13525391 Z " fill="#DCA38C" transform="translate(134.87939453125,91.86474609375)"/>
<path d="M0 0 C6.6 0 13.2 0 20 0 C20 4.95 20 9.9 20 15 C17.03 15 14.06 15 11 15 C11 14.67 11 14.34 11 14 C12.98 13.67 14.96 13.34 17 13 C17.33 9.04 17.66 5.08 18 1 C13.05 1.33 8.1 1.66 3 2 C2.855625 3.753125 2.71125 5.50625 2.5625 7.3125 C2.30314642 10.46179353 2.00259507 12.99221479 1 16 C2.32 16.33 3.64 16.66 5 17 C3.35 17 1.7 17 0 17 C0 11.39 0 5.78 0 0 Z " fill="#C76B48" transform="translate(107,94)"/>
<path d="M0 0 C0.66 0.33 1.32 0.66 2 1 C1.01 1.99 0.02 2.98 -1 4 C-0.67 4.99 -0.34 5.98 0 7 C-1.32 7 -2.64 7 -4 7 C-4 7.99 -4 8.98 -4 10 C-4.66 10 -5.32 10 -6 10 C-6 11.32 -6 12.64 -6 14 C-7.98 14.33 -9.96 14.66 -12 15 C-12 14.34 -12 13.68 -12 13 C-13.98 13.66 -15.96 14.32 -18 15 C-12.47383125 9.30637159 -6.71018807 4.25524121 0 0 Z " fill="#CFB7A8" transform="translate(54,21)"/>
<path d="M0 0 C0 0.33 0 0.66 0 1 C-18.38391865 2.97242215 -36.53873999 3.23771432 -55 3 C-55 2.67 -55 2.34 -55 2 C-36.61225335 0.49928527 -18.45700768 -0.30406932 0 0 Z " fill="#EBBDA8" transform="translate(153,133)"/>
<path d="M0 0 C0.33 0 0.66 0 1 0 C1.05506505 1.52040718 1.09326375 3.04142704 1.125 4.5625 C1.14820313 5.40941406 1.17140625 6.25632812 1.1953125 7.12890625 C1 10 1 10 0.015625 13.21484375 C-1.2393674 17.89210388 -1.38203215 22.17902415 -1.375 27 C-1.37628906 27.92047119 -1.37757812 28.84094238 -1.37890625 29.78930664 C-1.26972773 36.92499116 -0.08974556 43.11150574 2.125 49.87109375 C3.01862833 53.0666129 3.15925885 55.70035575 3 59 C1.58245769 56.28150976 0.42236267 53.59052452 -0.5625 50.6875 C-0.81128906 49.96949219 -1.06007813 49.25148437 -1.31640625 48.51171875 C-5.38608741 33.55854739 -4.43586752 14.75982108 0 0 Z " fill="#CA6D49" transform="translate(19,77)"/>
<path d="M0 0 C0 0.33 0 0.66 0 1 C-1.11117187 1.04898437 -2.22234375 1.09796875 -3.3671875 1.1484375 C-17.16370975 0.89954009 -17.16370975 0.89954009 -29 6 C-30.010625 5.95875 -31.02125 5.9175 -32.0625 5.875 C-36.4953539 6.01572552 -39.03083007 7.18855512 -42.88671875 9.22265625 C-45.37162071 10.13669597 -46.54690046 9.88045785 -49 9 C-32.52232927 1.8689072 -17.93382778 -0.48713617 0 0 Z " fill="#C97653" transform="translate(114,14)"/>
<path d="M0 0 C0.66 0.33 1.32 0.66 2 1 C2 1.66 2 2.32 2 3 C2.66 3 3.32 3 4 3 C4 2.34 4 1.68 4 1 C4.66 1 5.32 1 6 1 C6 1.66 6 2.32 6 3 C8.31 3.66 10.62 4.32 13 5 C12.75 6.875 12.75 6.875 12 9 C10.02 9.99 10.02 9.99 8 11 C4.37 8.03 0.74 5.06 -3 2 C-2.01 1.34 -1.02 0.68 0 0 Z " fill="#CEB6A7" transform="translate(42,173)"/>
<path d="M0 0 C1.32 0.66 2.64 1.32 4 2 C2.12616097 2.79441072 0.25087114 3.58539974 -1.625 4.375 C-2.66914063 4.81585938 -3.71328125 5.25671875 -4.7890625 5.7109375 C-14.165 9.475 -14.165 9.475 -18 8 C-17.67 7.01 -17.34 6.02 -17 5 C-15.0625 4.1875 -15.0625 4.1875 -13 4 C-12.34 4.66 -11.68 5.32 -11 6 C-10.34 4.35 -9.68 2.7 -9 1 C-7.700625 1.020625 -6.40125 1.04125 -5.0625 1.0625 C-3.70834367 1.08399454 -2.35243917 1.07148199 -1 1 C-0.67 0.67 -0.34 0.34 0 0 Z " fill="#C8B0A2" transform="translate(144,189)"/>
<path d="M0 0 C0.33 0.99 0.66 1.98 1 3 C-1.3125 6.1875 -1.3125 6.1875 -4 9 C-4.66 9 -5.32 9 -6 9 C-6.2475 9.86625 -6.495 10.7325 -6.75 11.625 C-8.07232314 15.19527247 -9.89515356 17.84273034 -12 21 C-12.69100553 22.99172182 -13.35902703 24.99161804 -14 27 C-14.9563874 28.69207001 -15.94410931 30.36816893 -17 32 C-18 30 -18 30 -17.06640625 27.1640625 C-12.80698794 17.1406002 -8.0289423 7.60073204 0 0 Z " fill="#CA724E" transform="translate(38,44)"/>
<path d="M0 0 C2 3 2 3 2 7 C2.66 7 3.32 7 4 7 C4.66 5.68 5.32 4.36 6 3 C7.42944945 5.35438733 8.08661261 6.48032433 7.625 9.25 C7.41875 9.8275 7.2125 10.405 7 11 C8.88316159 12.10836423 8.88316159 12.10836423 11 13 C11.66 12.67 12.32 12.34 13 12 C12.34 14.31 11.68 16.62 11 19 C6.0759568 14.2347969 1.55740358 9.11342667 -3 4 C-2.01 3.67 -1.02 3.34 0 3 C0 2.01 0 1.02 0 0 Z " fill="#C9A693" transform="translate(169,34)"/>
<path d="M0 0 C0.66 0 1.32 0 2 0 C4.32492213 5.5102485 4.23374511 10.51112885 4.125 16.375 C4.11597656 17.30183594 4.10695312 18.22867188 4.09765625 19.18359375 C4.07422937 21.45600077 4.04142748 23.7278618 4 26 C3.67 26 3.34 26 3 26 C2.67 20.06 2.34 14.12 2 8 C1.67 15.59 1.34 23.18 1 31 C0.67 31 0.34 31 0 31 C0 20.77 0 10.54 0 0 Z " fill="#E0BDA3" transform="translate(198,88)"/>
<path d="M0 0 C3.59476701 3.49205938 6.92026191 7.04033675 10 11 C10 11.66 10 12.32 10 13 C9.01 13.495 9.01 13.495 8 14 C7.67 14.99 7.34 15.98 7 17 C6.34 17 5.68 17 5 17 C5 15 5 13 5 11 C4.01 11 3.02 11 2 11 C0 8 0 8 0.4375 5.5 C0.7159375 4.2625 0.7159375 4.2625 1 3 C0.67 2.01 0.34 1.02 0 0 Z " fill="#CEB7A7" transform="translate(175,37)"/>
<path d="M0 0 C0 0.66 0 1.32 0 2 C0.66 2 1.32 2 2 2 C2.33 1.34 2.66 0.68 3 0 C3.66 0.66 4.32 1.32 5 2 C4.0479279 3.00596297 3.08812654 4.00461563 2.125 5 C1.59132813 5.556875 1.05765625 6.11375 0.5078125 6.6875 C-1 8 -1 8 -3 8 C-3.33 8.99 -3.66 9.98 -4 11 C-5.20628008 8.66785852 -6.1654738 6.50357861 -7 4 C-3.375 0 -3.375 0 0 0 Z " fill="#C6A693" transform="translate(42,34)"/>
<path d="M0 0 C-0.66 0 -1.32 0 -2 0 C-2 0.66 -2 1.32 -2 2 C-1.38125 1.814375 -0.7625 1.62875 -0.125 1.4375 C2 1 2 1 4 2 C4 2.66 4 3.32 4 4 C2.02 4.33 0.04 4.66 -2 5 C-2 5.66 -2 6.32 -2 7 C-7.53846154 6.50769231 -7.53846154 6.50769231 -9.875 3.9375 C-10.431875 2.9784375 -10.431875 2.9784375 -11 2 C-9.73392393 1.46770674 -8.46189588 0.94955456 -7.1875 0.4375 C-6.47980469 0.14746094 -5.77210937 -0.14257812 -5.04296875 -0.44140625 C-3 -1 -3 -1 0 0 Z " fill="#CCB4A3" transform="translate(78,12)"/>
<path d="M0 0 C4.69165109 2.97519337 8.84703191 6.31393365 13 10 C12.01 10.495 12.01 10.495 11 11 C8.875 10.0625 8.875 10.0625 7 9 C7 8.34 7 7.68 7 7 C6.34 7 5.68 7 5 7 C5 7.66 5 8.32 5 9 C4.01 9.33 3.02 9.66 2 10 C1.67 9.01 1.34 8.02 1 7 C0.01 7 -0.98 7 -2 7 C-2 5.35 -2 3.7 -2 2 C-1.34 2 -0.68 2 0 2 C0 1.34 0 0.68 0 0 Z " fill="#C1A995" transform="translate(41,167)"/>
<path d="M0 0 C0.33 0 0.66 0 1 0 C1 9.57 1 19.14 1 29 C0.67 29 0.34 29 0 29 C-1.13105925 23.79677925 -1.41641101 18.68111508 -1.6875 13.375 C-1.74744141 12.42109375 -1.80738281 11.4671875 -1.86914062 10.484375 C-1.91619141 9.56914063 -1.96324219 8.65390625 -2.01171875 7.7109375 C-2.05772217 6.87868652 -2.10372559 6.04643555 -2.15112305 5.18896484 C-2 3 -2 3 0 0 Z " fill="#C8A792" transform="translate(197,88)"/>
<path d="M0 0 C0.33 0 0.66 0 1 0 C0.85704109 1.39613065 0.71048442 2.79189308 0.5625 4.1875 C0.48128906 4.96480469 0.40007813 5.74210937 0.31640625 6.54296875 C0 9 0 9 -0.51367188 11.21289062 C-1.09374218 14.53722928 -1.11201721 17.67595509 -1.09765625 21.05078125 C-1.0962413 21.70958786 -1.09482635 22.36839447 -1.09336853 23.04716492 C-1.087805 25.13565762 -1.07525947 27.22404011 -1.0625 29.3125 C-1.05748028 30.73502449 -1.0529182 32.15755066 -1.04882812 33.58007812 C-1.03784757 37.05342077 -1.02060835 40.52669961 -1 44 C-4.32881294 39.00678058 -3.33257048 32.96463705 -3.31567383 27.11401367 C-3.312535 24.83788218 -3.33589969 22.56307817 -3.36132812 20.28710938 C-3.39164971 13.01623394 -3.33249662 6.63861464 0 0 Z " fill="#D19B80" transform="translate(18,77)"/>
<path d="M0 0 C0.144375 0.639375 0.28875 1.27875 0.4375 1.9375 C0.81007181 3.97545146 0.81007181 3.97545146 2 5 C2.25 7.4375 2.25 7.4375 2 10 C1.01 10.66 0.02 11.32 -1 12 C-1.33 11.34 -1.66 10.68 -2 10 C-3.97536745 10.34786708 -3.97536745 10.34786708 -6 11 C-6.33 11.66 -6.66 12.32 -7 13 C-7.66 13 -8.32 13 -9 13 C-7.50923566 9.7173068 -5.61379679 7.06922559 -3.375 4.25 C-2.74335937 3.45078125 -2.11171875 2.6515625 -1.4609375 1.828125 C-0.97882812 1.22484375 -0.49671875 0.6215625 0 0 Z " fill="#D2BAAA" transform="translate(35,36)"/>
<path d="M0 0 C1.00289062 0.10183594 2.00578125 0.20367187 3.0390625 0.30859375 C3.80992187 0.39238281 4.58078125 0.47617188 5.375 0.5625 C5.375 0.8925 5.375 1.2225 5.375 1.5625 C4.67632812 1.68367187 3.97765625 1.80484375 3.2578125 1.9296875 C1.89269531 2.18105469 1.89269531 2.18105469 0.5 2.4375 C-0.40492188 2.59992188 -1.30984375 2.76234375 -2.2421875 2.9296875 C-4.79005988 3.39294703 -4.79005988 3.39294703 -6.625 5.5625 C-6.86795974 7.67148869 -6.86795974 7.67148869 -6.75 10 C-6.73195312 10.78246094 -6.71390625 11.56492188 -6.6953125 12.37109375 C-6.67210937 13.09425781 -6.64890625 13.81742188 -6.625 14.5625 C-6.625 15.5525 -6.625 16.5425 -6.625 17.5625 C-7.945 16.9025 -9.265 16.2425 -10.625 15.5625 C-10.295 11.9325 -9.965 8.3025 -9.625 4.5625 C-8.965 4.5625 -8.305 4.5625 -7.625 4.5625 C-7.625 3.2425 -7.625 1.9225 -7.625 0.5625 C-4.89657939 -0.80171031 -3.01546682 -0.31557211 0 0 Z " fill="#D68E70" transform="translate(141.625,140.4375)"/>
<path d="M0 0 C4.61127389 -0.25921362 7.58325138 0.42676348 11.75 2.375 C17.115222 4.74240421 22.21160677 6.14198596 28 7 C28 7.33 28 7.66 28 8 C22.29659042 8.49594866 18.44194139 7.20384957 13.234375 4.875 C10.93435918 3.81767757 10.93435918 3.81767757 8 4 C7.01 5.485 7.01 5.485 6 7 C5.01 6.67 4.02 6.34 3 6 C2.67 5.01 2.34 4.02 2 3 C2.99 2.67 3.98 2.34 5 2 C3.35 2 1.7 2 0 2 C0 1.34 0 0.68 0 0 Z " fill="#CBA289" transform="translate(60,184)"/>
<path d="M0 0 C0.33 0.66 0.66 1.32 1 2 C-6.05024311 10.36628849 -6.05024311 10.36628849 -9 13 C-9.66 13 -10.32 13 -11 13 C-11.66 14.98 -12.32 16.96 -13 19 C-14.65 18.67 -16.3 18.34 -18 18 C-18 18.66 -18 19.32 -18 20 C-19.32 19.67 -20.64 19.34 -22 19 C-20.56542672 18.0165504 -19.12722594 17.03839079 -17.6875 16.0625 C-16.88699219 15.51722656 -16.08648437 14.97195312 -15.26171875 14.41015625 C-13 13 -13 13 -10 12 C-9.67 11.01 -9.34 10.02 -9 9 C-7.44140625 7.5 -7.44140625 7.5 -5.5625 6 C-3.11225368 4.03571068 -1.78619422 2.67929132 0 0 Z " fill="#CF9B81" transform="translate(174,160)"/>
<path d="M0 0 C0.33 0 0.66 0 1 0 C1.30236794 17.97409431 1.30236794 17.97409431 -1.6875 22.625 C-4 24 -4 24 -7.25 23.75 C-8.1575 23.5025 -9.065 23.255 -10 23 C-10 22.67 -10 22.34 -10 22 C-8.02 21.34 -6.04 20.68 -4 20 C-2.68 13.4 -1.36 6.8 0 0 Z " fill="#E0A289" transform="translate(159,93)"/>
<path d="M0 0 C-3.26545761 1.88391785 -6.28111761 2.49287967 -10 3 C-10 3.99 -10 4.98 -10 6 C-2.08 6 5.84 6 14 6 C14 6.33 14 6.66 14 7 C-4.30258303 8.65313653 -4.30258303 8.65313653 -11 8 C-11.66 7.34 -12.32 6.68 -13 6 C-12.625 3.375 -12.625 3.375 -12 1 C-7.9472484 0.01751476 -4.16138263 -0.08159574 0 0 Z " fill="#F7E0CF" transform="translate(98,122)"/>
<path d="M0 0 C1.14726563 0.00902344 2.29453125 0.01804687 3.4765625 0.02734375 C6.27626748 0.05067462 9.07551695 0.08340768 11.875 0.125 C11.875 0.455 11.875 0.785 11.875 1.125 C10.85345825 1.16258423 10.85345825 1.16258423 9.8112793 1.20092773 C6.72816245 1.31690952 3.64534954 1.43962616 0.5625 1.5625 C-0.50935547 1.60181641 -1.58121094 1.64113281 -2.68554688 1.68164062 C-4.22758789 1.74448242 -4.22758789 1.74448242 -5.80078125 1.80859375 C-6.74864502 1.84525146 -7.69650879 1.88190918 -8.6730957 1.91967773 C-11.261171 2.03930187 -11.261171 2.03930187 -14.125 3.125 C-15.115 3.125 -16.105 3.125 -17.125 3.125 C-17.455 3.785 -17.785 4.445 -18.125 5.125 C-20.765 4.795 -23.405 4.465 -26.125 4.125 C-18.55086532 -0.92442312 -8.76662727 -0.13251878 0 0 Z " fill="#EDE2DA" transform="translate(105.125,6.875)"/>
<path d="M0 0 C0.33 0 0.66 0 1 0 C1.28642943 8.73609771 1.08522086 17.58405291 -4 25 C-4.71143088 26.98451771 -5.38991336 28.98202112 -6 31 C-6.66 31 -7.32 31 -8 31 C-6.57776943 26.16845075 -5.14223007 21.36519332 -3.4375 16.625 C-1.59281926 11.21717278 -0.81117954 5.6400836 0 0 Z " fill="#D09E86" transform="translate(194,112)"/>
<path d="M0 0 C0 1.65 0 3.3 0 5 C-0.99 5 -1.98 5 -3 5 C-3.33 4.67 -3.66 4.34 -4 4 C-4.99 4.33 -5.98 4.66 -7 5 C-6.67 5.66 -6.34 6.32 -6 7 C-8.31 7.33 -10.62 7.66 -13 8 C-12.505 7.566875 -12.01 7.13375 -11.5 6.6875 C-9.66781808 5.00259517 -9.66781808 5.00259517 -10 2 C-6.5980513 -0.09350689 -3.94727588 -0.17942163 0 0 Z " fill="#C8A590" transform="translate(134,190)"/>
<path d="M0 0 C0.33 0.66 0.66 1.32 1 2 C1.66 2 2.32 2 3 2 C3.28875 3.134375 3.5775 4.26875 3.875 5.4375 C4.24625 6.613125 4.6175 7.78875 5 9 C5.66 9.33 6.32 9.66 7 10 C7 10.66 7 11.32 7 12 C7.66 12 8.32 12 9 12 C8.67 12.66 8.34 13.32 8 14 C6.5344405 12.92646259 5.07779848 11.8407446 3.625 10.75 C2.81289062 10.14671875 2.00078125 9.5434375 1.1640625 8.921875 C-0.96826778 7.02818096 -1.94636704 5.61671482 -3 3 C-2.01 2.01 -1.02 1.02 0 0 Z " fill="#C9A58F" transform="translate(157,23)"/>
<path d="M0 0 C2 1 2 1 3.125 3.375 C4 6 4 6 4 9 C9.94 9 15.88 9 22 9 C22 6.36 22 3.72 22 1 C22.33 1 22.66 1 23 1 C23 3.97 23 6.94 23 10 C16.4 10 9.8 10 3 10 C3 9.34 3 8.68 3 8 C2.34 8 1.68 8 1 8 C0.67 5.36 0.34 2.72 0 0 Z " fill="#CE7F61" transform="translate(79,78)"/>
<path d="M0 0 C0.66 0.33 1.32 0.66 2 1 C0.625 2.5 0.625 2.5 -1 4 C-1.66 4 -2.32 4 -3 4 C-3.13148437 4.91265625 -3.13148437 4.91265625 -3.265625 5.84375 C-4.20775345 8.6099995 -5.23009216 9.09794601 -7.75 10.5 C-11.07782523 12.43325099 -14.04992693 14.51087584 -17 17 C-17.33 16.34 -17.66 15.68 -18 15 C-12.16541771 9.78473092 -6.14332374 4.84667959 0 0 Z " fill="#C9724A" transform="translate(57,27)"/>
<path d="M0 0 C-0.33 0.99 -0.66 1.98 -1 3 C-1.66 3 -2.32 3 -3 3 C-2.67 3.99 -2.34 4.98 -2 6 C-3.65 6.33 -5.3 6.66 -7 7 C-7 6.34 -7 5.68 -7 5 C-8.65 5 -10.3 5 -12 5 C-8.77464852 1.23708994 -4.90542108 -1.63514036 0 0 Z " fill="#D0B9A9" transform="translate(68,16)"/>
<path d="M0 0 C0.33 0 0.66 0 1 0 C2.32866339 7.24725483 2.32866339 7.24725483 1.03125 10.21875 C-2.0293475 12.90265858 -5.29906412 12.67528769 -9.1875 12.75 C-9.93708984 12.77964844 -10.68667969 12.80929688 -11.45898438 12.83984375 C-13.30541307 12.9104079 -15.15271261 12.95748476 -17 13 C-17 11.68 -17 10.36 -17 9 C-16.01 9.33 -15.02 9.66 -14 10 C-10.61421945 10.38981026 -7.37680147 10.50680494 -4 10 C-1.20741399 7.03816635 -0.56802238 3.97615668 0 0 Z " fill="#DD967C" transform="translate(95,148)"/>
<path d="M0 0 C0.33 0 0.66 0 1 0 C1.02685095 2.47923801 1.04676547 4.9581884 1.0625 7.4375 C1.07087891 8.14455078 1.07925781 8.85160156 1.08789062 9.58007812 C1.09653588 11.38693559 1.05220011 13.19387603 1 15 C0.67 15.33 0.34 15.66 0 16 C-0.53092135 18.27983876 -0.96317971 20.57194084 -1.40234375 22.87109375 C-2 25 -2 25 -4 27 C-3.27643663 17.88310149 -1.65707093 8.98361723 0 0 Z " fill="#E3A68F" transform="translate(164,65)"/>
<path d="M0 0 C5.19209404 -0.21192221 9.126739 0.4087311 14 2 C13.01 2.66 12.02 3.32 11 4 C10.34 3.814375 9.68 3.62875 9 3.4375 C8.01 3.2209375 8.01 3.2209375 7 3 C5.22809091 4.35444301 5.22809091 4.35444301 4 6 C2.02 5.34 0.04 4.68 -2 4 C-1.34 2.68 -0.68 1.36 0 0 Z " fill="#D1BAAD" transform="translate(121,9)"/>
<path d="M0 0 C7.26 0 14.52 0 22 0 C23.09898702 3.29696105 22.87124444 4.40494903 22.0625 7.6875 C21.86785156 8.49574219 21.67320312 9.30398437 21.47265625 10.13671875 C21.31667969 10.75160156 21.16070312 11.36648437 21 12 C20.67 12 20.34 12 20 12 C20 8.37 20 4.74 20 1 C13.4 1 6.8 1 0 1 C0 0.67 0 0.34 0 0 Z " fill="#FDCFB8" transform="translate(132,72)"/>
<path d="M0 0 C0.33 0.66 0.66 1.32 1 2 C3.54941373 2.31241371 6.00361513 2.51303421 8.5625 2.625 C9.62887695 2.68300781 9.62887695 2.68300781 10.71679688 2.7421875 C12.47742425 2.83671783 14.23867728 2.91945817 16 3 C16.69906942 4.59915881 17.38389468 6.20455045 18.0625 7.8125 C18.44535156 8.70582031 18.82820313 9.59914063 19.22265625 10.51953125 C20 13 20 13 19 16 C18.525625 15.030625 18.05125 14.06125 17.5625 13.0625 C16.29806053 10.19522563 16.29806053 10.19522563 15 9 C15 7.35 15 5.7 15 4 C10.05 4 5.1 4 0 4 C0 2.68 0 1.36 0 0 Z " fill="#E1AA93" transform="translate(46,52)"/>
<path d="M0 0 C0.33 0.66 0.66 1.32 1 2 C1.99 2.33 2.98 2.66 4 3 C2.35 5.64 0.7 8.28 -1 11 C-1.33 10.01 -1.66 9.02 -2 8 C-2.66 8 -3.32 8 -4 8 C-4.33 6.68 -4.66 5.36 -5 4 C-3.35 2.68 -1.7 1.36 0 0 Z " fill="#CAA48F" transform="translate(26,53)"/>
<path d="M0 0 C0.33 0 0.66 0 1 0 C1 4.62 1 9.24 1 14 C6.28 14 11.56 14 17 14 C17.33 12.68 17.66 11.36 18 10 C18.66 10 19.32 10 20 10 C19.67 11.65 19.34 13.3 19 15 C12.73 15 6.46 15 0 15 C0 10.05 0 5.1 0 0 Z " fill="#CD795A" transform="translate(132,73)"/>
<path d="M0 0 C0 1.65 0 3.3 0 5 C-0.928125 4.979375 -1.85625 4.95875 -2.8125 4.9375 C-6.02286011 4.84230396 -6.02286011 4.84230396 -9 6 C-9.66 5.34 -10.32 4.68 -11 4 C-7.64191281 0.32209498 -4.88401581 -0.13200043 0 0 Z " fill="#C8AA99" transform="translate(150,185)"/>
<path d="M0 0 C2.4375 0.375 2.4375 0.375 5 1 C5.33 1.66 5.66 2.32 6 3 C6.66 2.67 7.32 2.34 8 2 C7.67 3.32 7.34 4.64 7 6 C7.66 6 8.32 6 9 6 C9 6.66 9 7.32 9 8 C7.35 8.66 5.7 9.32 4 10 C3.32845067 8.71086513 2.66291141 7.41859796 2 6.125 C1.62875 5.40570313 1.2575 4.68640625 0.875 3.9453125 C0 2 0 2 0 0 Z " fill="#C2A796" transform="translate(184,60)"/>
<path d="M0 0 C2.12563103 0.11376617 4.2505261 0.24135631 6.375 0.375 C8.15003906 0.47941406 8.15003906 0.47941406 9.9609375 0.5859375 C13 1 13 1 15 3 C13.68 3.33 12.36 3.66 11 4 C11.33 4.99 11.66 5.98 12 7 C7.39104317 5.68315519 3.85859765 3.84801255 0 1 C0 0.67 0 0.34 0 0 Z " fill="#D3BDB0" transform="translate(52,184)"/>
<path d="M0 0 C0.99 0.33 1.98 0.66 3 1 C3.33 1.99 3.66 2.98 4 4 C4.66 4.33 5.32 4.66 6 5 C6 4.34 6 3.68 6 3 C6.99 3.33 7.98 3.66 9 4 C9.33 4.99 9.66 5.98 10 7 C8.68 7.33 7.36 7.66 6 8 C6.33 9.32 6.66 10.64 7 12 C3.71534104 9.20803989 1.98678042 5.76803183 0 2 C0 1.34 0 0.68 0 0 Z " fill="#D3BBAC" transform="translate(18,145)"/>
<path d="M0 0 C0.33 0 0.66 0 1 0 C1.33 3.63 1.66 7.26 2 11 C2.66 11 3.32 11 4 11 C4 11.66 4 12.32 4 13 C7.63 13 11.26 13 15 13 C15 13.33 15 13.66 15 14 C10.38 14.33 5.76 14.66 1 15 C0.34015277 11.04091662 -0.12125692 8.00295662 -0.0625 4.125 C-0.05347656 3.34382813 -0.04445312 2.56265625 -0.03515625 1.7578125 C-0.02355469 1.17773438 -0.01195312 0.59765625 0 0 Z " fill="#ECC5B2" transform="translate(131,94)"/>
<path d="M0 0 C2.86632944 2.86632944 3.2315668 6.29316426 4.125 10.125 C4.39763672 11.25615234 4.39763672 11.25615234 4.67578125 12.41015625 C5.12354709 14.27191946 5.56260722 16.13577253 6 18 C5.01 17.67 4.02 17.34 3 17 C3 15.68 3 14.36 3 13 C2.34 13 1.68 13 1 13 C0.67 8.71 0.34 4.42 0 0 Z " fill="#CF9E83" transform="translate(17,123)"/>
<path d="M0 0 C2.00841268 0.01421885 4.01537247 0.13420475 6.01953125 0.265625 C5.02953125 0.760625 5.02953125 0.760625 4.01953125 1.265625 C4.34953125 2.255625 4.67953125 3.245625 5.01953125 4.265625 C4.35953125 4.925625 3.69953125 5.585625 3.01953125 6.265625 C2.02953125 6.265625 1.03953125 6.265625 0.01953125 6.265625 C0.01953125 5.605625 0.01953125 4.945625 0.01953125 4.265625 C-1.63046875 4.265625 -3.28046875 4.265625 -4.98046875 4.265625 C-3.72152968 1.74774686 -2.88459378 0.38688832 0 0 Z " fill="#CBB1A0" transform="translate(116.98046875,7.734375)"/>
<path d="M0 0 C7.92 0.33 15.84 0.66 24 1 C24 1.33 24 1.66 24 2 C16.74 2 9.48 2 2 2 C1.67 3.98 1.34 5.96 1 8 C0.67 8 0.34 8 0 8 C0 5.36 0 2.72 0 0 Z " fill="#CD7859" transform="translate(45,44)"/>
<path d="M0 0 C0.99 0.33 1.98 0.66 3 1 C2.27991594 5.60853797 0.68704061 9.67237409 -1 14 C-1.33 14 -1.66 14 -2 14 C-2.33 10.7 -2.66 7.4 -3 4 C-2.34 3.67 -1.68 3.34 -1 3 C-0.67 2.01 -0.34 1.02 0 0 Z " fill="#CCA48D" transform="translate(21,63)"/>
<path d="M0 0 C1.8253125 0.0309375 1.8253125 0.0309375 3.6875 0.0625 C3.6875 0.3925 3.6875 0.7225 3.6875 1.0625 C2.76517578 1.19205078 2.76517578 1.19205078 1.82421875 1.32421875 C-3.3641451 2.15298291 -3.3641451 2.15298291 -7.375 5.3125 C-8.42488393 8.39215952 -8.53801051 10.83018262 -8.3125 14.0625 C-8.9725 13.4025 -9.6325 12.7425 -10.3125 12.0625 C-10.2890625 9.4609375 -10.2890625 9.4609375 -9.9375 6.4375 C-9.82664062 5.43460938 -9.71578125 4.43171875 -9.6015625 3.3984375 C-9.50617188 2.62757813 -9.41078125 1.85671875 -9.3125 1.0625 C-6.1477023 0.35859578 -3.24113051 -0.05493442 0 0 Z " fill="#EFBCA2" transform="translate(85.3125,140.9375)"/>
<path d="M0 0 C3.59634744 3.49359465 6.83451967 7.11098131 10 11 C9.01 11 8.02 11 7 11 C7 10.34 7 9.68 7 9 C5.68 9 4.36 9 3 9 C3 9.66 3 10.32 3 11 C2.34 10.67 1.68 10.34 1 10 C1.20625 9.278125 1.4125 8.55625 1.625 7.8125 C2.05952211 4.55358415 1.41680669 2.91695496 0 0 Z " fill="#CF9F85" transform="translate(31,155)"/>
<path d="M0 0 C1.32 0.33 2.64 0.66 4 1 C4 1.66 4 2.32 4 3 C4.598125 3.12375 5.19625 3.2475 5.8125 3.375 C8 4 8 4 11 6 C12.1875 8.625 12.1875 8.625 13 11 C9.54691313 9.48729451 7.04375621 7.45279358 4.25 4.9375 C3.45078125 4.22464844 2.6515625 3.51179687 1.828125 2.77734375 C1.22484375 2.19082031 0.6215625 1.60429687 0 1 C0 0.67 0 0.34 0 0 Z " fill="#CB704B" transform="translate(40,165)"/>
<path d="M0 0 C0.66 1.32 1.32 2.64 2 4 C2.66 4 3.32 4 4 4 C3.67 5.32 3.34 6.64 3 8 C2.67 7.34 2.34 6.68 2 6 C0.68 6 -0.64 6 -2 6 C-2.33 7.32 -2.66 8.64 -3 10 C-3.33 9.34 -3.66 8.68 -4 8 C-3.22265625 6.0546875 -3.22265625 6.0546875 -2.0625 3.875 C-1.49208984 2.78832031 -1.49208984 2.78832031 -0.91015625 1.6796875 C-0.60980469 1.12539063 -0.30945313 0.57109375 0 0 Z " fill="#D3BEB1" transform="translate(20,57)"/>
<path d="M0 0 C2.0625 0.4375 2.0625 0.4375 4 1 C3.67 1.99 3.34 2.98 3 4 C3.66 4.66 4.32 5.32 5 6 C2.36 6 -0.28 6 -3 6 C-1.125 1.125 -1.125 1.125 0 0 Z " fill="#D0B5A5" transform="translate(121,193)"/>
<path d="M0 0 C2.97 0.495 2.97 0.495 6 1 C6 1.33 6 1.66 6 2 C4.35 2 2.7 2 1 2 C1.66 2.66 2.32 3.32 3 4 C3.1953125 6.1640625 3.1953125 6.1640625 3.125 8.625 C3.10695313 9.44226563 3.08890625 10.25953125 3.0703125 11.1015625 C3.03550781 12.04128906 3.03550781 12.04128906 3 13 C-1.12671321 4.78139816 -1.12671321 4.78139816 -0.625 1.6875 C-0.41875 1.130625 -0.2125 0.57375 0 0 Z " fill="#E5B19C" transform="translate(84,92)"/>
<path d="M0 0 C2.26193799 0.484701 4.06965451 1.03687592 6.125 2.125 C6.74375 2.41375 7.3625 2.7025 8 3 C8.66 2.67 9.32 2.34 10 2 C9.34 4.31 8.68 6.62 8 9 C5.06799526 6.14723863 2.35684596 3.34920216 0 0 Z " fill="#CDA18B" transform="translate(172,44)"/>
<path d="M0 0 C0.33 0.66 0.66 1.32 1 2 C-1.19566645 8.47143795 -1.19566645 8.47143795 -4.1875 10.4375 C-5.0846875 10.7159375 -5.0846875 10.7159375 -6 11 C-6 11.66 -6 12.32 -6 13 C-6.66 12.67 -7.32 12.34 -8 12 C-4 6 -4 6 0 0 Z " fill="#D09B83" transform="translate(183,147)"/>
<path d="M0 0 C5.54050113 0.56825653 10.03715966 2.62886517 15 5 C11.35879332 6.33256282 9.33123446 5.65840377 5.8125 4.1875 C4.93207031 3.83042969 4.05164063 3.47335938 3.14453125 3.10546875 C1 2 1 2 0 0 Z " fill="#CA704E" transform="translate(127,17)"/>
<path d="M0 0 C4.69165109 2.97519337 8.84703191 6.31393365 13 10 C12.01 10.495 12.01 10.495 11 11 C8.875 10.0625 8.875 10.0625 7 9 C7 8.34 7 7.68 7 7 C6.01 7 5.02 7 4 7 C3.67 6.01 3.34 5.02 3 4 C2.01 3.34 1.02 2.68 0 2 C0 1.34 0 0.68 0 0 Z " fill="#D49D82" transform="translate(41,167)"/>
<path d="M0 0 C1.84187025 2.76280538 2.72248277 4.80707826 3.6875 7.9375 C3.95949219 8.79214844 4.23148437 9.64679688 4.51171875 10.52734375 C5.02075548 13.10510574 4.84888744 14.54449337 4 17 C0.92291196 11.06561592 -0.48736475 6.70126536 0 0 Z " fill="#E5B191" transform="translate(69,79)"/>
<path d="M0 0 C1.70884005 1.62339805 3.37446717 3.29319053 5 5 C5 5.66 5 6.32 5 7 C4.01 7.495 4.01 7.495 3 8 C2.67 8.99 2.34 9.98 2 11 C1.34 11 0.68 11 0 11 C0 7.33333333 0 3.66666667 0 0 Z " fill="#D4BFB0" transform="translate(180,43)"/>
<path d="M0 0 C0.99 0.66 1.98 1.32 3 2 C3.99 2.33 4.98 2.66 6 3 C-0.28571429 5.42857143 -0.28571429 5.42857143 -4 4 C-3.67 3.01 -3.34 2.02 -3 1 C-2.01 0.67 -1.02 0.34 0 0 Z " fill="#DCC8BA" transform="translate(130,193)"/>
<path d="M0 0 C0.99 0.33 1.98 0.66 3 1 C2.814375 1.61875 2.62875 2.2375 2.4375 2.875 C1.76313824 5.04160178 1.76313824 5.04160178 3 7 C-1.75 6.25 -1.75 6.25 -4 4 C-2.68 2.68 -1.36 1.36 0 0 Z " fill="#D5BEAF" transform="translate(68,187)"/>
<path d="M0 0 C2.0625 0.4375 2.0625 0.4375 4 1 C3.34 3.31 2.68 5.62 2 8 C1.34 7.67 0.68 7.34 0 7 C-0.6875 4 -0.6875 4 -1 1 C-0.67 0.67 -0.34 0.34 0 0 Z " fill="#C9B09E" transform="translate(37,166)"/>
<path d="M0 0 C1.32 1.32 2.64 2.64 4 4 C2.68 5.32 1.36 6.64 0 8 C-0.66 6.02 -1.32 4.04 -2 2 C-1.34 1.34 -0.68 0.68 0 0 Z " fill="#CDB6A7" transform="translate(181,155)"/>
<path d="M0 0 C-3.26545761 1.88391785 -6.28111761 2.49287967 -10 3 C-10.33 3.99 -10.66 4.98 -11 6 C-11.66 6 -12.32 6 -13 6 C-12.67 4.35 -12.34 2.7 -12 1 C-7.9472484 0.01751476 -4.16138263 -0.08159574 0 0 Z " fill="#E4B5A1" transform="translate(98,122)"/>
<path d="M0 0 C1.90318884 2.85478326 2.4619099 4.41941308 3.125 7.6875 C3.29257813 8.49574219 3.46015625 9.30398437 3.6328125 10.13671875 C3.75398438 10.75160156 3.87515625 11.36648437 4 12 C2.5 10.625 2.5 10.625 1 9 C1 8.34 1 7.68 1 7 C0.34 7 -0.32 7 -1 7 C-0.67 4.69 -0.34 2.38 0 0 Z " fill="#DEA387" transform="translate(74,96)"/>
<path d="M0 0 C0.66 0.33 1.32 0.66 2 1 C0.515 2.485 0.515 2.485 -1 4 C-0.67 4.99 -0.34 5.98 0 7 C-2.31 6.67 -4.62 6.34 -7 6 C-2.25 1.125 -2.25 1.125 0 0 Z " fill="#D5C0B4" transform="translate(54,21)"/>
<path d="M0 0 C3.3 0 6.6 0 10 0 C5.86621405 2.7558573 3.94796454 3.10756445 -1 3 C-0.67 2.01 -0.34 1.02 0 0 Z " fill="#C86D47" transform="translate(123,188)"/>
<path d="M0 0 C-2.34914492 2.34914492 -3.95679446 2.73140357 -7.125 3.625 C-8.49011719 4.01558594 -8.49011719 4.01558594 -9.8828125 4.4140625 C-10.58148438 4.60742188 -11.28015625 4.80078125 -12 5 C-11 2 -11 2 -8.8125 0.8125 C-5.74609689 -0.07334979 -3.17561845 -0.14770318 0 0 Z " fill="#CC6B47" transform="translate(146,183)"/>
<path d="M0 0 C3 1 3 1 4 3 C4.13415472 5.6723621 4.04318541 8.32250488 4 11 C3.34 11 2.68 11 2 11 C1.34 7.37 0.68 3.74 0 0 Z " fill="#DD9072" transform="translate(150,144)"/>
<path d="M0 0 C0.8971875 0.5259375 0.8971875 0.5259375 1.8125 1.0625 C-1 2.625 -1 2.625 -4.1875 4.0625 C-5.1775 3.7325 -6.1675 3.4025 -7.1875 3.0625 C-4.99720701 -0.22293948 -3.86362761 -1.6558404 0 0 Z " fill="#D9C5B5" transform="translate(146.1875,189.9375)"/>
<path d="M0 0 C3.39379675 1.13126558 4.78132865 2.22666082 7 5 C6.609375 7.13671875 6.609375 7.13671875 6 9 C4.99712471 7.68969568 3.99777175 6.37669473 3 5.0625 C2.443125 4.33160156 1.88625 3.60070312 1.3125 2.84765625 C0 1 0 1 0 0 Z " fill="#C6714C" transform="translate(30,152)"/>
<path d="M0 0 C0.99 0 1.98 0 3 0 C2.34 3.63 1.68 7.26 1 11 C0.67 11 0.34 11 0 11 C0 7.37 0 3.74 0 0 Z " fill="#E3B9A2" transform="translate(152,73)"/>
<path d="M0 0 C1.67542976 0.28604898 3.34385343 0.61781233 5 1 C3.35 2.65 1.7 4.3 0 6 C-0.38218767 4.34385343 -0.71395102 2.67542976 -1 1 C-0.67 0.67 -0.34 0.34 0 0 Z " fill="#D0BBAC" transform="translate(175,164)"/>
<path d="M0 0 C1.65 0.33 3.3 0.66 5 1 C2.82575883 3.50037734 1.26954202 4.43628586 -2 5 C-1.34 3.35 -0.68 1.7 0 0 Z " fill="#DCC4B7" transform="translate(152,184)"/>
<path d="M0 0 C0.33 0 0.66 0 1 0 C1.16873478 1.43725871 1.33490737 2.87481838 1.5 4.3125 C1.5928125 5.11300781 1.685625 5.91351563 1.78125 6.73828125 C2 9 2 9 2 12 C0.68 11.34 -0.64 10.68 -2 10 C-1.34 6.7 -0.68 3.4 0 0 Z " fill="#EDC0A9" transform="translate(133,146)"/>
<path d="M0 0 C0.99 1.32 1.98 2.64 3 4 C1.35 4.66 -0.3 5.32 -2 6 C-2.66 5.34 -3.32 4.68 -4 4 C-2.68 2.68 -1.36 1.36 0 0 Z " fill="#C6A893" transform="translate(189,141)"/>
<path d="M0 0 C0.99 0.66 1.98 1.32 3 2 C0.03 4.475 0.03 4.475 -3 7 C-3 5.35 -3 3.7 -3 2 C-2.01 2 -1.02 2 0 2 C0 1.34 0 0.68 0 0 Z " fill="#CD9E86" transform="translate(44,34)"/>
<path d="M0 0 C1.4384798 0.06423833 2.87666999 0.14163547 4.3125 0.25 C4.3125 0.58 4.3125 0.91 4.3125 1.25 C0.33189223 2.42076699 -3.60371717 3.50749403 -7.6875 4.25 C-5.84004374 0.30875998 -4.09551026 -0.02575793 0 0 Z " fill="#CD6C45" transform="translate(88.6875,15.75)"/>
<path d="M0 0 C2.625 0.375 2.625 0.375 5 1 C5 1.66 5 2.32 5 3 C2 4 2 4 -0.1875 3.0625 C-0.785625 2.711875 -1.38375 2.36125 -2 2 C-1.34 1.34 -0.68 0.68 0 0 Z " fill="#C4A896" transform="translate(54,181)"/>
<path d="M0 0 C5.94 0.99 5.94 0.99 12 2 C12 2.33 12 2.66 12 3 C6.06 3.495 6.06 3.495 0 4 C0 2.68 0 1.36 0 0 Z " fill="#EECCB8" transform="translate(78,157)"/>
<path d="M0 0 C1.32 0.33 2.64 0.66 4 1 C3.67 2.98 3.34 4.96 3 7 C2.01 6.67 1.02 6.34 0 6 C0 4.02 0 2.04 0 0 Z " fill="#D9886A" transform="translate(153,126)"/>
<path d="M0 0 C0.33 0 0.66 0 1 0 C1.33 3.3 1.66 6.6 2 10 C1.01 9.67 0.02 9.34 -1 9 C-0.67 6.03 -0.34 3.06 0 0 Z " fill="#E6BAA2" transform="translate(78,122)"/>
<path d="M0 0 C2.31 0.33 4.62 0.66 7 1 C7 1.99 7 2.98 7 4 C4.97954558 3.39816251 2.97888961 2.72693904 1 2 C0.67 1.34 0.34 0.68 0 0 Z " fill="#CC704E" transform="translate(63,182)"/>
<path d="M0 0 C3.63 0.33 7.26 0.66 11 1 C11 1.33 11 1.66 11 2 C7.37 2.66 3.74 3.32 0 4 C0 2.68 0 1.36 0 0 Z " fill="#EBBEA1" transform="translate(136,140)"/>
<path d="M0 0 C2.97 0.33 5.94 0.66 9 1 C9 1.33 9 1.66 9 2 C4.545 2.495 4.545 2.495 0 3 C0 2.01 0 1.02 0 0 Z " fill="#CC724B" transform="translate(79,139)"/>
<path d="M0 0 C0.99 0.33 1.98 0.66 3 1 C3.73046875 3.06640625 3.73046875 3.06640625 4.1875 5.5625 C4.34605469 6.38878906 4.50460938 7.21507813 4.66796875 8.06640625 C4.77753906 8.70449219 4.88710937 9.34257813 5 10 C2.35534962 6.8745041 1.15585285 3.91211733 0 0 Z " fill="#CFA28A" transform="translate(184,60)"/>
</svg>
