<?xml version="1.0" encoding="UTF-8"?>
<svg version="1.1" xmlns="http://www.w3.org/2000/svg" width="100" height="100">
<path d="M0 0 C2.31 0 4.62 0 7 0 C6.67 1.65 6.34 3.3 6 5 C18.87 5 31.74 5 45 5 C45 3.35 45 1.7 45 0 C46.98 0 48.96 0 51 0 C51.495 2.475 51.495 2.475 52 5 C52.62044189 4.97905273 53.24088379 4.95810547 53.88012695 4.93652344 C56.69075318 4.85338594 59.50112096 4.80134939 62.3125 4.75 C63.77719727 4.69972656 63.77719727 4.69972656 65.27148438 4.6484375 C66.20927734 4.63554688 67.14707031 4.62265625 68.11328125 4.609375 C68.97735596 4.58842773 69.84143066 4.56748047 70.73168945 4.54589844 C73 5 73 5 74.78051758 6.8425293 C76.39243206 9.69427871 76.39923637 11.80270829 76.375 15.0625 C76.38660156 16.62677734 76.38660156 16.62677734 76.3984375 18.22265625 C76 21 76 21 74.6640625 22.80859375 C73 24 73 24 70 25 C67.64050259 43.50612239 65.38752403 62.02008679 63.30761719 80.55981445 C63.18712257 81.62978668 63.18712257 81.62978668 63.06419373 82.72137451 C62.84751122 84.64754879 62.63231652 86.57389028 62.41723633 88.50024414 C61.18786631 98.81213369 61.18786631 98.81213369 60 100 C57.66702567 100.04092937 55.33294775 100.04241723 53 100 C53.2791626 98.35269897 53.2791626 98.35269897 53.56396484 96.67211914 C55.72383453 83.63749035 57.24668938 70.57492068 58.625 57.4375 C58.84332049 55.39253223 59.06206881 53.34761008 59.28125 51.30273438 C60.21773114 42.53781878 61.12288191 33.77118086 62 25 C37.91 25 13.82 25 -11 25 C-10.01 33.25 -9.02 41.5 -8 50 C-6.35260312 65.23236454 -6.35260312 65.23236454 -5.77050781 70.9362793 C-4.75843368 80.80613722 -3.30819538 90.3334701 -1 100 C-3.64 100 -6.28 100 -9 100 C-13.2479755 74.86198025 -15.37984639 49.34683354 -18 24 C-18.61875 23.87625 -19.2375 23.7525 -19.875 23.625 C-22 23 -22 23 -24 21 C-24.30078125 18.3203125 -24.30078125 18.3203125 -24.3125 15.125 C-24.32925781 14.07570313 -24.34601562 13.02640625 -24.36328125 11.9453125 C-23.94971136 8.59228352 -23.31727733 7.41065919 -21 5 C-18.82348633 4.54589844 -18.82348633 4.54589844 -16.33203125 4.609375 C-15.43935547 4.62226562 -14.54667969 4.63515625 -13.62695312 4.6484375 C-12.69818359 4.68195312 -11.76941406 4.71546875 -10.8125 4.75 C-9.87212891 4.76804687 -8.93175781 4.78609375 -7.96289062 4.8046875 C-5.64090111 4.8518345 -3.3209631 4.91761769 -1 5 C-0.67 3.35 -0.34 1.7 0 0 Z M-19 12 C-19.33333333 14.5 -19.33333333 14.5 -19 17 C-16.44069538 19.55930462 -14.78195224 19.23563634 -11.29348755 19.24884033 C-10.49651459 19.24164978 -9.69954163 19.23445923 -8.87841797 19.22705078 C-8.03931885 19.22734283 -7.20021973 19.22763489 -6.33569336 19.22793579 C-3.55442056 19.22653933 -0.77341366 19.21096335 2.0078125 19.1953125 C3.93309381 19.19158349 5.85837701 19.18873599 7.78366089 19.18673706 C12.8570477 19.17909176 17.93032044 19.1594356 23.00366211 19.1373291 C28.17820696 19.11688995 33.35277019 19.10773948 38.52734375 19.09765625 C48.68494602 19.07619054 58.84246353 19.04204381 69 19 C70.04214691 14.38492226 70.04214691 14.38492226 69 10 C57.82155167 9.95373046 46.64312598 9.91815825 35.46460152 9.89637566 C30.27438101 9.88592295 25.08422586 9.87173671 19.89404297 9.84912109 C14.88849111 9.82744562 9.88300223 9.81544259 4.87740707 9.81024551 C2.96436445 9.80654021 1.0513254 9.79930504 -0.86169052 9.78853989 C-3.53400976 9.77409527 -6.2060662 9.77201909 -8.87841797 9.77294922 C-9.67539093 9.76575867 -10.47236389 9.75856812 -11.29348755 9.75115967 C-15.61132381 9.60252952 -15.61132381 9.60252952 -19 12 Z " fill="#000000" transform="translate(24,0)"/>
<path d="M0 0 C1.66611905 -0.042721 3.33382885 -0.04063832 5 0 C7.03099716 2.03099716 6.67233263 5.97353325 6.97265625 8.76953125 C7.06002548 9.56090988 7.14739471 10.35228851 7.2374115 11.16764832 C7.42199965 12.85297563 7.60426496 14.53855868 7.78442383 16.22436523 C8.05733756 18.7644517 8.34162318 21.30307926 8.62695312 23.84179688 C9.58617495 32.58980949 10.30787925 41.18405974 10 50 C7.525 50.495 7.525 50.495 5 51 C2.59447547 46.16182334 2.3518195 41.25459623 1.89453125 35.95703125 C1.80620529 34.99222336 1.71787933 34.02741547 1.62687683 33.03337097 C1.44261318 31.00052583 1.26213585 28.96733438 1.08520508 26.93383789 C0.81248268 23.81230174 0.52528268 20.69233655 0.23632812 17.57226562 C0.05903391 15.59643132 -0.11742741 13.62052206 -0.29296875 11.64453125 C-0.37935104 10.7080928 -0.46573334 9.77165436 -0.55473328 8.80683899 C-0.62843643 7.94221542 -0.70213959 7.07759186 -0.77807617 6.18676758 C-0.84532394 5.42463455 -0.91257172 4.66250153 -0.9818573 3.87727356 C-1 2 -1 2 0 0 Z " fill="#000000" transform="translate(27,38)"/>
<path d="M0 0 C1.65 0.33 3.3 0.66 5 1 C5.26496501 9.34639771 4.32944399 17.40506619 3.28222656 25.66210938 C2.99036959 28.07977579 2.73601342 30.49891463 2.4921875 32.921875 C2.3681958 34.13230469 2.3681958 34.13230469 2.24169922 35.3671875 C2.08431876 36.91873628 1.93203671 38.47081342 1.78564453 40.0234375 C1.37305109 43.99589072 0.71039905 47.37965535 -1 51 C-2.32 50.67 -3.64 50.34 -5 50 C-6.38002213 45.13679952 -5.79102573 40.63330176 -5.29296875 35.68359375 C-5.20751297 34.79011734 -5.12205719 33.89664093 -5.03401184 32.97608948 C-4.85175939 31.09218325 -4.66578073 29.20863425 -4.47631836 27.32543945 C-4.18826593 24.44515868 -3.91661905 21.56365067 -3.64648438 18.68164062 C-3.4671319 16.84886157 -3.28682558 15.01617555 -3.10546875 13.18359375 C-2.98500435 11.89285194 -2.98500435 11.89285194 -2.86210632 10.57603455 C-2.77894669 9.7716243 -2.69578705 8.96721405 -2.61010742 8.13842773 C-2.54047287 7.43403061 -2.47083832 6.72963348 -2.39909363 6.00389099 C-1.94982029 3.74804242 -1.10803085 2.00595822 0 0 Z " fill="#000000" transform="translate(68,38)"/>
<path d="M0 0 C1.65 0.33 3.3 0.66 5 1 C5 17.17 5 33.34 5 50 C2.525 50.495 2.525 50.495 0 51 C-1.6140925 49.3859075 -1.12734318 47.63523592 -1.12939453 45.40429688 C-1.13254669 44.42658325 -1.13569885 43.44886963 -1.13894653 42.44152832 C-1.1369223 41.37801147 -1.13489807 40.31449463 -1.1328125 39.21875 C-1.13376923 38.13493042 -1.13472595 37.05111084 -1.13571167 35.93444824 C-1.13639365 33.6377761 -1.13453811 31.34110205 -1.13037109 29.04443359 C-1.12502312 25.51525572 -1.1303155 21.98620513 -1.13671875 18.45703125 C-1.13605797 16.23177055 -1.13477682 14.00650993 -1.1328125 11.78125 C-1.13483673 10.71773315 -1.13686096 9.65421631 -1.13894653 8.55847168 C-1.13579437 7.58075806 -1.13264221 6.60304443 -1.12939453 5.59570312 C-1.12859894 4.73046021 -1.12780334 3.86521729 -1.12698364 2.97375488 C-1 1 -1 1 0 0 Z " fill="#000000" transform="translate(48,38)"/>
</svg>
