<?xml version="1.0" encoding="UTF-8"?>
<svg version="1.1" xmlns="http://www.w3.org/2000/svg" width="100" height="100">
<path d="M0 0 C2.95778026 7.09867263 3.99403188 13.38642373 2 21 C1.82726562 21.66902344 1.65453125 22.33804687 1.4765625 23.02734375 C-0.36962691 29.3804073 -3.20030615 35.4747868 -8.875 39.24609375 C-9.49375 39.57738281 -10.1125 39.90867188 -10.75 40.25 C-14.18058407 42.09723757 -14.71288681 42.52850722 -16 46 C-16.52318457 50.5932528 -16.33605867 54.88680565 -15 59.3125 C-13.43990829 65.06533819 -12.29055345 72.411575 -14.9453125 77.984375 C-16.1875 79.375 -16.1875 79.375 -19 81 C-21.8125 80.8125 -21.8125 80.8125 -24 80 C-24 79.34 -24 78.68 -24 78 C-24.99 77.67 -25.98 77.34 -27 77 C-27.69784479 72.0721422 -28.21987493 67.8794997 -27 63 C-26.81822769 61.50175549 -26.65310783 60.00144456 -26.5 58.5 C-26.25174961 56.10418668 -25.96677223 53.852321 -25.4375 51.5 C-24.39587854 45.75511199 -24.39587854 45.75511199 -25 40 C-26.8510512 37.68091535 -28.87577759 35.81180484 -31.0859375 33.8359375 C-34.5526743 30.51070016 -34.88568306 27.23462296 -35.3125 22.625 C-34.73646591 15.9430045 -32.23381078 10.23000155 -28 5 C-24.63681978 3.10282141 -21.83266218 2.60690644 -18 3 C-17.39542969 3.37253906 -16.79085937 3.74507812 -16.16796875 4.12890625 C-13.97671079 5.25782676 -13.97671079 5.25782676 -11.4921875 4.35546875 C-10.62851562 3.97003906 -9.76484375 3.58460937 -8.875 3.1875 C-8.00617187 2.80980469 -7.13734375 2.43210937 -6.2421875 2.04296875 C-1.85018727 0 -1.85018727 0 0 0 Z M-18.875 15.25 C-22.21005264 18.81102583 -24.72480827 23.03737579 -25 28 C-23.64612698 30.262972 -23.64612698 30.262972 -22 32 C-21.61328125 31.16855469 -21.2265625 30.33710937 -20.828125 29.48046875 C-20.04695313 27.85044922 -20.04695313 27.85044922 -19.25 26.1875 C-18.73953125 25.10855469 -18.2290625 24.02960937 -17.703125 22.91796875 C-16.01538921 20.02636637 -14.6448366 18.91463171 -12 17 C-12 16.01 -12 15.02 -12 14 C-11.01 14 -10.02 14 -9 14 C-9.55429687 15.15757813 -10.10859375 16.31515625 -10.6796875 17.5078125 C-11.41163964 19.04678878 -12.14340036 20.58585612 -12.875 22.125 C-13.23980469 22.88554687 -13.60460938 23.64609375 -13.98046875 24.4296875 C-15.93814983 28.55861487 -17.66922972 32.61546214 -19 37 C-18.34 37.66 -17.68 38.32 -17 39 C-16.67 38.01 -16.34 37.02 -16 36 C-15.278125 35.7525 -14.55625 35.505 -13.8125 35.25 C-8.69000347 32.97333487 -5.75502691 28.73984462 -3.5625 23.6875 C-2.71899698 21.04453633 -2.71899698 21.04453633 -4 19 C-3.34 18.67 -2.68 18.34 -2 18 C-2.33 14.37 -2.66 10.74 -3 7 C-9.07089722 7 -14.51240961 11.267976 -18.875 15.25 Z " fill="#D57649" transform="translate(69,8)"/>
<path d="M0 0 C0.66 0.99 1.32 1.98 2 3 C2.99 3 3.98 3 5 3 C3.0676055 8.97285573 -0.19320184 13.2061541 -5.6875 16.125 C-9.11669509 18.06605383 -9.70398349 18.50012934 -11 22 C-11.52318457 26.5932528 -11.33605867 30.88680565 -10 35.3125 C-8.43990829 41.06533819 -7.29055345 48.411575 -9.9453125 53.984375 C-11.1875 55.375 -11.1875 55.375 -14 57 C-16.8125 56.8125 -16.8125 56.8125 -19 56 C-19 55.34 -19 54.68 -19 54 C-19.99 53.67 -20.98 53.34 -22 53 C-22.69784479 48.0721422 -23.21987493 43.8794997 -22 39 C-21.81822769 37.50175549 -21.65310783 36.00144456 -21.5 34.5 C-21.24949722 32.08642556 -20.95834739 29.81024924 -20.4375 27.4375 C-19.80876571 23.93455179 -19.93971614 20.55674783 -20 17 C-19.67 17 -19.34 17 -19 17 C-19 18.98 -19 20.96 -19 23 C-17.68 22.67 -16.36 22.34 -15 22 C-14.505 17.545 -14.505 17.545 -14 13 C-13.34 13.33 -12.68 13.66 -12 14 C-11.62875 13.608125 -11.2575 13.21625 -10.875 12.8125 C-9 11 -9 11 -6 8.6875 C-2.98190781 6.22497702 -1.51131666 3.61036758 0 0 Z " fill="#BD5839" transform="translate(64,32)"/>
<path d="M0 0 C0.99 0 1.98 0 3 0 C1.83243713 3.92725691 0.30370516 7.55256133 -1.4375 11.25 C-4.54246995 17.9728553 -6.61362059 24.73434497 -8 32 C-9.98 32.495 -9.98 32.495 -12 33 C-12.12375 31.9275 -12.2475 30.855 -12.375 29.75 C-12.72880386 26.14957538 -12.72880386 26.14957538 -14.25 24 C-15 22 -15 22 -13.625 18.25 C-13.08875 17.1775 -12.5525 16.105 -12 15 C-11.34 15.33 -10.68 15.66 -10 16 C-9.67386719 15.31292969 -9.34773438 14.62585937 -9.01171875 13.91796875 C-8.57472656 13.01691406 -8.13773438 12.11585937 -7.6875 11.1875 C-7.25824219 10.29417969 -6.82898437 9.40085937 -6.38671875 8.48046875 C-5.10716248 6.191685 -4.03094395 4.63891188 -2 3 C-1.34 3 -0.68 3 0 3 C0 2.01 0 1.02 0 0 Z " fill="#B55C40" transform="translate(57,22)"/>
<path d="M0 0 C3.86025568 9.26461364 3.83632668 17.62231257 0 27 C-0.99 27.33 -1.98 27.66 -3 28 C-4 27 -4 27 -4.1328125 25.1875 C-4.12894531 24.1046875 -4.12894531 24.1046875 -4.125 23 C-4.12757812 22.278125 -4.13015625 21.55625 -4.1328125 20.8125 C-4 19 -4 19 -3 18 C-2.92773498 16.14712498 -2.9161878 14.29166122 -2.9375 12.4375 C-2.94652344 11.42558594 -2.95554687 10.41367187 -2.96484375 9.37109375 C-2.97644531 8.58863281 -2.98804687 7.80617188 -3 7 C-5.97 6.505 -5.97 6.505 -9 6 C-8.67 5.34 -8.34 4.68 -8 4 C-7.34 4 -6.68 4 -6 4 C-5.67 3.01 -5.34 2.02 -5 1 C-2 0 -2 0 0 0 Z " fill="#BA7C46" transform="translate(69,8)"/>
<path d="M0 0 C0.66 0.99 1.32 1.98 2 3 C2.99 3 3.98 3 5 3 C3.08288393 8.92563148 -0.33016342 13.18132487 -5.5625 16.4375 C-9 18 -9 18 -11.4375 17.75 C-11.953125 17.5025 -12.46875 17.255 -13 17 C-11.62265868 12.04157126 -9.22414926 10.70345553 -5 8 C-2.55136689 5.28664979 -1.1565211 3.46956331 0 0 Z " fill="#AA6144" transform="translate(64,32)"/>
<path d="M0 0 C0.99 0 1.98 0 3 0 C0.93145788 6.95782348 -1.9682292 13.9523438 -6 20 C-6.33 18.35 -6.66 16.7 -7 15 C-7.66 15 -8.32 15 -9 15 C-7.54822555 10.88663907 -5.61875142 7.49166855 -3 4 C-2.01 3.67 -1.02 3.34 0 3 C0 2.01 0 1.02 0 0 Z " fill="#A8644C" transform="translate(57,22)"/>
<path d="M0 0 C0.66 1.32 1.32 2.64 2 4 C1.01 4.66 0.02 5.32 -1 6 C-3.8531826 13.35820775 -4.01727986 20.64538035 -1 28 C-5.15674643 24.24551935 -5.82937515 22.21812301 -6.25 16.75 C-5.82823455 10.42351829 -3.46546139 5.28070307 0 0 Z " fill="#8F5042" transform="translate(40,14)"/>
<path d="M0 0 C0.66 0.99 1.32 1.98 2 3 C2.99 3 3.98 3 5 3 C3.87548273 5.9719385 2.77706209 8.33440687 1 11 C-1.475 10.01 -1.475 10.01 -4 9 C-2.80100302 5.9168649 -1.52299523 2.93720508 0 0 Z " fill="#B17557" transform="translate(64,32)"/>
<path d="M0 0 C2.0625 2.25 2.0625 2.25 4 5 C3.75 6.9375 3.75 6.9375 3 9 C3.020625 10.03125 3.04125 11.0625 3.0625 12.125 C3 15 3 15 1 17 C0.690625 16.05125 0.38125 15.1025 0.0625 14.125 C-0.87394742 11.13919592 -0.87394742 11.13919592 -2 9 C-1.66015625 6.8359375 -1.66015625 6.8359375 -1.0625 4.375 C-0.86785156 3.55773438 -0.67320313 2.74046875 -0.47265625 1.8984375 C-0.23869141 0.95871094 -0.23869141 0.95871094 0 0 Z " fill="#B15D3F" transform="translate(50,45)"/>
<path d="M0 0 C3.15559798 3.15559798 2.95481251 6.33348452 3.25 10.6875 C3.1675 11.780625 3.085 12.87375 3 14 C2.01 14.66 1.02 15.32 0 16 C-0.9360342 12.20732808 -0.98276252 9.06325435 -0.5625 5.1875 C-0.40974609 3.72376953 -0.40974609 3.72376953 -0.25390625 2.23046875 C-0.12822266 1.12638672 -0.12822266 1.12638672 0 0 Z " fill="#D1A67A" transform="translate(69,10)"/>
<path d="M0 0 C0.66 0.33 1.32 0.66 2 1 C2.40729228 3.32156597 2.74438677 5.6568787 3 8 C1.02 8.99 1.02 8.99 -1 10 C-2 9 -2 9 -2.09765625 7.15234375 C-2.06510417 5.1015625 -2.03255208 3.05078125 -2 1 C-1.34 0.67 -0.68 0.34 0 0 Z " fill="#D9995C" transform="translate(67,26)"/>
<path d="M0 0 C0 2.31 0 4.62 0 7 C-1.65 7.33 -3.3 7.66 -5 8 C-4.6875 5.125 -4.6875 5.125 -4 2 C-1 0 -1 0 0 0 Z " fill="#CA7F58" transform="translate(51,36)"/>
<path d="M0 0 C0.99 0 1.98 0 3 0 C1.125 5.75 1.125 5.75 0 8 C-0.99 7.67 -1.98 7.34 -3 7 C-2.67 5.68 -2.34 4.36 -2 3 C-1.34 3 -0.68 3 0 3 C0 2.01 0 1.02 0 0 Z " fill="#C08875" transform="translate(57,22)"/>
<path d="M0 0 C0 0.66 0 1.32 0 2 C-0.99 2.495 -0.99 2.495 -2 3 C-1.34 3.33 -0.68 3.66 0 4 C0 4.66 0 5.32 0 6 C-1.32 6.33 -2.64 6.66 -4 7 C-4 6.01 -4 5.02 -4 4 C-5.32 3.67 -6.64 3.34 -8 3 C-2.25 0 -2.25 0 0 0 Z " fill="#8B5B42" transform="translate(63,10)"/>
<path d="M0 0 C1.5 1.3125 1.5 1.3125 3 3 C3 3.99 3 4.98 3 6 C0.69 5.67 -1.62 5.34 -4 5 C-3.67 4.34 -3.34 3.68 -3 3 C-2.34 3 -1.68 3 -1 3 C-0.67 2.01 -0.34 1.02 0 0 Z " fill="#E7AE6A" transform="translate(64,9)"/>
<path d="M0 0 C0.66 0.33 1.32 0.66 2 1 C1.67 2.98 1.34 4.96 1 7 C-0.32 7.33 -1.64 7.66 -3 8 C-3 6.35 -3 4.7 -3 3 C-2.01 3.495 -2.01 3.495 -1 4 C-0.67 2.68 -0.34 1.36 0 0 Z " fill="#DB967A" transform="translate(48,47)"/>
<path d="M0 0 C0.99 0.99 1.98 1.98 3 3 C2.34 4.98 1.68 6.96 1 9 C0 7 -1 5 -2 3 C-1.34 2.01 -0.68 1.02 0 0 Z " fill="#7F4D3A" transform="translate(53,27)"/>
<path d="M0 0 C0.66 1.32 1.32 2.64 2 4 C1.01 4.66 0.02 5.32 -1 6 C-2.19232613 8.05003955 -2.19232613 8.05003955 -3 10 C-4 7 -4 7 -3.22265625 5.17578125 C-2.1484375 3.45052083 -1.07421875 1.72526042 0 0 Z " fill="#9F6C53" transform="translate(40,14)"/>
<path d="M0 0 C1.32 0.66 2.64 1.32 4 2 C4 2.66 4 3.32 4 4 C0.25 5.125 0.25 5.125 -2 4 C-1.34 2.68 -0.68 1.36 0 0 Z " fill="#D0795E" transform="translate(53,45)"/>
<path d="M0 0 C0.66 0 1.32 0 2 0 C2 2.31 2 4.62 2 7 C1.34 7 0.68 7 0 7 C-0.38133299 5.0085944 -0.71325582 3.00720923 -1 1 C-0.67 0.67 -0.34 0.34 0 0 Z " fill="#C38356" transform="translate(67,8)"/>
</svg>
